<svg xmlns="http://www.w3.org/2000/svg" width="600.0mm" height="400.0mm" viewBox="0 0 600.0 400.0">
<title>SculptGen sheet 4/4 — 3mm plywood — kerf 0.15mm</title>
<rect x="0" y="0" width="600.0" height="400.0" fill="none" stroke="#cccccc" stroke-width="0.1"/>
<path d="M 52.599,136.679 L 65.153,134.148 L 76.352,131.165 L 88.228,127.068 L 99.486,122.143 L 109.463,116.807 L 119.821,110.136 L 129.907,102.131 L 137.664,94.123 L 142.308,87.444 L 145.622,79.427 L 146.476,72.741 L 145.169,64.720 L 142.052,58.035 L 135.611,50.022 L 125.626,42.013 L 113.297,35.089 L 97.432,28.621 L 86.854,33.774 L 76.314,37.132 L 63.136,38.745 L 59.197,38.563 L 56.584,37.508 L 52.645,33.839 L 49.616,28.710 L 46.188,19.386 L 43.675,8.713 L 41.970,6.000 L 6.000,6.000 L 6.000,39.550 L 50.444,39.550 L 50.444,42.600 L 6.000,42.600 L 6.000,88.550 L 54.237,88.550 L 54.237,91.600 L 6.000,91.600 L 6.000,141.605 L 38.085,138.808 L 52.599,136.679 Z" fill="none" stroke="#ff0000" stroke-width="0.1" fill-rule="evenodd"/>
<path d="M 195.749,138.625 L 208.947,136.970 L 216.867,135.207 L 224.788,132.718 L 232.708,129.455 L 241.805,124.807 L 254.767,116.804 L 269.626,106.134 L 279.107,98.129 L 286.247,90.119 L 289.955,83.436 L 291.587,76.751 L 291.598,72.736 L 290.889,68.721 L 288.078,62.037 L 281.887,54.023 L 270.742,44.681 L 255.813,35.342 L 241.920,28.549 L 227.383,31.647 L 204.967,37.507 L 201.034,37.411 L 198.421,36.357 L 194.482,32.800 L 191.230,27.375 L 187.900,18.389 L 185.582,8.716 L 184.234,6.000 L 150.476,6.000 L 150.476,39.550 L 194.920,39.550 L 194.920,42.600 L 150.476,42.600 L 150.476,88.550 L 198.713,88.550 L 198.713,91.600 L 150.476,91.600 L 150.476,141.587 L 165.409,140.251 L 195.749,138.625 Z" fill="none" stroke="#ff0000" stroke-width="0.1" fill-rule="evenodd"/>
<path d="M 340.873,138.569 L 358.030,135.643 L 368.591,132.411 L 380.905,127.477 L 400.655,118.142 L 413.095,111.473 L 421.375,106.030 L 428.824,99.460 L 434.043,92.782 L 437.426,86.102 L 439.276,79.420 L 439.666,71.402 L 438.036,63.384 L 434.938,56.704 L 431.940,52.429 L 427.975,48.176 L 417.884,40.678 L 402.431,32.674 L 380.923,23.338 L 369.895,19.658 L 361.961,20.028 L 350.096,22.164 L 346.160,21.693 L 343.539,20.629 L 340.914,18.796 L 338.287,16.000 L 334.046,8.696 L 331.440,6.000 L 295.598,6.000 L 295.598,39.550 L 340.042,39.550 L 340.042,42.600 L 295.598,42.600 L 295.598,88.550 L 343.835,88.550 L 343.835,91.600 L 295.598,91.600 L 295.598,141.585 L 310.531,140.244 L 340.873,138.569 Z" fill="none" stroke="#ff0000" stroke-width="0.1" fill-rule="evenodd"/>
<path d="M 484.981,140.275 L 498.180,138.638 L 508.739,136.042 L 545.678,124.983 L 553.599,121.977 L 560.868,118.139 L 568.130,112.712 L 575.470,104.788 L 580.561,96.776 L 584.280,87.428 L 585.832,78.079 L 585.458,70.063 L 582.971,60.715 L 578.896,52.702 L 573.410,45.658 L 566.803,39.889 L 558.928,35.340 L 549.634,31.906 L 533.781,27.788 L 525.854,30.064 L 519.273,30.607 L 499.501,28.397 L 495.558,27.259 L 491.618,24.902 L 487.673,20.949 L 484.082,15.372 L 481.122,8.702 L 478.900,6.000 L 443.666,6.000 L 443.666,39.550 L 488.110,39.550 L 488.110,42.600 L 443.666,42.600 L 443.666,88.550 L 491.903,88.550 L 491.903,91.600 L 443.666,91.600 L 443.666,141.556 L 455.959,140.405 L 484.981,140.275 Z" fill="none" stroke="#ff0000" stroke-width="0.1" fill-rule="evenodd"/>
<path d="M 49.953,279.852 L 63.154,278.017 L 75.033,274.726 L 111.971,261.889 L 119.892,258.669 L 126.495,255.165 L 134.420,249.309 L 141.024,242.290 L 146.309,234.093 L 149.673,225.701 L 151.144,217.686 L 150.941,209.670 L 149.000,201.654 L 145.120,193.639 L 138.381,185.348 L 133.895,181.619 L 129.128,178.633 L 119.884,174.746 L 100.080,169.451 L 98.331,169.606 L 90.814,173.678 L 84.237,175.015 L 77.654,174.871 L 60.515,173.008 L 56.576,171.773 L 52.637,169.085 L 48.634,164.304 L 45.743,158.982 L 41.964,148.314 L 40.251,145.605 L 6.000,145.605 L 6.000,179.155 L 50.444,179.155 L 50.444,182.205 L 6.000,182.205 L 6.000,228.155 L 54.237,228.155 L 54.237,231.205 L 6.000,231.205 L 6.000,281.161 L 18.293,280.011 L 49.953,279.852 Z" fill="none" stroke="#ff0000" stroke-width="0.1" fill-rule="evenodd"/>
<text x="76.02" y="76.08" font-size="6" fill="none" stroke="#0000ff" stroke-width="0.1" text-anchor="middle">13</text>
<text x="221.03" y="74.74" font-size="6" fill="none" stroke="#0000ff" stroke-width="0.1" text-anchor="middle">14</text>
<text x="367.53" y="75.41" font-size="6" fill="none" stroke="#0000ff" stroke-width="0.1" text-anchor="middle">17</text>
<text x="514.66" y="74.07" font-size="6" fill="none" stroke="#0000ff" stroke-width="0.1" text-anchor="middle">16</text>
<text x="78.52" y="213.68" font-size="6" fill="none" stroke="#0000ff" stroke-width="0.1" text-anchor="middle">15</text>
</svg>
