<svg xmlns="http://www.w3.org/2000/svg" width="600.0mm" height="400.0mm" viewBox="0 0 600.0 400.0">
<title>SculptGen sheet 1/4 — 3mm plywood — kerf 0.15mm</title>
<rect x="0" y="0" width="600.0" height="400.0" fill="none" stroke="#cccccc" stroke-width="0.1"/>
<path d="M 206.265,149.965 L 208.665,143.588 L 210.643,137.068 L 212.190,130.433 L 213.300,123.711 L 213.967,116.930 L 214.141,111.645 L 165.955,111.645 L 165.955,108.595 L 214.141,108.595 L 213.967,103.310 L 213.300,96.529 L 212.190,89.807 L 210.643,83.172 L 208.665,76.652 L 206.265,70.275 L 204.484,66.345 L 161.082,87.247 L 159.759,84.499 L 203.193,63.582 L 200.241,58.060 L 196.643,52.274 L 192.675,46.735 L 188.352,41.469 L 183.695,36.496 L 178.722,31.839 L 176.139,29.719 L 146.106,67.380 L 143.721,65.478 L 173.781,27.784 L 173.455,27.516 L 167.916,23.548 L 162.131,19.949 L 156.122,16.738 L 149.915,13.926 L 143.539,11.526 L 137.019,9.548 L 134.712,9.010 L 123.992,55.977 L 121.019,55.299 L 131.742,8.317 L 130.383,8.000 L 123.661,6.891 L 116.880,6.223 L 110.071,6.000 L 103.261,6.223 L 96.480,6.891 L 89.758,8.000 L 88.399,8.317 L 99.122,55.299 L 96.149,55.977 L 85.429,9.010 L 83.122,9.548 L 76.602,11.526 L 70.226,13.926 L 64.019,16.738 L 58.010,19.949 L 52.225,23.548 L 46.686,27.516 L 46.360,27.784 L 76.420,65.478 L 74.035,67.380 L 44.002,29.719 L 41.419,31.839 L 36.446,36.496 L 31.789,41.469 L 27.466,46.735 L 23.498,52.274 L 19.900,58.060 L 16.948,63.582 L 60.382,84.499 L 59.059,87.247 L 15.657,66.345 L 13.876,70.275 L 11.476,76.652 L 9.498,83.172 L 7.951,89.807 L 6.841,96.529 L 6.174,103.310 L 6.000,108.595 L 54.187,108.595 L 54.187,111.645 L 6.000,111.645 L 6.174,116.930 L 6.841,123.711 L 7.951,130.433 L 9.498,137.068 L 11.476,143.588 L 13.876,149.965 L 15.657,153.895 L 59.059,132.993 L 60.382,135.741 L 16.948,156.658 L 19.900,162.181 L 23.498,167.966 L 27.466,173.505 L 31.789,178.772 L 36.446,183.744 L 41.419,188.401 L 44.002,190.521 L 74.035,152.860 L 76.420,154.762 L 46.360,192.456 L 46.686,192.725 L 52.225,196.692 L 58.010,200.291 L 64.019,203.502 L 70.226,206.314 L 76.602,208.714 L 83.122,210.693 L 85.429,211.230 L 96.149,164.263 L 99.122,164.941 L 88.399,211.923 L 89.758,212.240 L 96.480,213.349 L 103.261,214.017 L 110.071,214.240 L 116.880,214.017 L 123.661,213.349 L 130.383,212.240 L 131.742,211.923 L 121.019,164.941 L 123.992,164.263 L 134.712,211.230 L 137.019,210.693 L 143.539,208.714 L 149.915,206.314 L 156.122,203.502 L 162.131,200.291 L 167.916,196.692 L 173.455,192.725 L 173.781,192.456 L 143.721,154.762 L 146.106,152.860 L 176.139,190.521 L 178.722,188.401 L 183.695,183.744 L 188.352,178.772 L 192.675,173.505 L 196.643,167.966 L 200.241,162.181 L 203.193,156.658 L 159.759,135.741 L 161.082,132.993 L 204.484,153.895 L 206.265,149.965 Z" fill="none" stroke="#ff0000" stroke-width="0.1" fill-rule="evenodd"/>
<path d="M 403.815,139.479 L 406.041,133.566 L 407.874,127.521 L 409.309,121.370 L 410.338,115.137 L 410.956,108.850 L 411.114,104.061 L 366.719,104.061 L 366.719,101.011 L 411.114,101.011 L 410.956,96.222 L 410.338,89.935 L 409.309,83.702 L 407.874,77.551 L 406.041,71.506 L 403.815,65.593 L 402.210,62.051 L 362.222,81.308 L 360.899,78.560 L 400.915,59.290 L 398.231,54.269 L 394.894,48.903 L 391.215,43.768 L 387.207,38.886 L 382.889,34.275 L 378.278,29.957 L 375.969,28.062 L 348.299,62.760 L 345.914,60.858 L 373.611,26.127 L 373.395,25.949 L 368.260,22.270 L 362.895,18.933 L 357.325,15.956 L 351.570,13.349 L 345.658,11.123 L 339.613,9.290 L 337.583,8.816 L 327.706,52.090 L 324.732,51.412 L 334.612,8.123 L 333.461,7.854 L 327.228,6.826 L 320.941,6.207 L 314.628,6.000 L 308.314,6.207 L 302.027,6.826 L 295.794,7.854 L 294.643,8.123 L 304.523,51.412 L 301.549,52.090 L 291.672,8.816 L 289.642,9.290 L 283.597,11.123 L 277.685,13.349 L 271.930,15.956 L 266.360,18.933 L 260.995,22.270 L 255.860,25.949 L 255.644,26.127 L 283.341,60.858 L 280.956,62.760 L 253.286,28.062 L 250.977,29.957 L 246.366,34.275 L 242.048,38.886 L 238.040,43.768 L 234.361,48.903 L 231.025,54.269 L 228.340,59.290 L 268.356,78.560 L 267.033,81.308 L 227.045,62.051 L 225.440,65.593 L 223.214,71.506 L 221.381,77.551 L 219.946,83.702 L 218.917,89.935 L 218.299,96.222 L 218.141,101.011 L 262.537,101.011 L 262.537,104.061 L 218.141,104.061 L 218.299,108.850 L 218.917,115.137 L 219.946,121.370 L 221.381,127.521 L 223.214,133.566 L 225.440,139.479 L 227.045,143.021 L 267.033,123.764 L 268.356,126.512 L 228.340,145.782 L 231.025,150.804 L 234.361,156.169 L 238.040,161.304 L 242.048,166.187 L 246.366,170.797 L 250.977,175.115 L 253.286,177.010 L 280.956,142.312 L 283.341,144.214 L 255.644,178.945 L 255.860,179.123 L 260.995,182.802 L 266.360,186.139 L 271.930,189.116 L 277.685,191.723 L 283.597,193.949 L 289.642,195.783 L 291.672,196.256 L 301.549,152.982 L 304.523,153.660 L 294.643,196.949 L 295.794,197.218 L 302.027,198.246 L 308.314,198.865 L 314.628,199.072 L 320.941,198.865 L 327.228,198.246 L 333.461,197.218 L 334.612,196.949 L 324.732,153.660 L 327.706,152.982 L 337.583,196.256 L 339.613,195.783 L 345.658,193.949 L 351.570,191.723 L 357.325,189.116 L 362.895,186.139 L 368.260,182.802 L 373.395,179.123 L 373.611,178.945 L 345.914,144.214 L 348.299,142.312 L 375.969,177.010 L 378.278,175.115 L 382.889,170.797 L 387.207,166.187 L 391.215,161.304 L 394.894,156.169 L 398.231,150.804 L 400.915,145.782 L 360.899,126.512 L 362.222,123.764 L 402.210,143.021 L 403.815,139.479 Z" fill="none" stroke="#ff0000" stroke-width="0.1" fill-rule="evenodd"/>
<path d="M 501.577,192.827 L 498.405,188.448 L 496.376,181.875 L 495.001,164.304 L 494.500,148.924 L 495.000,133.545 L 496.530,118.166 L 498.666,104.882 L 497.104,104.882 L 497.104,54.591 L 500.154,54.591 L 500.154,95.726 L 500.232,95.734 L 507.903,56.642 L 514.208,39.068 L 528.571,6.000 L 415.114,6.000 L 421.881,19.293 L 426.744,30.278 L 430.917,41.262 L 434.328,52.245 L 436.272,61.030 L 436.397,61.991 L 436.498,61.984 L 436.498,40.297 L 439.548,40.297 L 439.548,76.294 L 438.249,76.294 L 443.103,113.768 L 444.919,140.134 L 444.070,164.302 L 441.449,186.266 L 439.798,190.643 L 436.360,195.150 L 456.700,195.150 L 456.700,100.650 L 459.750,100.650 L 459.750,195.150 L 476.902,195.150 L 476.902,100.650 L 479.952,100.650 L 479.952,195.150 L 504.166,195.150 L 501.577,192.827 Z" fill="none" stroke="#ff0000" stroke-width="0.1" fill-rule="evenodd"/>
<text x="110.07" y="110.12" font-size="6" fill="none" stroke="#0000ff" stroke-width="0.1" text-anchor="middle">24</text>
<text x="314.63" y="102.54" font-size="6" fill="none" stroke="#0000ff" stroke-width="0.1" text-anchor="middle">23</text>
<text x="469.09" y="98.19" font-size="6" fill="none" stroke="#0000ff" stroke-width="0.1" text-anchor="middle">1</text>
</svg>
