<svg xmlns="http://www.w3.org/2000/svg" width="600.0mm" height="400.0mm" viewBox="0 0 600.0 400.0">
<title>SculptGen sheet 2/4 — 3mm plywood — kerf 0.15mm</title>
<rect x="0" y="0" width="600.0" height="400.0" fill="none" stroke="#cccccc" stroke-width="0.1"/>
<path d="M 114.312,192.134 L 112.295,188.455 L 110.850,181.880 L 110.061,148.925 L 112.007,118.163 L 120.167,56.637 L 125.538,36.864 L 136.273,6.000 L 6.000,6.000 L 14.186,23.686 L 19.404,36.867 L 23.520,50.047 L 25.779,61.028 L 30.494,113.766 L 31.663,144.528 L 31.097,164.304 L 29.248,186.271 L 28.086,190.651 L 25.470,195.150 L 38.280,195.150 L 38.280,100.650 L 41.330,100.650 L 41.330,195.150 L 58.482,195.150 L 58.482,100.650 L 61.532,100.650 L 61.532,195.150 L 78.684,195.150 L 78.684,100.650 L 81.734,100.650 L 81.734,195.150 L 98.886,195.150 L 98.886,100.650 L 101.936,100.650 L 101.936,195.150 L 117.011,195.150 L 114.312,192.134 Z" fill="none" stroke="#ff0000" stroke-width="0.1" fill-rule="evenodd"/>
<path d="M 250.705,191.185 L 249.357,188.457 L 247.910,181.880 L 247.543,151.124 L 249.492,118.162 L 255.958,54.437 L 261.596,32.469 L 270.896,6.000 L 140.273,6.000 L 149.547,25.884 L 155.836,41.263 L 159.961,54.442 L 161.602,63.226 L 166.062,109.371 L 167.671,144.529 L 167.437,164.305 L 166.140,186.274 L 165.208,190.655 L 162.939,195.150 L 174.672,195.150 L 174.672,100.650 L 177.722,100.650 L 177.722,195.150 L 194.874,195.150 L 194.874,100.650 L 197.924,100.650 L 197.924,195.150 L 215.076,195.150 L 215.076,100.650 L 218.126,100.650 L 218.126,195.150 L 235.278,195.150 L 235.278,100.650 L 238.328,100.650 L 238.328,195.150 L 253.933,195.150 L 250.705,191.185 Z" fill="none" stroke="#ff0000" stroke-width="0.1" fill-rule="evenodd"/>
<path d="M 371.673,61.026 L 373.651,50.045 L 377.387,36.865 L 382.941,21.487 L 389.589,6.000 L 274.896,6.000 L 295.534,43.468 L 300.299,54.449 L 302.732,63.230 L 303.352,67.476 L 303.447,67.470 L 303.447,41.091 L 306.497,41.091 L 306.497,77.882 L 304.872,77.882 L 308.830,104.979 L 310.717,124.755 L 311.702,142.333 L 311.915,164.307 L 310.970,186.273 L 309.899,190.651 L 307.187,195.150 L 323.649,195.150 L 323.649,100.650 L 326.699,100.650 L 326.699,195.150 L 343.851,195.150 L 343.851,100.650 L 346.901,100.650 L 346.901,195.150 L 364.053,195.150 L 364.053,100.650 L 367.103,100.650 L 367.103,124.813 L 367.227,124.817 L 371.673,61.026 Z" fill="none" stroke="#ff0000" stroke-width="0.1" fill-rule="evenodd"/>
<path d="M 477.280,190.654 L 476.318,186.274 L 475.216,164.306 L 475.281,142.334 L 477.765,107.176 L 483.569,63.229 L 485.740,54.447 L 489.947,43.465 L 508.525,6.000 L 483.073,6.000 L 483.073,40.941 L 480.023,40.941 L 480.023,6.000 L 461.333,6.000 L 461.333,100.500 L 458.283,100.500 L 458.283,6.000 L 439.593,6.000 L 439.593,100.500 L 436.543,100.500 L 436.543,6.000 L 417.853,6.000 L 417.853,40.147 L 414.803,40.147 L 414.803,6.000 L 393.589,6.000 L 406.085,34.673 L 410.162,45.657 L 413.468,56.638 L 421.317,111.571 L 423.274,137.937 L 422.581,162.104 L 419.693,186.266 L 418.084,190.644 L 414.698,195.150 L 479.669,195.150 L 477.280,190.654 Z" fill="none" stroke="#ff0000" stroke-width="0.1" fill-rule="evenodd"/>
<path d="M 114.882,383.806 L 113.973,379.426 L 113.634,339.877 L 115.500,298.125 L 119.446,254.178 L 121.862,243.197 L 125.355,232.216 L 139.083,199.150 L 107.525,199.150 L 107.525,293.650 L 104.475,293.650 L 104.475,199.150 L 85.785,199.150 L 85.785,293.650 L 82.735,293.650 L 82.735,199.150 L 64.045,199.150 L 64.045,293.650 L 60.995,293.650 L 60.995,199.150 L 42.305,199.150 L 42.305,293.650 L 39.255,293.650 L 39.255,199.150 L 6.000,199.150 L 16.345,225.622 L 23.090,247.593 L 24.458,254.179 L 30.959,304.720 L 32.684,333.284 L 31.721,364.046 L 30.177,379.416 L 28.495,383.793 L 25.058,388.300 L 116.962,388.300 L 114.882,383.806 Z" fill="none" stroke="#ff0000" stroke-width="0.1" fill-rule="evenodd"/>
<path d="M 258.470,383.792 L 256.710,379.414 L 256.010,375.032 L 255.779,364.051 L 256.521,315.705 L 260.316,254.176 L 262.392,243.196 L 266.268,230.016 L 271.170,216.834 L 278.732,199.150 L 246.188,199.150 L 246.188,293.650 L 243.138,293.650 L 243.138,199.150 L 224.448,199.150 L 224.448,293.650 L 221.398,293.650 L 221.398,199.150 L 202.708,199.150 L 202.708,293.650 L 199.658,293.650 L 199.658,199.150 L 180.968,199.150 L 180.968,293.650 L 177.918,293.650 L 177.918,199.150 L 143.083,199.150 L 154.056,227.819 L 160.602,249.788 L 165.909,284.944 L 168.598,306.918 L 169.786,322.299 L 170.225,337.678 L 169.906,353.059 L 168.663,372.834 L 168.105,377.220 L 166.642,381.599 L 163.741,385.979 L 161.321,388.300 L 261.958,388.300 L 258.470,383.792 Z" fill="none" stroke="#ff0000" stroke-width="0.1" fill-rule="evenodd"/>
<path d="M 384.603,385.970 L 380.570,381.590 L 378.520,377.216 L 377.731,370.639 L 377.446,353.062 L 377.959,333.286 L 383.191,254.176 L 385.227,243.196 L 389.170,230.016 L 395.176,214.638 L 402.354,199.150 L 378.693,199.150 L 378.693,293.650 L 375.643,293.650 L 375.643,199.150 L 356.953,199.150 L 356.953,293.650 L 353.903,293.650 L 353.903,199.150 L 335.213,199.150 L 335.213,293.650 L 332.163,293.650 L 332.163,199.150 L 313.473,199.150 L 313.473,247.591 L 310.423,247.591 L 310.423,199.150 L 282.732,199.150 L 296.084,230.019 L 302.993,249.791 L 311.288,293.738 L 314.301,313.513 L 315.752,328.893 L 316.192,342.074 L 315.765,357.454 L 314.361,375.024 L 312.199,381.596 L 308.757,385.974 L 305.974,388.300 L 387.931,388.300 L 384.603,385.970 Z" fill="none" stroke="#ff0000" stroke-width="0.1" fill-rule="evenodd"/>
<path d="M 492.534,326.393 L 501.773,323.334 L 509.694,319.978 L 516.295,316.468 L 522.897,312.100 L 530.200,305.946 L 536.102,299.491 L 540.895,292.596 L 544.252,285.921 L 546.433,279.242 L 547.466,272.563 L 547.356,265.884 L 545.728,257.871 L 543.128,251.193 L 540.232,245.852 L 535.553,239.179 L 530.821,233.791 L 525.145,228.500 L 518.937,223.812 L 512.335,219.832 L 504.412,216.164 L 487.753,211.152 L 466.140,206.912 L 463.510,206.797 L 455.615,203.499 L 449.641,199.150 L 406.354,199.150 L 406.354,232.700 L 450.798,232.700 L 450.798,235.750 L 406.354,235.750 L 406.354,281.700 L 454.591,281.700 L 454.591,284.750 L 406.354,284.750 L 406.354,335.978 L 421.281,337.110 L 439.236,336.633 L 464.826,332.865 L 492.534,326.393 Z" fill="none" stroke="#ff0000" stroke-width="0.1" fill-rule="evenodd"/>
<text x="72.25" y="80.84" font-size="6" fill="none" stroke="#0000ff" stroke-width="0.1" text-anchor="middle">2</text>
<text x="208.29" y="81.94" font-size="6" fill="none" stroke="#0000ff" stroke-width="0.1" text-anchor="middle">3</text>
<text x="338.12" y="89.27" font-size="6" fill="none" stroke="#0000ff" stroke-width="0.1" text-anchor="middle">4</text>
<text x="449.21" y="103.84" font-size="6" fill="none" stroke="#0000ff" stroke-width="0.1" text-anchor="middle">5</text>
<text x="72.76" y="295.89" font-size="6" fill="none" stroke="#0000ff" stroke-width="0.1" text-anchor="middle">6</text>
<text x="212.63" y="300.28" font-size="6" fill="none" stroke="#0000ff" stroke-width="0.1" text-anchor="middle">7</text>
<text x="345.93" y="293.69" font-size="6" fill="none" stroke="#0000ff" stroke-width="0.1" text-anchor="middle">8</text>
<text x="476.88" y="269.22" font-size="6" fill="none" stroke="#0000ff" stroke-width="0.1" text-anchor="middle">21</text>
</svg>
