<svg xmlns="http://www.w3.org/2000/svg" width="600.0mm" height="400.0mm" viewBox="0 0 600.0 400.0">
<title>SculptGen sheet 3/4 — 3mm plywood — kerf 0.15mm</title>
<rect x="0" y="0" width="600.0" height="400.0" fill="none" stroke="#cccccc" stroke-width="0.1"/>
<path d="M 84.265,135.416 L 93.510,131.990 L 104.073,126.049 L 115.970,116.799 L 126.799,106.125 L 135.100,95.448 L 139.214,87.435 L 141.218,79.417 L 141.076,71.396 L 138.311,62.045 L 132.977,52.700 L 125.420,43.357 L 114.291,32.685 L 103.512,24.679 L 96.149,20.497 L 88.225,17.172 L 77.664,14.407 L 59.202,11.500 L 52.623,8.750 L 48.933,6.000 L 6.000,6.000 L 6.000,39.550 L 50.444,39.550 L 50.444,42.600 L 6.000,42.600 L 6.000,88.550 L 54.237,88.550 L 54.237,91.600 L 6.000,91.600 L 6.000,142.952 L 14.329,143.723 L 27.694,143.483 L 75.024,137.500 L 84.265,135.416 Z" fill="none" stroke="#ff0000" stroke-width="0.1" fill-rule="evenodd"/>
<path d="M 190.495,139.428 L 210.282,137.261 L 222.162,135.029 L 230.086,132.347 L 236.689,129.196 L 244.610,124.334 L 252.937,118.133 L 263.600,108.796 L 271.176,100.790 L 276.861,92.779 L 280.385,84.764 L 281.802,76.745 L 280.886,67.391 L 277.836,59.374 L 272.541,51.361 L 262.107,40.686 L 248.658,30.014 L 235.369,21.662 L 223.487,16.503 L 215.565,14.334 L 198.420,11.159 L 193.158,9.111 L 188.628,6.000 L 145.218,6.000 L 145.218,39.550 L 189.662,39.550 L 189.662,42.600 L 145.218,42.600 L 145.218,88.550 L 193.455,88.550 L 193.455,91.600 L 145.218,91.600 L 145.218,142.984 L 148.270,143.280 L 157.421,143.483 L 168.068,142.697 L 190.495,139.428 Z" fill="none" stroke="#ff0000" stroke-width="0.1" fill-rule="evenodd"/>
<path d="M 360.108,138.169 L 379.902,131.758 L 389.582,127.475 L 399.511,122.140 L 407.749,116.803 L 414.651,111.465 L 420.821,105.702 L 426.176,99.453 L 429.720,94.112 L 432.882,87.434 L 434.669,80.754 L 435.087,74.072 L 434.107,67.390 L 432.275,62.045 L 428.745,55.588 L 424.469,50.026 L 419.181,44.686 L 412.897,39.565 L 404.977,34.270 L 397.358,30.008 L 378.582,21.848 L 362.747,16.807 L 340.545,11.337 L 335.061,9.042 L 330.459,6.000 L 285.802,6.000 L 285.802,39.550 L 330.246,39.550 L 330.246,42.600 L 285.802,42.600 L 285.802,88.550 L 334.039,88.550 L 334.039,91.600 L 285.802,91.600 L 285.802,142.524 L 312.601,143.475 L 337.898,142.150 L 349.549,140.448 L 360.108,138.169 Z" fill="none" stroke="#ff0000" stroke-width="0.1" fill-rule="evenodd"/>
<path d="M 537.147,127.924 L 548.285,122.139 L 555.633,116.796 L 562.740,110.126 L 568.255,103.452 L 572.422,96.777 L 575.307,90.099 L 576.922,83.419 L 577.273,76.739 L 576.379,70.059 L 574.272,63.380 L 571.003,56.705 L 566.616,50.030 L 561.117,43.357 L 554.401,36.686 L 547.715,31.194 L 539.794,25.915 L 531.871,21.817 L 517.351,16.799 L 493.610,11.785 L 488.348,9.507 L 483.443,6.000 L 439.087,6.000 L 439.087,39.550 L 483.531,39.550 L 483.531,42.600 L 439.087,42.600 L 439.087,88.550 L 487.324,88.550 L 487.324,91.600 L 439.087,91.600 L 439.087,142.636 L 448.739,143.122 L 463.828,142.150 L 525.264,131.734 L 537.147,127.924 Z" fill="none" stroke="#ff0000" stroke-width="0.1" fill-rule="evenodd"/>
<path d="M 57.875,280.214 L 75.028,276.682 L 92.179,272.326 L 106.954,267.869 L 119.889,263.095 L 129.627,258.531 L 138.371,253.132 L 144.976,247.582 L 150.394,241.174 L 154.114,234.494 L 156.507,226.478 L 156.966,218.461 L 155.617,210.445 L 152.436,202.431 L 148.270,195.753 L 142.524,189.078 L 135.735,183.065 L 127.125,177.067 L 117.562,171.731 L 105.837,166.396 L 93.502,161.749 L 61.846,152.610 L 56.827,150.399 L 52.783,147.723 L 6.000,147.723 L 6.000,181.273 L 50.444,181.273 L 50.444,184.323 L 6.000,184.323 L 6.000,230.273 L 54.237,230.273 L 54.237,233.323 L 6.000,233.323 L 6.000,284.149 L 13.013,284.307 L 27.499,283.873 L 42.042,282.581 L 57.875,280.214 Z" fill="none" stroke="#ff0000" stroke-width="0.1" fill-rule="evenodd"/>
<path d="M 200.966,281.518 L 215.480,279.287 L 229.996,276.110 L 243.191,272.224 L 255.069,267.718 L 265.909,262.531 L 276.188,256.303 L 285.264,249.187 L 291.712,242.513 L 296.465,235.836 L 300.151,227.821 L 301.770,219.804 L 301.369,211.785 L 298.915,203.769 L 295.230,197.089 L 289.939,190.414 L 282.849,183.740 L 274.868,177.877 L 265.627,172.434 L 249.790,165.319 L 232.129,159.723 L 228.970,159.723 L 219.422,161.304 L 215.490,160.946 L 211.202,158.408 L 206.102,151.746 L 201.232,147.723 L 160.966,147.723 L 160.966,181.273 L 205.410,181.273 L 205.410,184.323 L 160.966,184.323 L 160.966,230.273 L 209.203,230.273 L 209.203,233.323 L 160.966,233.323 L 160.966,283.763 L 185.132,283.062 L 200.966,281.518 Z" fill="none" stroke="#ff0000" stroke-width="0.1" fill-rule="evenodd"/>
<path d="M 343.130,281.462 L 360.281,279.268 L 376.115,276.410 L 389.335,273.203 L 401.941,269.202 L 413.066,264.635 L 423.626,259.056 L 432.867,252.717 L 440.789,245.523 L 446.447,238.507 L 450.771,230.493 L 453.018,222.477 L 453.272,214.458 L 451.532,206.441 L 447.719,198.427 L 443.942,193.084 L 439.081,187.743 L 427.534,178.403 L 413.067,170.121 L 394.592,162.614 L 380.076,158.336 L 358.976,153.535 L 352.625,150.401 L 349.129,147.723 L 305.770,147.723 L 305.770,181.273 L 350.214,181.273 L 350.214,184.323 L 305.770,184.323 L 305.770,230.273 L 354.007,230.273 L 354.007,233.323 L 305.770,233.323 L 305.770,283.706 L 324.659,283.012 L 343.130,281.462 Z" fill="none" stroke="#ff0000" stroke-width="0.1" fill-rule="evenodd"/>
<path d="M 491.996,280.113 L 509.147,277.465 L 523.041,274.538 L 535.540,270.964 L 547.089,266.534 L 556.659,261.750 L 565.864,255.859 L 573.933,249.185 L 581.187,241.177 L 586.305,233.165 L 589.933,223.817 L 591.226,214.467 L 590.519,206.450 L 587.492,197.100 L 582.781,189.087 L 575.625,181.076 L 567.024,174.402 L 556.653,168.733 L 543.129,163.726 L 530.234,160.850 L 514.393,166.874 L 510.457,167.364 L 507.845,166.775 L 503.908,164.177 L 501.308,161.088 L 498.649,156.545 L 496.041,150.425 L 493.671,147.723 L 457.272,147.723 L 457.272,181.273 L 501.716,181.273 L 501.716,184.323 L 457.272,184.323 L 457.272,230.273 L 505.509,230.273 L 505.509,233.323 L 457.272,233.323 L 457.272,283.451 L 470.888,282.485 L 491.996,280.113 Z" fill="none" stroke="#ff0000" stroke-width="0.1" fill-rule="evenodd"/>
<text x="73.57" y="75.41" font-size="6" fill="none" stroke="#0000ff" stroke-width="0.1" text-anchor="middle">22</text>
<text x="213.28" y="72.07" font-size="6" fill="none" stroke="#0000ff" stroke-width="0.1" text-anchor="middle">9</text>
<text x="360.34" y="77.41" font-size="6" fill="none" stroke="#0000ff" stroke-width="0.1" text-anchor="middle">20</text>
<text x="507.96" y="73.40" font-size="6" fill="none" stroke="#0000ff" stroke-width="0.1" text-anchor="middle">10</text>
<text x="81.15" y="214.45" font-size="6" fill="none" stroke="#0000ff" stroke-width="0.1" text-anchor="middle">11</text>
<text x="231.27" y="215.79" font-size="6" fill="none" stroke="#0000ff" stroke-width="0.1" text-anchor="middle">19</text>
<text x="379.46" y="218.47" font-size="6" fill="none" stroke="#0000ff" stroke-width="0.1" text-anchor="middle">12</text>
<text x="523.93" y="219.14" font-size="6" fill="none" stroke="#0000ff" stroke-width="0.1" text-anchor="middle">18</text>
</svg>
