<svg xmlns="http://www.w3.org/2000/svg" width="600.0mm" height="400.0mm" viewBox="0 0 600.0 400.0">
<title>SculptGen sheet 5/12 — 3mm plywood — kerf 0.15mm</title>
<rect x="0" y="0" width="600.0" height="400.0" fill="none" stroke="#cccccc" stroke-width="0.1"/>
<path d="M 166.300,201.011 L 177.995,196.164 L 183.612,192.750 L 189.228,188.229 L 194.756,182.294 L 198.758,176.678 L 202.825,169.193 L 206.490,159.838 L 209.522,148.615 L 211.949,135.524 L 214.309,116.827 L 215.326,101.866 L 215.195,90.643 L 213.802,79.418 L 211.876,71.932 L 208.846,64.444 L 205.623,58.828 L 201.356,53.212 L 193.997,45.730 L 177.090,30.772 L 170.252,25.161 L 163.044,20.244 L 155.556,16.594 L 148.069,14.290 L 110.675,7.021 L 99.447,6.000 L 90.086,7.052 L 75.122,11.646 L 52.685,20.299 L 43.333,24.554 L 37.718,27.868 L 32.101,32.049 L 22.430,41.997 L 17.188,49.484 L 13.185,56.969 L 10.208,64.454 L 7.710,73.809 L 6.371,83.165 L 6.000,92.519 L 6.464,101.871 L 8.015,113.094 L 10.146,122.447 L 13.139,131.801 L 17.130,141.010 L 21.362,148.638 L 28.954,159.858 L 43.069,178.554 L 50.791,187.531 L 56.406,192.799 L 63.893,197.954 L 71.382,201.364 L 105.038,211.392 L 112.522,212.957 L 118.142,213.419 L 129.716,212.230 L 166.300,201.011 Z M 125.228,105.773 L 125.243,106.060 L 125.228,106.347 L 125.186,106.631 L 125.117,106.909 L 125.021,107.180 L 124.898,107.439 L 124.750,107.685 L 124.579,107.916 L 124.386,108.128 L 124.173,108.321 L 123.943,108.492 L 123.697,108.639 L 123.437,108.762 L 123.167,108.859 L 122.888,108.929 L 122.605,108.971 L 122.318,108.985 L 122.031,108.971 L 121.748,108.929 L 121.469,108.859 L 121.199,108.762 L 120.939,108.639 L 120.693,108.492 L 120.463,108.321 L 120.250,108.128 L 120.057,107.916 L 119.886,107.685 L 119.738,107.439 L 119.615,107.180 L 119.519,106.909 L 119.450,106.631 L 119.407,106.347 L 119.393,106.060 L 119.407,105.773 L 119.450,105.489 L 119.519,105.211 L 119.615,104.940 L 119.738,104.681 L 119.886,104.435 L 120.057,104.204 L 120.250,103.991 L 120.463,103.798 L 120.693,103.628 L 120.939,103.481 L 121.199,103.358 L 121.469,103.261 L 121.748,103.191 L 122.031,103.149 L 122.318,103.135 L 122.605,103.149 L 122.888,103.191 L 123.167,103.261 L 123.437,103.358 L 123.697,103.481 L 123.943,103.628 L 124.173,103.798 L 124.386,103.991 L 124.579,104.204 L 124.750,104.435 L 124.898,104.681 L 125.021,104.940 L 125.117,105.211 L 125.186,105.489 L 125.228,105.773 Z M 78.379,181.694 L 78.394,181.980 L 78.379,182.267 L 78.337,182.552 L 78.267,182.830 L 78.171,183.100 L 78.048,183.360 L 77.901,183.606 L 77.730,183.837 L 77.537,184.049 L 77.324,184.241 L 77.093,184.413 L 76.848,184.560 L 76.588,184.683 L 76.317,184.780 L 76.039,184.850 L 75.756,184.892 L 75.469,184.905 L 75.181,184.892 L 74.898,184.850 L 74.620,184.780 L 74.349,184.683 L 74.089,184.560 L 73.844,184.413 L 73.613,184.241 L 73.400,184.049 L 73.207,183.837 L 73.037,183.606 L 72.889,183.360 L 72.766,183.100 L 72.670,182.830 L 72.600,182.552 L 72.558,182.267 L 72.544,181.980 L 72.558,181.694 L 72.600,181.410 L 72.670,181.132 L 72.766,180.861 L 72.889,180.602 L 73.037,180.356 L 73.207,180.125 L 73.400,179.912 L 73.613,179.719 L 73.844,179.549 L 74.089,179.402 L 74.349,179.279 L 74.620,179.182 L 74.898,179.112 L 75.181,179.070 L 75.469,179.055 L 75.756,179.070 L 76.039,179.112 L 76.317,179.182 L 76.588,179.279 L 76.848,179.402 L 77.093,179.549 L 77.324,179.719 L 77.537,179.912 L 77.730,180.125 L 77.901,180.356 L 78.048,180.602 L 78.171,180.861 L 78.267,181.132 L 78.337,181.410 L 78.379,181.694 Z M 31.544,60.507 L 31.530,60.794 L 31.487,61.078 L 31.418,61.357 L 31.322,61.627 L 31.199,61.886 L 31.052,62.133 L 30.880,62.363 L 30.687,62.575 L 30.474,62.768 L 30.244,62.939 L 29.998,63.087 L 29.738,63.210 L 29.468,63.306 L 29.189,63.376 L 28.906,63.419 L 28.619,63.432 L 28.332,63.419 L 28.049,63.376 L 27.770,63.306 L 27.500,63.210 L 27.241,63.087 L 26.994,62.939 L 26.764,62.768 L 26.551,62.575 L 26.358,62.363 L 26.187,62.133 L 26.039,61.886 L 25.916,61.627 L 25.820,61.357 L 25.751,61.078 L 25.709,60.794 L 25.694,60.507 L 25.709,60.221 L 25.751,59.937 L 25.820,59.658 L 25.916,59.388 L 26.039,59.129 L 26.187,58.882 L 26.358,58.652 L 26.551,58.439 L 26.764,58.246 L 26.994,58.076 L 27.241,57.928 L 27.500,57.805 L 27.770,57.708 L 28.049,57.639 L 28.332,57.596 L 28.619,57.582 L 28.906,57.596 L 29.189,57.639 L 29.468,57.708 L 29.738,57.805 L 29.998,57.928 L 30.244,58.076 L 30.474,58.246 L 30.687,58.439 L 30.880,58.652 L 31.052,58.882 L 31.199,59.129 L 31.322,59.388 L 31.418,59.658 L 31.487,59.937 L 31.530,60.221 L 31.544,60.507 Z" fill="none" stroke="#ff0000" stroke-width="0.1" fill-rule="evenodd"/>
<path d="M 349.952,210.284 L 376.128,201.940 L 389.221,196.929 L 396.709,192.519 L 401.982,188.256 L 407.273,182.641 L 411.354,177.026 L 415.501,169.541 L 419.238,160.186 L 421.896,150.832 L 424.514,137.742 L 426.831,120.913 L 428.198,104.085 L 428.243,92.862 L 427.106,81.636 L 425.412,74.150 L 422.700,66.664 L 419.162,60.051 L 415.417,54.854 L 408.972,47.947 L 392.270,32.989 L 383.350,25.509 L 376.142,20.527 L 370.525,17.600 L 363.037,14.945 L 325.642,7.428 L 314.416,6.000 L 305.057,6.652 L 297.570,8.392 L 290.087,10.880 L 258.302,23.578 L 252.686,26.675 L 246.392,31.117 L 241.457,35.505 L 235.844,41.758 L 231.417,47.960 L 227.224,55.445 L 224.075,62.930 L 221.387,72.286 L 219.867,81.640 L 219.326,90.994 L 219.631,100.348 L 221.002,111.571 L 222.986,120.924 L 225.837,130.277 L 229.745,139.631 L 233.786,147.115 L 241.279,158.336 L 255.346,177.032 L 263.244,186.384 L 269.503,192.365 L 276.990,197.563 L 284.478,201.013 L 316.264,210.718 L 323.748,212.528 L 329.367,213.229 L 340.463,212.578 L 349.952,210.284 Z M 338.325,106.120 L 338.340,106.407 L 338.325,106.694 L 338.284,106.978 L 338.214,107.256 L 338.118,107.527 L 337.995,107.786 L 337.847,108.032 L 337.676,108.263 L 337.483,108.475 L 337.271,108.668 L 337.041,108.839 L 336.794,108.986 L 336.534,109.109 L 336.264,109.205 L 335.986,109.276 L 335.702,109.318 L 335.415,109.332 L 335.129,109.318 L 334.845,109.276 L 334.566,109.205 L 334.296,109.109 L 334.037,108.986 L 333.790,108.839 L 333.560,108.668 L 333.347,108.475 L 333.154,108.263 L 332.984,108.032 L 332.835,107.786 L 332.713,107.527 L 332.616,107.256 L 332.547,106.978 L 332.504,106.694 L 332.490,106.407 L 332.504,106.120 L 332.547,105.836 L 332.616,105.558 L 332.713,105.287 L 332.835,105.028 L 332.984,104.782 L 333.154,104.551 L 333.347,104.338 L 333.560,104.145 L 333.790,103.975 L 334.037,103.828 L 334.296,103.705 L 334.566,103.608 L 334.845,103.538 L 335.128,103.496 L 335.415,103.482 L 335.702,103.496 L 335.986,103.538 L 336.264,103.608 L 336.534,103.705 L 336.794,103.828 L 337.041,103.975 L 337.271,104.145 L 337.483,104.338 L 337.676,104.551 L 337.847,104.782 L 337.995,105.028 L 338.118,105.287 L 338.214,105.558 L 338.284,105.836 L 338.325,106.120 Z M 291.476,182.041 L 291.491,182.327 L 291.476,182.614 L 291.435,182.899 L 291.364,183.176 L 291.268,183.447 L 291.145,183.707 L 290.998,183.953 L 290.827,184.184 L 290.634,184.396 L 290.422,184.588 L 290.190,184.760 L 289.945,184.907 L 289.685,185.030 L 289.414,185.126 L 289.136,185.197 L 288.853,185.239 L 288.566,185.252 L 288.278,185.239 L 287.995,185.197 L 287.717,185.126 L 287.446,185.030 L 287.187,184.907 L 286.941,184.760 L 286.710,184.588 L 286.497,184.396 L 286.304,184.184 L 286.134,183.953 L 285.986,183.707 L 285.864,183.447 L 285.767,183.176 L 285.697,182.899 L 285.655,182.614 L 285.641,182.327 L 285.655,182.041 L 285.697,181.757 L 285.767,181.479 L 285.864,181.208 L 285.986,180.949 L 286.134,180.703 L 286.304,180.472 L 286.497,180.259 L 286.710,180.066 L 286.941,179.896 L 287.187,179.749 L 287.446,179.626 L 287.717,179.529 L 287.995,179.459 L 288.279,179.417 L 288.566,179.402 L 288.853,179.417 L 289.136,179.459 L 289.414,179.529 L 289.685,179.626 L 289.945,179.749 L 290.191,179.896 L 290.422,180.066 L 290.634,180.259 L 290.827,180.472 L 290.998,180.703 L 291.145,180.949 L 291.268,181.208 L 291.364,181.479 L 291.435,181.757 L 291.476,182.041 Z M 244.641,60.854 L 244.627,61.141 L 244.585,61.425 L 244.515,61.704 L 244.419,61.974 L 244.296,62.233 L 244.149,62.480 L 243.977,62.710 L 243.784,62.922 L 243.572,63.115 L 243.341,63.286 L 243.095,63.434 L 242.835,63.557 L 242.565,63.653 L 242.287,63.723 L 242.003,63.766 L 241.716,63.779 L 241.430,63.766 L 241.146,63.723 L 240.867,63.653 L 240.597,63.557 L 240.338,63.434 L 240.091,63.286 L 239.861,63.115 L 239.648,62.922 L 239.455,62.710 L 239.285,62.480 L 239.136,62.233 L 239.014,61.974 L 238.917,61.704 L 238.848,61.425 L 238.806,61.141 L 238.791,60.854 L 238.806,60.568 L 238.848,60.284 L 238.917,60.005 L 239.014,59.735 L 239.136,59.476 L 239.285,59.229 L 239.455,58.999 L 239.648,58.786 L 239.861,58.593 L 240.091,58.423 L 240.338,58.275 L 240.597,58.152 L 240.867,58.055 L 241.146,57.986 L 241.430,57.943 L 241.716,57.929 L 242.003,57.943 L 242.287,57.986 L 242.565,58.055 L 242.835,58.152 L 243.095,58.275 L 243.341,58.423 L 243.572,58.593 L 243.784,58.786 L 243.977,58.999 L 244.149,59.229 L 244.296,59.476 L 244.419,59.735 L 244.515,60.005 L 244.585,60.284 L 244.627,60.568 L 244.641,60.854 Z" fill="none" stroke="#ff0000" stroke-width="0.1" fill-rule="evenodd"/>
<text x="111.22" y="111.04" font-size="6" fill="none" stroke="#0000ff" stroke-width="0.1" text-anchor="middle">8</text>
<text x="324.27" y="110.45" font-size="6" fill="none" stroke="#0000ff" stroke-width="0.1" text-anchor="middle">9</text>
</svg>
