<svg xmlns="http://www.w3.org/2000/svg" width="600.0mm" height="400.0mm" viewBox="0 0 600.0 400.0">
<title>SculptGen sheet 7/12 — 3mm plywood — kerf 0.15mm</title>
<rect x="0" y="0" width="600.0" height="400.0" fill="none" stroke="#cccccc" stroke-width="0.1"/>
<path d="M 166.390,199.380 L 177.660,194.689 L 183.277,191.296 L 188.893,186.791 L 194.508,180.745 L 198.252,175.467 L 202.510,167.562 L 206.086,158.207 L 208.603,148.853 L 211.046,135.763 L 213.166,118.935 L 214.346,102.106 L 214.263,90.883 L 212.993,79.657 L 211.190,72.171 L 208.324,64.685 L 205.263,59.068 L 201.200,53.452 L 194.144,45.969 L 177.550,31.011 L 170.193,24.920 L 162.709,19.828 L 155.221,16.228 L 148.566,14.170 L 112.209,7.257 L 100.983,6.000 L 91.622,6.772 L 76.657,11.110 L 52.350,20.533 L 42.998,24.795 L 37.383,28.095 L 31.768,32.245 L 26.154,37.477 L 21.994,42.237 L 16.798,49.640 L 12.769,57.207 L 9.843,64.693 L 7.443,74.048 L 6.229,83.404 L 6.000,92.758 L 6.612,102.111 L 7.980,111.463 L 10.094,120.816 L 13.053,130.229 L 16.794,139.138 L 20.994,147.006 L 28.350,158.226 L 42.222,176.923 L 50.165,186.275 L 56.071,191.850 L 63.558,196.982 L 71.047,200.353 L 104.703,210.013 L 112.188,211.530 L 117.805,211.978 L 123.422,211.742 L 130.277,210.598 L 166.390,199.380 Z M 124.893,104.142 L 124.908,104.429 L 124.893,104.716 L 124.851,105.000 L 124.782,105.278 L 124.686,105.549 L 124.563,105.808 L 124.415,106.054 L 124.244,106.285 L 124.051,106.497 L 123.838,106.690 L 123.608,106.861 L 123.362,107.008 L 123.102,107.131 L 122.832,107.228 L 122.553,107.298 L 122.270,107.340 L 121.983,107.354 L 121.696,107.340 L 121.413,107.298 L 121.134,107.228 L 120.864,107.131 L 120.604,107.008 L 120.358,106.861 L 120.128,106.690 L 119.915,106.497 L 119.722,106.285 L 119.551,106.054 L 119.403,105.808 L 119.280,105.549 L 119.184,105.278 L 119.115,105.000 L 119.072,104.716 L 119.058,104.429 L 119.072,104.142 L 119.115,103.858 L 119.184,103.580 L 119.280,103.309 L 119.403,103.050 L 119.551,102.804 L 119.722,102.573 L 119.915,102.360 L 120.128,102.167 L 120.358,101.997 L 120.604,101.850 L 120.864,101.727 L 121.134,101.630 L 121.413,101.560 L 121.696,101.518 L 121.983,101.504 L 122.270,101.518 L 122.553,101.560 L 122.832,101.630 L 123.102,101.727 L 123.362,101.850 L 123.608,101.997 L 123.838,102.167 L 124.051,102.360 L 124.244,102.573 L 124.415,102.804 L 124.563,103.050 L 124.686,103.309 L 124.782,103.580 L 124.851,103.858 L 124.893,104.142 Z M 78.044,180.063 L 78.059,180.349 L 78.044,180.636 L 78.002,180.921 L 77.932,181.198 L 77.836,181.469 L 77.713,181.729 L 77.566,181.975 L 77.395,182.206 L 77.202,182.418 L 76.989,182.610 L 76.758,182.782 L 76.513,182.929 L 76.253,183.052 L 75.982,183.149 L 75.704,183.219 L 75.421,183.261 L 75.134,183.274 L 74.846,183.261 L 74.563,183.219 L 74.285,183.149 L 74.014,183.052 L 73.754,182.929 L 73.509,182.782 L 73.278,182.610 L 73.065,182.418 L 72.872,182.206 L 72.702,181.975 L 72.554,181.729 L 72.431,181.469 L 72.335,181.198 L 72.265,180.921 L 72.223,180.636 L 72.209,180.349 L 72.223,180.063 L 72.265,179.779 L 72.335,179.501 L 72.431,179.230 L 72.554,178.971 L 72.702,178.725 L 72.872,178.494 L 73.065,178.281 L 73.278,178.088 L 73.509,177.918 L 73.754,177.771 L 74.014,177.648 L 74.285,177.551 L 74.563,177.481 L 74.846,177.439 L 75.134,177.424 L 75.421,177.439 L 75.704,177.481 L 75.982,177.551 L 76.253,177.648 L 76.513,177.771 L 76.758,177.918 L 76.989,178.088 L 77.202,178.281 L 77.395,178.494 L 77.566,178.725 L 77.713,178.971 L 77.836,179.230 L 77.932,179.501 L 78.002,179.779 L 78.044,180.063 Z M 31.209,58.876 L 31.195,59.163 L 31.152,59.447 L 31.083,59.726 L 30.987,59.996 L 30.864,60.255 L 30.717,60.502 L 30.545,60.732 L 30.352,60.944 L 30.139,61.137 L 29.909,61.308 L 29.663,61.456 L 29.403,61.579 L 29.133,61.675 L 28.854,61.745 L 28.571,61.788 L 28.284,61.801 L 27.997,61.788 L 27.714,61.745 L 27.435,61.675 L 27.165,61.579 L 26.906,61.456 L 26.659,61.308 L 26.429,61.137 L 26.216,60.944 L 26.023,60.732 L 25.852,60.502 L 25.704,60.255 L 25.581,59.996 L 25.485,59.726 L 25.416,59.447 L 25.374,59.163 L 25.359,58.876 L 25.374,58.590 L 25.416,58.306 L 25.485,58.027 L 25.581,57.757 L 25.704,57.498 L 25.852,57.251 L 26.023,57.021 L 26.216,56.808 L 26.429,56.615 L 26.659,56.445 L 26.906,56.297 L 27.165,56.174 L 27.435,56.077 L 27.714,56.008 L 27.997,55.965 L 28.284,55.951 L 28.571,55.965 L 28.854,56.008 L 29.133,56.077 L 29.403,56.174 L 29.663,56.297 L 29.909,56.445 L 30.139,56.615 L 30.352,56.808 L 30.545,57.021 L 30.717,57.251 L 30.864,57.498 L 30.987,57.757 L 31.083,58.027 L 31.152,58.306 L 31.195,58.590 L 31.209,58.876 Z" fill="none" stroke="#ff0000" stroke-width="0.1" fill-rule="evenodd"/>
<path d="M 349.639,207.884 L 373.946,199.955 L 387.038,194.764 L 392.655,191.488 L 398.271,187.138 L 402.916,182.448 L 407.631,176.286 L 411.651,169.347 L 415.601,159.992 L 418.870,148.768 L 421.466,135.677 L 423.716,118.848 L 424.833,103.889 L 424.813,92.666 L 423.584,81.441 L 421.804,73.954 L 418.969,66.468 L 415.918,60.851 L 411.879,55.236 L 404.857,47.752 L 388.485,32.794 L 379.656,25.314 L 373.959,21.305 L 366.472,17.388 L 358.985,14.888 L 321.590,7.210 L 310.362,6.000 L 301.000,6.935 L 286.035,11.511 L 263.598,20.421 L 254.247,24.808 L 248.631,28.224 L 243.016,32.558 L 237.402,38.090 L 233.659,42.638 L 229.005,49.637 L 225.187,57.122 L 222.356,64.607 L 219.988,73.962 L 218.705,83.317 L 218.346,92.671 L 218.798,102.023 L 220.361,113.246 L 222.566,122.600 L 225.747,131.954 L 229.147,139.438 L 233.400,146.921 L 241.099,158.141 L 254.224,175.560 L 261.653,184.320 L 267.511,189.934 L 274.806,195.106 L 282.295,198.672 L 315.952,209.313 L 327.179,211.391 L 332.799,211.415 L 339.637,210.512 L 349.639,207.884 Z M 336.142,105.925 L 336.157,106.212 L 336.142,106.499 L 336.100,106.783 L 336.031,107.061 L 335.935,107.332 L 335.812,107.591 L 335.664,107.837 L 335.493,108.068 L 335.300,108.280 L 335.087,108.473 L 334.857,108.644 L 334.611,108.791 L 334.351,108.914 L 334.081,109.011 L 333.802,109.081 L 333.519,109.123 L 333.232,109.137 L 332.946,109.123 L 332.662,109.081 L 332.383,109.011 L 332.113,108.914 L 331.854,108.791 L 331.607,108.644 L 331.377,108.473 L 331.164,108.280 L 330.971,108.068 L 330.801,107.837 L 330.652,107.591 L 330.530,107.332 L 330.433,107.061 L 330.364,106.783 L 330.321,106.499 L 330.307,106.212 L 330.321,105.925 L 330.364,105.641 L 330.433,105.363 L 330.530,105.092 L 330.652,104.833 L 330.801,104.587 L 330.971,104.356 L 331.164,104.143 L 331.377,103.950 L 331.607,103.780 L 331.854,103.633 L 332.113,103.510 L 332.383,103.413 L 332.662,103.343 L 332.945,103.301 L 333.232,103.287 L 333.519,103.301 L 333.802,103.343 L 334.081,103.413 L 334.351,103.510 L 334.611,103.633 L 334.857,103.780 L 335.087,103.950 L 335.300,104.143 L 335.493,104.356 L 335.664,104.587 L 335.812,104.833 L 335.935,105.092 L 336.031,105.363 L 336.100,105.641 L 336.142,105.925 Z M 289.293,181.846 L 289.308,182.132 L 289.293,182.419 L 289.252,182.704 L 289.181,182.982 L 289.085,183.252 L 288.962,183.512 L 288.815,183.758 L 288.644,183.989 L 288.451,184.201 L 288.239,184.393 L 288.007,184.565 L 287.762,184.712 L 287.502,184.835 L 287.231,184.932 L 286.953,185.002 L 286.670,185.044 L 286.383,185.057 L 286.095,185.044 L 285.812,185.002 L 285.534,184.932 L 285.263,184.835 L 285.004,184.712 L 284.758,184.565 L 284.527,184.393 L 284.314,184.201 L 284.121,183.989 L 283.951,183.758 L 283.803,183.512 L 283.681,183.252 L 283.584,182.982 L 283.514,182.704 L 283.472,182.419 L 283.458,182.132 L 283.472,181.846 L 283.514,181.562 L 283.584,181.284 L 283.681,181.013 L 283.803,180.754 L 283.951,180.508 L 284.121,180.277 L 284.314,180.064 L 284.527,179.871 L 284.758,179.701 L 285.004,179.554 L 285.263,179.431 L 285.534,179.334 L 285.812,179.264 L 286.096,179.222 L 286.383,179.207 L 286.670,179.222 L 286.953,179.264 L 287.231,179.334 L 287.502,179.431 L 287.762,179.554 L 288.008,179.701 L 288.239,179.871 L 288.451,180.064 L 288.644,180.277 L 288.815,180.508 L 288.962,180.754 L 289.085,181.013 L 289.181,181.284 L 289.252,181.562 L 289.293,181.846 Z M 242.458,60.659 L 242.444,60.946 L 242.402,61.230 L 242.332,61.509 L 242.236,61.779 L 242.113,62.038 L 241.966,62.285 L 241.794,62.515 L 241.601,62.727 L 241.388,62.920 L 241.158,63.091 L 240.912,63.239 L 240.652,63.362 L 240.382,63.459 L 240.103,63.528 L 239.820,63.571 L 239.533,63.584 L 239.247,63.571 L 238.963,63.528 L 238.684,63.459 L 238.414,63.362 L 238.155,63.239 L 237.908,63.091 L 237.678,62.920 L 237.465,62.727 L 237.272,62.515 L 237.102,62.285 L 236.953,62.038 L 236.831,61.779 L 236.734,61.509 L 236.665,61.230 L 236.623,60.946 L 236.608,60.659 L 236.623,60.373 L 236.665,60.089 L 236.734,59.810 L 236.831,59.540 L 236.953,59.281 L 237.102,59.034 L 237.272,58.804 L 237.465,58.591 L 237.678,58.398 L 237.908,58.228 L 238.155,58.080 L 238.414,57.957 L 238.684,57.860 L 238.963,57.791 L 239.247,57.748 L 239.533,57.734 L 239.820,57.748 L 240.103,57.791 L 240.382,57.860 L 240.652,57.957 L 240.912,58.080 L 241.158,58.228 L 241.388,58.398 L 241.601,58.591 L 241.794,58.804 L 241.966,59.034 L 242.113,59.281 L 242.236,59.540 L 242.332,59.810 L 242.402,60.089 L 242.444,60.373 L 242.458,60.659 Z" fill="none" stroke="#ff0000" stroke-width="0.1" fill-rule="evenodd"/>
<text x="110.76" y="109.41" font-size="6" fill="none" stroke="#0000ff" stroke-width="0.1" text-anchor="middle">6</text>
<text x="275.73" y="108.72" font-size="6" fill="none" stroke="#0000ff" stroke-width="0.1" text-anchor="middle">11</text>
</svg>
