<svg xmlns="http://www.w3.org/2000/svg" width="600.0mm" height="400.0mm" viewBox="0 0 600.0 400.0">
<title>SculptGen sheet 10/12 — 3mm plywood — kerf 0.15mm</title>
<rect x="0" y="0" width="600.0" height="400.0" fill="none" stroke="#cccccc" stroke-width="0.1"/>
<path d="M 164.027,192.955 L 175.252,188.069 L 180.869,184.528 L 186.486,179.779 L 191.370,174.213 L 195.131,168.597 L 198.891,161.111 L 202.206,151.757 L 204.859,140.534 L 206.620,129.312 L 208.139,114.354 L 208.824,99.394 L 208.497,88.171 L 206.973,76.946 L 204.958,69.459 L 201.822,61.973 L 198.516,56.357 L 194.275,50.742 L 187.364,43.261 L 173.777,30.172 L 165.915,23.542 L 159.008,18.946 L 152.812,15.964 L 145.325,13.623 L 107.929,6.784 L 96.702,6.000 L 87.340,7.228 L 72.376,12.100 L 49.940,21.243 L 40.589,25.648 L 34.973,29.015 L 29.358,33.243 L 23.744,38.621 L 19.833,43.268 L 14.872,50.753 L 11.216,58.239 L 8.639,65.725 L 6.982,73.210 L 6.000,82.566 L 6.028,91.920 L 6.911,101.272 L 8.574,110.625 L 11.015,119.978 L 14.325,129.331 L 18.124,137.626 L 22.933,146.167 L 31.623,159.255 L 42.434,173.967 L 49.120,181.697 L 55.532,187.524 L 63.021,192.292 L 70.509,195.379 L 104.165,204.413 L 111.651,205.672 L 117.268,205.911 L 122.885,205.480 L 129.720,204.149 L 164.027,192.955 Z M 122.484,99.563 L 122.499,99.850 L 122.484,100.137 L 122.442,100.421 L 122.373,100.699 L 122.277,100.970 L 122.154,101.229 L 122.006,101.475 L 121.835,101.706 L 121.642,101.918 L 121.429,102.111 L 121.199,102.282 L 120.953,102.429 L 120.693,102.552 L 120.423,102.648 L 120.144,102.719 L 119.861,102.761 L 119.574,102.775 L 119.287,102.761 L 119.004,102.719 L 118.725,102.648 L 118.455,102.552 L 118.195,102.429 L 117.949,102.282 L 117.719,102.111 L 117.506,101.918 L 117.313,101.706 L 117.142,101.475 L 116.994,101.229 L 116.871,100.970 L 116.775,100.699 L 116.706,100.421 L 116.663,100.137 L 116.649,99.850 L 116.663,99.563 L 116.706,99.279 L 116.775,99.001 L 116.871,98.730 L 116.994,98.471 L 117.142,98.225 L 117.313,97.994 L 117.506,97.781 L 117.719,97.588 L 117.949,97.418 L 118.195,97.271 L 118.455,97.148 L 118.725,97.051 L 119.004,96.981 L 119.287,96.939 L 119.574,96.925 L 119.861,96.939 L 120.144,96.981 L 120.423,97.051 L 120.693,97.148 L 120.953,97.271 L 121.199,97.418 L 121.429,97.588 L 121.642,97.781 L 121.835,97.994 L 122.006,98.225 L 122.154,98.471 L 122.277,98.730 L 122.373,99.001 L 122.442,99.279 L 122.484,99.563 Z M 75.635,175.484 L 75.650,175.770 L 75.635,176.057 L 75.593,176.342 L 75.523,176.619 L 75.427,176.890 L 75.304,177.150 L 75.157,177.396 L 74.986,177.627 L 74.793,177.839 L 74.580,178.031 L 74.349,178.203 L 74.104,178.350 L 73.844,178.473 L 73.573,178.569 L 73.295,178.640 L 73.012,178.682 L 72.725,178.695 L 72.437,178.682 L 72.154,178.640 L 71.876,178.569 L 71.605,178.473 L 71.345,178.350 L 71.100,178.203 L 70.869,178.031 L 70.656,177.839 L 70.463,177.627 L 70.292,177.396 L 70.145,177.150 L 70.022,176.890 L 69.926,176.619 L 69.856,176.342 L 69.814,176.057 L 69.800,175.770 L 69.814,175.484 L 69.856,175.200 L 69.926,174.922 L 70.022,174.651 L 70.145,174.392 L 70.292,174.146 L 70.463,173.915 L 70.656,173.702 L 70.869,173.509 L 71.100,173.339 L 71.345,173.192 L 71.605,173.069 L 71.876,172.972 L 72.154,172.902 L 72.437,172.860 L 72.725,172.845 L 73.012,172.860 L 73.295,172.902 L 73.573,172.972 L 73.844,173.069 L 74.104,173.192 L 74.349,173.339 L 74.580,173.509 L 74.793,173.702 L 74.986,173.915 L 75.157,174.146 L 75.304,174.392 L 75.427,174.651 L 75.523,174.922 L 75.593,175.200 L 75.635,175.484 Z M 28.800,54.297 L 28.786,54.584 L 28.743,54.868 L 28.674,55.147 L 28.578,55.417 L 28.455,55.676 L 28.308,55.923 L 28.136,56.153 L 27.943,56.365 L 27.730,56.558 L 27.500,56.729 L 27.254,56.877 L 26.994,57.000 L 26.724,57.096 L 26.445,57.166 L 26.162,57.209 L 25.875,57.222 L 25.588,57.209 L 25.305,57.166 L 25.026,57.096 L 24.756,57.000 L 24.496,56.877 L 24.250,56.729 L 24.020,56.558 L 23.807,56.365 L 23.614,56.153 L 23.443,55.923 L 23.295,55.676 L 23.172,55.417 L 23.076,55.147 L 23.007,54.868 L 22.965,54.584 L 22.950,54.297 L 22.965,54.011 L 23.007,53.727 L 23.076,53.448 L 23.172,53.178 L 23.295,52.919 L 23.443,52.672 L 23.614,52.442 L 23.807,52.229 L 24.020,52.036 L 24.250,51.866 L 24.496,51.718 L 24.756,51.595 L 25.026,51.498 L 25.305,51.429 L 25.588,51.386 L 25.875,51.372 L 26.162,51.386 L 26.445,51.429 L 26.724,51.498 L 26.994,51.595 L 27.254,51.718 L 27.500,51.866 L 27.730,52.036 L 27.943,52.229 L 28.136,52.442 L 28.308,52.672 L 28.455,52.919 L 28.578,53.178 L 28.674,53.448 L 28.743,53.727 L 28.786,54.011 L 28.800,54.297 Z" fill="none" stroke="#ff0000" stroke-width="0.1" fill-rule="evenodd"/>
<path d="M 334.846,202.746 L 344.198,199.826 L 366.633,191.952 L 375.987,187.927 L 381.603,184.625 L 387.219,180.229 L 391.293,176.092 L 395.625,170.476 L 399.971,162.991 L 403.858,153.635 L 406.599,144.283 L 408.907,133.060 L 410.894,118.101 L 411.784,105.010 L 411.737,93.787 L 410.543,82.563 L 408.822,75.077 L 406.067,67.590 L 403.100,61.973 L 399.219,56.358 L 392.654,48.876 L 377.612,33.918 L 369.370,26.437 L 362.907,21.632 L 355.420,17.609 L 348.462,15.207 L 312.408,7.421 L 301.181,6.000 L 291.819,6.811 L 284.333,8.753 L 276.849,11.488 L 246.933,24.831 L 241.318,28.239 L 235.701,32.560 L 227.466,41.403 L 223.654,47.020 L 219.744,54.505 L 216.881,61.990 L 214.499,71.345 L 213.198,80.700 L 212.824,90.054 L 213.277,99.406 L 214.561,108.760 L 216.746,118.114 L 219.258,125.598 L 222.561,133.081 L 226.695,140.564 L 234.092,151.784 L 246.376,168.612 L 254.313,177.964 L 260.005,183.297 L 265.622,187.331 L 273.110,191.140 L 304.898,201.789 L 316.123,204.396 L 321.743,204.716 L 328.215,204.158 L 334.846,202.746 Z M 326.959,103.308 L 326.974,103.595 L 326.959,103.882 L 326.917,104.166 L 326.848,104.444 L 326.752,104.715 L 326.629,104.974 L 326.481,105.220 L 326.310,105.451 L 326.117,105.663 L 325.904,105.856 L 325.674,106.027 L 325.428,106.174 L 325.168,106.297 L 324.898,106.394 L 324.619,106.464 L 324.336,106.506 L 324.049,106.520 L 323.763,106.506 L 323.479,106.464 L 323.200,106.394 L 322.930,106.297 L 322.670,106.174 L 322.424,106.027 L 322.194,105.856 L 321.981,105.663 L 321.788,105.451 L 321.618,105.220 L 321.469,104.974 L 321.347,104.715 L 321.250,104.444 L 321.181,104.166 L 321.138,103.882 L 321.124,103.595 L 321.138,103.308 L 321.181,103.024 L 321.250,102.746 L 321.347,102.475 L 321.469,102.216 L 321.618,101.970 L 321.788,101.739 L 321.981,101.527 L 322.194,101.333 L 322.424,101.163 L 322.670,101.016 L 322.930,100.893 L 323.200,100.796 L 323.479,100.726 L 323.762,100.684 L 324.049,100.670 L 324.336,100.684 L 324.619,100.726 L 324.898,100.796 L 325.168,100.893 L 325.428,101.016 L 325.674,101.163 L 325.904,101.333 L 326.117,101.527 L 326.310,101.739 L 326.481,101.970 L 326.629,102.216 L 326.752,102.475 L 326.848,102.746 L 326.917,103.024 L 326.959,103.308 Z M 280.110,179.229 L 280.125,179.515 L 280.110,179.802 L 280.068,180.087 L 279.998,180.365 L 279.902,180.635 L 279.779,180.895 L 279.632,181.141 L 279.461,181.372 L 279.268,181.584 L 279.056,181.776 L 278.824,181.948 L 278.579,182.095 L 278.319,182.218 L 278.048,182.315 L 277.770,182.385 L 277.487,182.427 L 277.200,182.440 L 276.912,182.427 L 276.629,182.385 L 276.351,182.315 L 276.080,182.218 L 275.821,182.095 L 275.575,181.948 L 275.344,181.776 L 275.131,181.584 L 274.938,181.372 L 274.768,181.141 L 274.620,180.895 L 274.498,180.635 L 274.401,180.365 L 274.331,180.087 L 274.289,179.802 L 274.275,179.515 L 274.289,179.229 L 274.331,178.945 L 274.401,178.667 L 274.498,178.396 L 274.620,178.137 L 274.768,177.891 L 274.938,177.660 L 275.131,177.448 L 275.344,177.254 L 275.575,177.084 L 275.821,176.937 L 276.080,176.814 L 276.351,176.717 L 276.629,176.647 L 276.913,176.605 L 277.200,176.591 L 277.487,176.605 L 277.770,176.647 L 278.048,176.717 L 278.319,176.814 L 278.579,176.937 L 278.824,177.084 L 279.056,177.254 L 279.268,177.448 L 279.461,177.660 L 279.632,177.891 L 279.779,178.137 L 279.902,178.396 L 279.998,178.667 L 280.068,178.945 L 280.110,179.229 Z M 233.275,58.042 L 233.261,58.329 L 233.219,58.613 L 233.149,58.892 L 233.053,59.162 L 232.930,59.421 L 232.783,59.668 L 232.611,59.898 L 232.418,60.110 L 232.205,60.303 L 231.975,60.474 L 231.729,60.622 L 231.469,60.745 L 231.199,60.842 L 230.920,60.911 L 230.637,60.954 L 230.350,60.967 L 230.064,60.954 L 229.780,60.911 L 229.501,60.842 L 229.231,60.745 L 228.972,60.622 L 228.725,60.474 L 228.495,60.303 L 228.282,60.110 L 228.089,59.898 L 227.919,59.668 L 227.770,59.421 L 227.648,59.162 L 227.551,58.892 L 227.482,58.613 L 227.440,58.329 L 227.425,58.042 L 227.440,57.756 L 227.482,57.472 L 227.551,57.193 L 227.648,56.923 L 227.770,56.664 L 227.919,56.417 L 228.089,56.187 L 228.282,55.975 L 228.495,55.781 L 228.725,55.611 L 228.972,55.463 L 229.231,55.340 L 229.501,55.243 L 229.780,55.174 L 230.064,55.131 L 230.350,55.117 L 230.637,55.131 L 230.920,55.174 L 231.199,55.243 L 231.469,55.340 L 231.729,55.463 L 231.975,55.611 L 232.205,55.781 L 232.418,55.975 L 232.611,56.187 L 232.783,56.417 L 232.930,56.664 L 233.053,56.923 L 233.149,57.193 L 233.219,57.472 L 233.261,57.756 L 233.275,58.042 Z" fill="none" stroke="#ff0000" stroke-width="0.1" fill-rule="evenodd"/>
<text x="108.18" y="106.70" font-size="6" fill="none" stroke="#0000ff" stroke-width="0.1" text-anchor="middle">3</text>
<text x="267.90" y="105.34" font-size="6" fill="none" stroke="#0000ff" stroke-width="0.1" text-anchor="middle">14</text>
</svg>
