<svg xmlns="http://www.w3.org/2000/svg" width="600.0mm" height="400.0mm" viewBox="0 0 600.0 400.0">
<title>SculptGen sheet 9/12 — 3mm plywood — kerf 0.15mm</title>
<rect x="0" y="0" width="600.0" height="400.0" fill="none" stroke="#cccccc" stroke-width="0.1"/>
<path d="M 138.976,204.307 L 165.151,195.640 L 174.505,191.819 L 180.121,188.664 L 185.737,184.468 L 190.510,179.765 L 195.097,173.855 L 199.254,166.662 L 203.092,157.307 L 205.742,147.954 L 207.931,136.732 L 210.059,119.903 L 211.133,104.944 L 211.189,91.852 L 210.064,80.370 L 208.499,73.142 L 205.907,65.655 L 202.576,59.135 L 197.934,52.552 L 191.069,45.070 L 177.201,31.981 L 168.910,24.878 L 161.425,19.684 L 153.937,16.024 L 146.450,13.730 L 110.925,7.165 L 99.699,6.000 L 90.340,6.843 L 82.853,8.707 L 75.371,11.302 L 43.584,24.355 L 32.357,31.326 L 26.742,36.217 L 22.036,41.336 L 17.384,47.641 L 13.484,54.435 L 10.292,61.921 L 7.669,71.276 L 6.496,78.763 L 6.000,88.117 L 6.417,97.470 L 7.628,106.823 L 9.897,117.371 L 13.011,127.399 L 16.916,136.752 L 20.851,144.235 L 27.993,155.455 L 40.121,172.283 L 47.745,181.635 L 54.787,188.543 L 64.145,194.746 L 69.763,197.149 L 77.246,199.460 L 109.032,207.706 L 116.521,208.446 L 125.135,207.830 L 138.976,204.307 Z M 123.609,101.372 L 123.624,101.659 L 123.609,101.946 L 123.567,102.230 L 123.498,102.508 L 123.402,102.779 L 123.279,103.038 L 123.131,103.284 L 122.960,103.515 L 122.767,103.727 L 122.554,103.920 L 122.324,104.091 L 122.078,104.238 L 121.818,104.361 L 121.548,104.458 L 121.269,104.528 L 120.986,104.570 L 120.699,104.584 L 120.412,104.570 L 120.129,104.528 L 119.850,104.458 L 119.580,104.361 L 119.320,104.238 L 119.074,104.091 L 118.844,103.920 L 118.631,103.727 L 118.438,103.515 L 118.268,103.284 L 118.119,103.038 L 117.996,102.779 L 117.900,102.508 L 117.831,102.230 L 117.788,101.946 L 117.774,101.659 L 117.788,101.372 L 117.831,101.088 L 117.900,100.810 L 117.996,100.539 L 118.119,100.280 L 118.268,100.034 L 118.438,99.803 L 118.631,99.590 L 118.844,99.397 L 119.074,99.227 L 119.320,99.080 L 119.580,98.957 L 119.850,98.860 L 120.129,98.790 L 120.412,98.748 L 120.699,98.734 L 120.986,98.748 L 121.269,98.790 L 121.548,98.860 L 121.818,98.957 L 122.078,99.080 L 122.324,99.227 L 122.554,99.397 L 122.767,99.590 L 122.960,99.803 L 123.131,100.034 L 123.279,100.280 L 123.402,100.539 L 123.498,100.810 L 123.567,101.088 L 123.609,101.372 Z M 76.760,177.293 L 76.775,177.579 L 76.760,177.866 L 76.718,178.151 L 76.648,178.428 L 76.552,178.699 L 76.429,178.959 L 76.282,179.205 L 76.111,179.436 L 75.918,179.648 L 75.705,179.840 L 75.474,180.012 L 75.229,180.159 L 74.969,180.282 L 74.698,180.379 L 74.420,180.449 L 74.137,180.491 L 73.850,180.504 L 73.562,180.491 L 73.279,180.449 L 73.001,180.379 L 72.730,180.282 L 72.471,180.159 L 72.225,180.012 L 71.994,179.840 L 71.781,179.648 L 71.588,179.436 L 71.418,179.205 L 71.270,178.959 L 71.147,178.699 L 71.051,178.428 L 70.981,178.151 L 70.939,177.866 L 70.925,177.579 L 70.939,177.293 L 70.981,177.009 L 71.051,176.731 L 71.147,176.460 L 71.270,176.201 L 71.418,175.955 L 71.588,175.724 L 71.781,175.511 L 71.994,175.318 L 72.225,175.148 L 72.471,175.001 L 72.730,174.878 L 73.001,174.781 L 73.279,174.711 L 73.562,174.669 L 73.850,174.654 L 74.137,174.669 L 74.420,174.711 L 74.698,174.781 L 74.969,174.878 L 75.229,175.001 L 75.474,175.148 L 75.705,175.318 L 75.918,175.511 L 76.111,175.724 L 76.282,175.955 L 76.429,176.201 L 76.552,176.460 L 76.648,176.731 L 76.718,177.009 L 76.760,177.293 Z M 29.925,56.106 L 29.911,56.393 L 29.868,56.677 L 29.799,56.956 L 29.703,57.226 L 29.580,57.485 L 29.433,57.732 L 29.261,57.962 L 29.068,58.174 L 28.855,58.367 L 28.625,58.538 L 28.379,58.686 L 28.119,58.809 L 27.849,58.905 L 27.570,58.975 L 27.287,59.018 L 27.000,59.031 L 26.713,59.018 L 26.430,58.975 L 26.151,58.905 L 25.881,58.809 L 25.622,58.686 L 25.375,58.538 L 25.145,58.367 L 24.932,58.174 L 24.739,57.962 L 24.569,57.732 L 24.420,57.485 L 24.297,57.226 L 24.201,56.956 L 24.132,56.677 L 24.090,56.393 L 24.075,56.106 L 24.090,55.820 L 24.132,55.536 L 24.201,55.257 L 24.297,54.987 L 24.420,54.728 L 24.569,54.481 L 24.739,54.251 L 24.932,54.038 L 25.145,53.845 L 25.375,53.675 L 25.622,53.527 L 25.881,53.404 L 26.151,53.307 L 26.430,53.238 L 26.713,53.195 L 27.000,53.181 L 27.287,53.195 L 27.570,53.238 L 27.849,53.307 L 28.119,53.404 L 28.379,53.527 L 28.625,53.675 L 28.855,53.845 L 29.068,54.038 L 29.261,54.251 L 29.433,54.481 L 29.580,54.728 L 29.703,54.987 L 29.799,55.257 L 29.868,55.536 L 29.911,55.820 L 29.925,56.106 Z" fill="none" stroke="#ff0000" stroke-width="0.1" fill-rule="evenodd"/>
<path d="M 336.799,205.982 L 344.281,203.860 L 370.457,194.969 L 379.810,191.093 L 385.426,187.915 L 391.042,183.695 L 395.677,179.129 L 400.105,173.514 L 404.541,166.027 L 408.519,156.673 L 411.338,147.319 L 413.732,136.097 L 415.873,121.138 L 417.076,106.178 L 417.172,94.955 L 416.166,83.731 L 414.608,76.245 L 412.063,68.758 L 408.190,61.271 L 404.183,55.655 L 397.359,48.173 L 381.764,33.215 L 374.217,26.520 L 368.130,21.991 L 359.243,17.260 L 349.886,14.393 L 312.491,6.662 L 305.004,6.000 L 297.515,6.530 L 290.028,8.220 L 282.544,10.763 L 251.820,23.856 L 245.143,27.710 L 240.201,31.342 L 235.784,35.326 L 231.010,40.701 L 226.426,47.259 L 222.684,54.227 L 219.204,63.156 L 217.220,70.642 L 215.737,79.995 L 215.189,89.349 L 215.481,98.703 L 216.573,108.056 L 218.509,117.409 L 220.811,125.041 L 224.553,134.084 L 228.676,141.731 L 236.076,152.951 L 248.437,169.778 L 256.150,179.130 L 261.960,184.904 L 271.319,191.504 L 282.545,196.195 L 314.333,206.177 L 321.822,207.366 L 329.980,207.194 L 336.799,205.982 Z M 330.783,104.475 L 330.798,104.762 L 330.783,105.049 L 330.742,105.333 L 330.672,105.611 L 330.576,105.882 L 330.453,106.141 L 330.305,106.386 L 330.134,106.618 L 329.941,106.830 L 329.729,107.023 L 329.499,107.194 L 329.252,107.341 L 328.992,107.464 L 328.722,107.560 L 328.443,107.631 L 328.160,107.673 L 327.873,107.687 L 327.587,107.673 L 327.303,107.631 L 327.024,107.560 L 326.754,107.464 L 326.495,107.341 L 326.248,107.194 L 326.018,107.023 L 325.805,106.830 L 325.612,106.618 L 325.442,106.386 L 325.293,106.141 L 325.171,105.882 L 325.074,105.611 L 325.005,105.333 L 324.962,105.049 L 324.948,104.762 L 324.962,104.475 L 325.005,104.191 L 325.074,103.913 L 325.171,103.642 L 325.293,103.383 L 325.442,103.137 L 325.612,102.906 L 325.805,102.693 L 326.018,102.500 L 326.248,102.330 L 326.495,102.182 L 326.754,102.060 L 327.024,101.963 L 327.303,101.893 L 327.586,101.851 L 327.873,101.837 L 328.160,101.851 L 328.443,101.893 L 328.722,101.963 L 328.992,102.060 L 329.252,102.182 L 329.499,102.330 L 329.729,102.500 L 329.941,102.693 L 330.134,102.906 L 330.305,103.137 L 330.453,103.383 L 330.576,103.642 L 330.672,103.913 L 330.742,104.191 L 330.783,104.475 Z M 283.934,180.396 L 283.949,180.682 L 283.934,180.969 L 283.893,181.254 L 283.822,181.531 L 283.726,181.802 L 283.603,182.062 L 283.456,182.308 L 283.285,182.539 L 283.092,182.751 L 282.880,182.943 L 282.648,183.115 L 282.403,183.262 L 282.143,183.385 L 281.872,183.481 L 281.594,183.552 L 281.311,183.593 L 281.024,183.607 L 280.736,183.593 L 280.453,183.552 L 280.175,183.481 L 279.904,183.385 L 279.645,183.262 L 279.399,183.115 L 279.168,182.943 L 278.955,182.751 L 278.762,182.539 L 278.592,182.308 L 278.444,182.062 L 278.322,181.802 L 278.225,181.531 L 278.155,181.254 L 278.113,180.969 L 278.099,180.682 L 278.113,180.396 L 278.155,180.112 L 278.225,179.834 L 278.322,179.563 L 278.444,179.304 L 278.592,179.058 L 278.762,178.827 L 278.955,178.614 L 279.168,178.421 L 279.399,178.251 L 279.645,178.103 L 279.904,177.981 L 280.175,177.884 L 280.453,177.814 L 280.737,177.772 L 281.024,177.757 L 281.311,177.772 L 281.594,177.814 L 281.872,177.884 L 282.143,177.981 L 282.403,178.103 L 282.649,178.251 L 282.880,178.421 L 283.092,178.614 L 283.285,178.827 L 283.456,179.058 L 283.603,179.304 L 283.726,179.563 L 283.822,179.834 L 283.893,180.112 L 283.934,180.396 Z M 237.099,59.209 L 237.085,59.496 L 237.043,59.780 L 236.973,60.059 L 236.877,60.328 L 236.754,60.588 L 236.607,60.834 L 236.435,61.064 L 236.242,61.277 L 236.030,61.470 L 235.799,61.641 L 235.553,61.789 L 235.293,61.912 L 235.023,62.008 L 234.744,62.078 L 234.461,62.121 L 234.174,62.134 L 233.888,62.121 L 233.604,62.078 L 233.325,62.008 L 233.055,61.912 L 232.796,61.789 L 232.549,61.641 L 232.319,61.470 L 232.106,61.277 L 231.913,61.065 L 231.743,60.834 L 231.594,60.588 L 231.472,60.328 L 231.375,60.059 L 231.306,59.780 L 231.264,59.496 L 231.249,59.209 L 231.264,58.923 L 231.306,58.639 L 231.375,58.360 L 231.472,58.090 L 231.594,57.831 L 231.743,57.584 L 231.913,57.354 L 232.106,57.141 L 232.319,56.948 L 232.549,56.778 L 232.796,56.629 L 233.055,56.507 L 233.325,56.410 L 233.604,56.341 L 233.888,56.298 L 234.174,56.284 L 234.461,56.298 L 234.744,56.341 L 235.023,56.410 L 235.293,56.507 L 235.553,56.629 L 235.799,56.778 L 236.030,56.948 L 236.242,57.141 L 236.435,57.354 L 236.607,57.584 L 236.754,57.831 L 236.877,58.090 L 236.973,58.360 L 237.043,58.639 L 237.085,58.923 L 237.099,59.209 Z" fill="none" stroke="#ff0000" stroke-width="0.1" fill-rule="evenodd"/>
<text x="109.69" y="112.10" font-size="6" fill="none" stroke="#0000ff" stroke-width="0.1" text-anchor="middle">4</text>
<text x="271.06" y="106.72" font-size="6" fill="none" stroke="#0000ff" stroke-width="0.1" text-anchor="middle">13</text>
</svg>
