<svg xmlns="http://www.w3.org/2000/svg" width="600.0mm" height="400.0mm" viewBox="0 0 600.0 400.0">
<title>SculptGen sheet 2/12 — 3mm plywood — kerf 0.15mm</title>
<rect x="0" y="0" width="600.0" height="400.0" fill="none" stroke="#cccccc" stroke-width="0.1"/>
<path d="M 46.711,238.783 L 48.461,230.858 L 53.094,221.791 L 62.542,209.312 L 75.350,195.697 L 86.904,185.317 L 108.388,168.256 L 117.295,159.366 L 121.281,153.680 L 123.860,147.990 L 124.977,142.296 L 124.570,136.602 L 123.105,132.045 L 120.589,127.490 L 113.536,119.534 L 104.704,112.717 L 80.259,96.826 L 68.206,86.617 L 59.783,76.522 L 55.066,67.345 L 53.594,61.686 L 53.257,54.890 L 54.102,49.227 L 56.308,42.427 L 59.583,35.625 L 63.667,28.819 L 79.766,6.000 L 6.000,6.000 L 6.000,59.990 L 23.145,59.990 L 23.145,63.040 L 6.000,63.040 L 6.000,143.150 L 43.769,143.150 L 43.769,146.200 L 6.000,146.200 L 6.000,218.750 L 22.003,218.750 L 22.003,221.800 L 6.000,221.800 L 6.000,250.502 L 8.843,250.303 L 17.881,250.514 L 26.920,251.587 L 48.406,255.502 L 49.574,255.519 L 50.431,254.690 L 47.425,246.707 L 46.711,238.783 Z" fill="none" stroke="#ff0000" stroke-width="0.1" fill-rule="evenodd"/>
<path d="M 169.046,236.511 L 170.834,227.449 L 175.553,217.248 L 183.483,205.906 L 193.729,194.560 L 205.359,183.770 L 229.082,163.914 L 238.081,154.826 L 242.023,149.139 L 244.003,144.583 L 244.861,140.025 L 244.357,134.326 L 240.933,126.360 L 233.838,117.267 L 223.015,107.045 L 199.028,87.748 L 190.104,79.806 L 182.414,70.736 L 178.401,62.806 L 177.103,57.147 L 177.035,51.486 L 178.079,45.825 L 180.097,40.160 L 187.168,27.684 L 203.087,6.000 L 128.977,6.000 L 128.977,59.990 L 146.122,59.990 L 146.122,63.040 L 128.977,63.040 L 128.977,143.150 L 166.746,143.150 L 166.746,146.200 L 128.977,146.200 L 128.977,218.750 L 144.980,218.750 L 144.980,221.800 L 128.977,221.800 L 128.977,251.433 L 137.465,251.771 L 171.401,255.484 L 173.188,254.711 L 169.846,245.573 L 169.046,236.511 Z" fill="none" stroke="#ff0000" stroke-width="0.1" fill-rule="evenodd"/>
<path d="M 289.082,236.512 L 291.281,226.315 L 296.090,216.113 L 303.939,204.771 L 314.178,193.425 L 325.243,183.373 L 347.782,165.050 L 356.910,155.931 L 361.630,149.138 L 364.045,143.447 L 365.022,137.754 L 364.561,132.059 L 362.151,125.230 L 356.940,117.271 L 348.376,108.183 L 326.577,88.885 L 317.542,79.810 L 309.954,69.605 L 306.126,60.540 L 305.329,56.015 L 305.369,50.353 L 306.489,44.690 L 308.571,39.026 L 315.009,27.684 L 330.718,6.000 L 248.861,6.000 L 248.861,59.990 L 266.006,59.990 L 266.006,63.040 L 248.861,63.040 L 248.861,143.150 L 286.630,143.150 L 286.630,146.200 L 248.861,146.200 L 248.861,218.750 L 264.864,218.750 L 264.864,221.800 L 248.861,221.800 L 248.861,251.879 L 278.831,254.654 L 291.288,255.384 L 292.834,254.711 L 289.700,245.574 L 289.082,236.512 Z" fill="none" stroke="#ff0000" stroke-width="0.1" fill-rule="evenodd"/>
<path d="M 410.890,239.923 L 412.799,233.130 L 416.513,226.332 L 421.738,219.528 L 428.056,212.723 L 459.361,183.209 L 471.311,170.719 L 476.739,163.903 L 480.438,158.220 L 483.711,151.399 L 485.370,145.711 L 486.014,138.885 L 485.195,132.059 L 482.984,125.235 L 479.519,118.415 L 474.977,111.599 L 468.589,103.648 L 440.154,73.002 L 434.918,65.068 L 432.103,57.140 L 431.722,52.617 L 432.235,48.090 L 433.596,43.561 L 436.361,37.897 L 441.813,29.958 L 455.590,13.423 L 461.081,6.000 L 369.022,6.000 L 369.022,59.990 L 386.167,59.990 L 386.167,63.040 L 369.022,63.040 L 369.022,143.150 L 406.791,143.150 L 406.791,146.200 L 369.022,146.200 L 369.022,218.750 L 385.025,218.750 L 385.025,221.800 L 369.022,221.800 L 369.022,251.241 L 378.641,251.406 L 411.443,255.308 L 413.165,254.718 L 410.889,246.714 L 410.890,239.923 Z" fill="none" stroke="#ff0000" stroke-width="0.1" fill-rule="evenodd"/>
<text x="63.92" y="129.77" font-size="6" fill="none" stroke="#0000ff" stroke-width="0.1" text-anchor="middle">24</text>
<text x="185.81" y="130.34" font-size="6" fill="none" stroke="#0000ff" stroke-width="0.1" text-anchor="middle">22</text>
<text x="306.11" y="128.64" font-size="6" fill="none" stroke="#0000ff" stroke-width="0.1" text-anchor="middle">20</text>
<text x="426.56" y="128.65" font-size="6" fill="none" stroke="#0000ff" stroke-width="0.1" text-anchor="middle">29</text>
</svg>
