<svg xmlns="http://www.w3.org/2000/svg" width="600.0mm" height="400.0mm" viewBox="0 0 600.0 400.0">
<title>SculptGen sheet 6/12 — 3mm plywood — kerf 0.15mm</title>
<rect x="0" y="0" width="600.0" height="400.0" fill="none" stroke="#cccccc" stroke-width="0.1"/>
<path d="M 166.714,200.392 L 177.939,195.724 L 183.556,192.331 L 189.172,187.833 L 194.787,181.815 L 198.897,176.007 L 202.916,168.522 L 206.529,159.167 L 209.504,147.944 L 211.874,134.853 L 214.162,116.155 L 215.124,101.195 L 214.950,89.972 L 213.514,78.747 L 211.548,71.260 L 208.465,63.773 L 205.188,58.156 L 200.870,52.541 L 193.471,45.059 L 176.595,30.101 L 169.672,24.490 L 162.987,20.003 L 155.499,16.390 L 148.013,14.115 L 110.618,6.965 L 99.391,6.000 L 90.030,7.090 L 75.065,11.717 L 52.629,20.383 L 43.277,24.633 L 37.662,27.935 L 32.047,32.092 L 26.433,37.335 L 20.819,43.979 L 16.363,50.683 L 12.519,58.168 L 9.591,65.975 L 7.376,75.009 L 6.208,84.364 L 6.000,93.718 L 6.619,103.072 L 8.349,114.294 L 10.626,123.646 L 13.775,132.999 L 17.074,140.512 L 22.284,149.836 L 29.964,161.056 L 43.254,178.681 L 50.615,187.235 L 56.638,192.850 L 63.837,197.751 L 71.326,201.134 L 104.982,210.971 L 112.466,212.510 L 118.084,212.964 L 123.701,212.725 L 130.644,211.559 L 166.714,200.392 Z M 125.172,105.102 L 125.187,105.389 L 125.172,105.676 L 125.130,105.960 L 125.061,106.238 L 124.965,106.509 L 124.842,106.768 L 124.694,107.014 L 124.523,107.245 L 124.330,107.457 L 124.117,107.650 L 123.887,107.821 L 123.641,107.968 L 123.381,108.091 L 123.111,108.188 L 122.832,108.258 L 122.549,108.300 L 122.262,108.314 L 121.975,108.300 L 121.692,108.258 L 121.413,108.188 L 121.143,108.091 L 120.883,107.968 L 120.637,107.821 L 120.407,107.650 L 120.194,107.457 L 120.001,107.245 L 119.830,107.014 L 119.682,106.768 L 119.559,106.509 L 119.463,106.238 L 119.394,105.960 L 119.351,105.676 L 119.337,105.389 L 119.351,105.102 L 119.394,104.818 L 119.463,104.540 L 119.559,104.269 L 119.682,104.010 L 119.830,103.764 L 120.001,103.533 L 120.194,103.320 L 120.407,103.127 L 120.637,102.957 L 120.883,102.810 L 121.143,102.687 L 121.413,102.590 L 121.692,102.520 L 121.975,102.478 L 122.262,102.464 L 122.549,102.478 L 122.832,102.520 L 123.111,102.590 L 123.381,102.687 L 123.641,102.810 L 123.887,102.957 L 124.117,103.127 L 124.330,103.320 L 124.523,103.533 L 124.694,103.764 L 124.842,104.010 L 124.965,104.269 L 125.061,104.540 L 125.130,104.818 L 125.172,105.102 Z M 78.323,181.023 L 78.338,181.309 L 78.323,181.596 L 78.281,181.881 L 78.211,182.159 L 78.115,182.429 L 77.992,182.689 L 77.845,182.935 L 77.674,183.166 L 77.481,183.378 L 77.268,183.570 L 77.037,183.742 L 76.792,183.889 L 76.532,184.012 L 76.261,184.109 L 75.983,184.179 L 75.700,184.221 L 75.413,184.234 L 75.125,184.221 L 74.842,184.179 L 74.564,184.109 L 74.293,184.012 L 74.033,183.889 L 73.788,183.742 L 73.557,183.570 L 73.344,183.378 L 73.151,183.166 L 72.981,182.935 L 72.833,182.689 L 72.710,182.429 L 72.614,182.159 L 72.544,181.881 L 72.502,181.596 L 72.488,181.309 L 72.502,181.023 L 72.544,180.739 L 72.614,180.461 L 72.710,180.190 L 72.833,179.931 L 72.981,179.685 L 73.151,179.454 L 73.344,179.241 L 73.557,179.048 L 73.788,178.878 L 74.033,178.731 L 74.293,178.608 L 74.564,178.511 L 74.842,178.441 L 75.125,178.399 L 75.413,178.384 L 75.700,178.399 L 75.983,178.441 L 76.261,178.511 L 76.532,178.608 L 76.792,178.731 L 77.037,178.878 L 77.268,179.048 L 77.481,179.241 L 77.674,179.454 L 77.845,179.685 L 77.992,179.931 L 78.115,180.190 L 78.211,180.461 L 78.281,180.739 L 78.323,181.023 Z M 31.488,59.836 L 31.474,60.123 L 31.431,60.407 L 31.362,60.686 L 31.266,60.956 L 31.143,61.215 L 30.996,61.462 L 30.824,61.692 L 30.631,61.904 L 30.418,62.097 L 30.188,62.268 L 29.942,62.416 L 29.682,62.539 L 29.412,62.635 L 29.133,62.705 L 28.850,62.748 L 28.563,62.761 L 28.276,62.748 L 27.993,62.705 L 27.714,62.635 L 27.444,62.539 L 27.185,62.416 L 26.938,62.268 L 26.708,62.097 L 26.495,61.904 L 26.302,61.692 L 26.131,61.462 L 25.983,61.215 L 25.860,60.956 L 25.764,60.686 L 25.695,60.407 L 25.653,60.123 L 25.638,59.836 L 25.653,59.550 L 25.695,59.266 L 25.764,58.987 L 25.860,58.717 L 25.983,58.458 L 26.131,58.211 L 26.302,57.981 L 26.495,57.768 L 26.708,57.575 L 26.938,57.405 L 27.185,57.257 L 27.444,57.134 L 27.714,57.037 L 27.993,56.968 L 28.276,56.925 L 28.563,56.911 L 28.850,56.925 L 29.133,56.968 L 29.412,57.037 L 29.682,57.134 L 29.942,57.257 L 30.188,57.405 L 30.418,57.575 L 30.631,57.768 L 30.824,57.981 L 30.996,58.211 L 31.143,58.458 L 31.266,58.717 L 31.362,58.987 L 31.431,59.266 L 31.474,59.550 L 31.488,59.836 Z" fill="none" stroke="#ff0000" stroke-width="0.1" fill-rule="evenodd"/>
<path d="M 339.880,211.933 L 349.235,209.653 L 377.279,200.637 L 386.632,197.054 L 392.248,194.129 L 397.955,190.197 L 403.480,185.132 L 408.548,178.965 L 413.138,171.479 L 417.252,162.123 L 420.165,152.770 L 422.655,141.549 L 424.990,126.590 L 426.713,109.761 L 427.156,96.669 L 426.448,85.445 L 424.691,76.088 L 422.230,68.601 L 418.466,61.115 L 414.700,55.725 L 409.471,49.885 L 401.459,42.404 L 386.649,29.273 L 377.295,22.087 L 367.936,17.095 L 358.579,14.234 L 319.314,6.523 L 311.827,6.000 L 306.209,6.367 L 298.724,7.840 L 291.239,10.175 L 259.453,22.762 L 251.969,26.795 L 246.352,30.735 L 236.997,39.808 L 232.202,46.156 L 227.639,53.914 L 223.898,62.613 L 221.548,70.482 L 219.838,79.837 L 219.124,89.191 L 219.265,98.544 L 220.155,107.709 L 222.025,117.968 L 225.004,128.473 L 228.771,137.828 L 232.699,145.311 L 240.072,156.532 L 252.625,173.359 L 260.172,182.710 L 266.913,189.724 L 276.271,196.625 L 285.630,200.814 L 319.286,211.054 L 326.774,212.431 L 333.307,212.645 L 339.880,211.933 Z M 337.607,106.187 L 337.622,106.474 L 337.607,106.761 L 337.565,107.045 L 337.496,107.322 L 337.400,107.593 L 337.277,107.853 L 337.129,108.098 L 336.958,108.330 L 336.765,108.542 L 336.552,108.735 L 336.322,108.906 L 336.076,109.053 L 335.816,109.176 L 335.546,109.272 L 335.267,109.343 L 334.984,109.384 L 334.697,109.399 L 334.411,109.384 L 334.127,109.343 L 333.848,109.272 L 333.578,109.176 L 333.318,109.053 L 333.072,108.906 L 332.842,108.735 L 332.629,108.542 L 332.436,108.330 L 332.266,108.098 L 332.117,107.853 L 331.995,107.593 L 331.898,107.322 L 331.829,107.044 L 331.786,106.761 L 331.772,106.474 L 331.786,106.187 L 331.829,105.903 L 331.898,105.625 L 331.995,105.354 L 332.117,105.095 L 332.266,104.849 L 332.436,104.618 L 332.629,104.405 L 332.842,104.212 L 333.072,104.042 L 333.318,103.894 L 333.578,103.772 L 333.848,103.675 L 334.127,103.605 L 334.410,103.563 L 334.697,103.549 L 334.984,103.563 L 335.267,103.605 L 335.546,103.675 L 335.816,103.772 L 336.076,103.894 L 336.322,104.042 L 336.552,104.212 L 336.765,104.405 L 336.958,104.618 L 337.129,104.849 L 337.277,105.095 L 337.400,105.354 L 337.496,105.625 L 337.565,105.903 L 337.607,106.187 Z M 290.758,182.108 L 290.773,182.394 L 290.758,182.681 L 290.716,182.965 L 290.646,183.243 L 290.550,183.513 L 290.427,183.774 L 290.280,184.020 L 290.109,184.251 L 289.916,184.463 L 289.704,184.655 L 289.472,184.827 L 289.227,184.974 L 288.967,185.097 L 288.696,185.193 L 288.418,185.264 L 288.135,185.305 L 287.848,185.319 L 287.560,185.305 L 287.277,185.264 L 286.999,185.193 L 286.728,185.097 L 286.469,184.974 L 286.223,184.827 L 285.992,184.655 L 285.779,184.463 L 285.586,184.251 L 285.416,184.020 L 285.268,183.774 L 285.146,183.513 L 285.049,183.243 L 284.979,182.965 L 284.937,182.681 L 284.923,182.394 L 284.937,182.107 L 284.979,181.824 L 285.049,181.546 L 285.146,181.275 L 285.268,181.016 L 285.416,180.770 L 285.586,180.539 L 285.779,180.326 L 285.992,180.133 L 286.223,179.963 L 286.469,179.815 L 286.728,179.693 L 286.999,179.596 L 287.277,179.526 L 287.561,179.484 L 287.848,179.469 L 288.135,179.484 L 288.418,179.526 L 288.696,179.596 L 288.967,179.693 L 289.227,179.815 L 289.472,179.963 L 289.704,180.133 L 289.916,180.326 L 290.109,180.539 L 290.280,180.770 L 290.427,181.016 L 290.550,181.275 L 290.646,181.546 L 290.716,181.824 L 290.758,182.108 Z M 243.923,60.921 L 243.909,61.208 L 243.867,61.491 L 243.797,61.770 L 243.701,62.040 L 243.578,62.300 L 243.431,62.546 L 243.259,62.776 L 243.066,62.989 L 242.853,63.182 L 242.623,63.353 L 242.377,63.501 L 242.117,63.624 L 241.847,63.720 L 241.568,63.790 L 241.285,63.832 L 240.998,63.846 L 240.712,63.832 L 240.428,63.790 L 240.149,63.720 L 239.879,63.624 L 239.620,63.501 L 239.373,63.353 L 239.143,63.182 L 238.930,62.989 L 238.737,62.777 L 238.567,62.546 L 238.418,62.300 L 238.296,62.040 L 238.199,61.770 L 238.130,61.492 L 238.088,61.208 L 238.073,60.921 L 238.088,60.635 L 238.130,60.351 L 238.199,60.072 L 238.296,59.802 L 238.418,59.543 L 238.567,59.296 L 238.737,59.066 L 238.930,58.853 L 239.143,58.660 L 239.373,58.490 L 239.620,58.341 L 239.879,58.219 L 240.149,58.122 L 240.428,58.053 L 240.712,58.010 L 240.998,57.996 L 241.285,58.010 L 241.568,58.053 L 241.847,58.122 L 242.117,58.219 L 242.377,58.341 L 242.623,58.490 L 242.853,58.660 L 243.066,58.853 L 243.259,59.066 L 243.431,59.296 L 243.578,59.543 L 243.701,59.802 L 243.797,60.072 L 243.867,60.351 L 243.909,60.635 L 243.923,60.921 Z" fill="none" stroke="#ff0000" stroke-width="0.1" fill-rule="evenodd"/>
<text x="111.18" y="111.30" font-size="6" fill="none" stroke="#0000ff" stroke-width="0.1" text-anchor="middle">7</text>
<text x="277.22" y="109.31" font-size="6" fill="none" stroke="#0000ff" stroke-width="0.1" text-anchor="middle">10</text>
</svg>
