<svg xmlns="http://www.w3.org/2000/svg" width="600.0mm" height="400.0mm" viewBox="0 0 600.0 400.0">
<title>SculptGen sheet 11/12 — 3mm plywood — kerf 0.15mm</title>
<rect x="0" y="0" width="600.0" height="400.0" fill="none" stroke="#cccccc" stroke-width="0.1"/>
<path d="M 140.431,197.591 L 162.867,189.787 L 172.221,185.760 L 177.838,182.437 L 183.454,177.989 L 187.261,174.063 L 191.496,168.447 L 195.664,160.961 L 199.288,151.605 L 201.745,142.251 L 203.712,131.030 L 205.317,116.070 L 206.043,101.111 L 205.820,89.889 L 204.507,78.664 L 202.727,71.179 L 200.296,64.529 L 196.953,58.077 L 193.117,52.461 L 185.025,43.109 L 173.923,31.890 L 165.528,24.408 L 159.141,19.835 L 149.781,15.268 L 138.555,12.407 L 103.029,6.266 L 95.541,6.000 L 88.053,6.866 L 80.567,8.792 L 73.085,11.472 L 41.298,25.079 L 30.070,32.247 L 20.713,41.492 L 16.779,46.858 L 12.569,54.344 L 9.561,61.829 L 7.565,69.316 L 6.423,76.801 L 6.000,86.156 L 6.524,95.510 L 7.870,104.863 L 12.310,121.697 L 18.839,136.778 L 20.735,138.502 L 26.356,139.535 L 30.075,141.148 L 35.260,146.021 L 37.526,149.859 L 39.573,155.342 L 41.122,162.809 L 41.799,170.301 L 45.598,175.932 L 53.087,183.419 L 61.860,189.347 L 67.478,191.822 L 74.961,194.157 L 106.748,202.166 L 116.108,202.937 L 124.231,202.128 L 140.431,197.591 Z M 121.324,97.541 L 121.339,97.828 L 121.324,98.115 L 121.282,98.399 L 121.213,98.676 L 121.117,98.947 L 120.994,99.207 L 120.846,99.452 L 120.675,99.684 L 120.482,99.896 L 120.269,100.089 L 120.039,100.260 L 119.793,100.407 L 119.533,100.530 L 119.263,100.626 L 118.984,100.697 L 118.701,100.738 L 118.414,100.753 L 118.128,100.738 L 117.844,100.697 L 117.565,100.626 L 117.295,100.530 L 117.035,100.407 L 116.789,100.260 L 116.559,100.089 L 116.346,99.896 L 116.153,99.684 L 115.983,99.452 L 115.834,99.207 L 115.711,98.947 L 115.615,98.676 L 115.546,98.398 L 115.503,98.115 L 115.489,97.828 L 115.503,97.541 L 115.546,97.257 L 115.615,96.979 L 115.711,96.708 L 115.834,96.449 L 115.983,96.203 L 116.153,95.972 L 116.346,95.759 L 116.559,95.566 L 116.789,95.396 L 117.035,95.248 L 117.295,95.126 L 117.565,95.029 L 117.844,94.959 L 118.127,94.917 L 118.414,94.903 L 118.701,94.917 L 118.984,94.959 L 119.263,95.029 L 119.533,95.126 L 119.793,95.248 L 120.039,95.396 L 120.269,95.566 L 120.482,95.759 L 120.675,95.972 L 120.846,96.203 L 120.994,96.449 L 121.117,96.708 L 121.213,96.979 L 121.282,97.257 L 121.324,97.541 Z M 74.475,173.462 L 74.490,173.748 L 74.475,174.035 L 74.433,174.319 L 74.363,174.597 L 74.267,174.867 L 74.144,175.128 L 73.997,175.374 L 73.826,175.605 L 73.633,175.817 L 73.420,176.009 L 73.189,176.181 L 72.944,176.328 L 72.684,176.451 L 72.413,176.547 L 72.135,176.618 L 71.852,176.659 L 71.565,176.673 L 71.277,176.659 L 70.994,176.618 L 70.716,176.547 L 70.445,176.451 L 70.186,176.328 L 69.940,176.181 L 69.709,176.009 L 69.496,175.817 L 69.303,175.605 L 69.133,175.374 L 68.985,175.128 L 68.862,174.867 L 68.766,174.597 L 68.696,174.319 L 68.654,174.035 L 68.640,173.748 L 68.654,173.461 L 68.696,173.178 L 68.766,172.900 L 68.862,172.629 L 68.985,172.370 L 69.133,172.124 L 69.303,171.893 L 69.496,171.680 L 69.709,171.487 L 69.940,171.317 L 70.186,171.169 L 70.445,171.047 L 70.716,170.950 L 70.994,170.880 L 71.277,170.838 L 71.565,170.823 L 71.852,170.838 L 72.135,170.880 L 72.413,170.950 L 72.684,171.047 L 72.944,171.169 L 73.189,171.317 L 73.420,171.487 L 73.633,171.680 L 73.826,171.893 L 73.997,172.124 L 74.144,172.370 L 74.267,172.629 L 74.363,172.900 L 74.433,173.178 L 74.475,173.462 Z M 27.640,52.275 L 27.626,52.562 L 27.583,52.845 L 27.514,53.124 L 27.418,53.394 L 27.295,53.654 L 27.148,53.900 L 26.976,54.130 L 26.783,54.343 L 26.570,54.536 L 26.340,54.707 L 26.094,54.855 L 25.834,54.978 L 25.564,55.074 L 25.285,55.144 L 25.002,55.186 L 24.715,55.200 L 24.429,55.186 L 24.145,55.144 L 23.866,55.074 L 23.596,54.978 L 23.337,54.855 L 23.090,54.707 L 22.860,54.536 L 22.647,54.343 L 22.454,54.130 L 22.284,53.900 L 22.135,53.654 L 22.012,53.394 L 21.916,53.124 L 21.847,52.846 L 21.805,52.562 L 21.790,52.275 L 21.805,51.989 L 21.847,51.705 L 21.916,51.426 L 22.012,51.156 L 22.135,50.897 L 22.284,50.650 L 22.454,50.420 L 22.647,50.207 L 22.860,50.014 L 23.090,49.844 L 23.337,49.695 L 23.596,49.573 L 23.866,49.476 L 24.145,49.407 L 24.429,49.364 L 24.715,49.350 L 25.002,49.364 L 25.285,49.407 L 25.564,49.476 L 25.834,49.573 L 26.094,49.695 L 26.340,49.844 L 26.570,50.014 L 26.783,50.207 L 26.976,50.420 L 27.148,50.650 L 27.295,50.897 L 27.418,51.156 L 27.514,51.426 L 27.583,51.705 L 27.626,51.989 L 27.640,52.275 Z" fill="none" stroke="#ff0000" stroke-width="0.1" fill-rule="evenodd"/>
<path d="M 339.715,196.546 L 360.283,189.130 L 369.634,185.176 L 375.251,182.023 L 380.867,177.846 L 385.962,172.779 L 390.260,167.163 L 394.534,159.677 L 398.348,150.322 L 401.022,140.968 L 403.235,129.746 L 404.864,116.656 L 405.615,103.565 L 405.390,92.342 L 403.955,81.117 L 402.022,73.631 L 399.579,67.377 L 395.836,60.586 L 392.093,55.401 L 385.104,47.432 L 370.498,32.474 L 362.171,25.011 L 356.556,21.014 L 350.939,17.993 L 343.452,15.289 L 306.057,7.108 L 296.699,6.000 L 287.338,6.766 L 279.851,8.712 L 272.366,11.494 L 243.102,24.986 L 232.270,32.471 L 223.733,41.718 L 219.981,47.446 L 216.246,54.965 L 213.586,62.417 L 211.400,71.771 L 210.424,79.256 L 210.043,88.610 L 210.508,97.962 L 211.831,107.316 L 214.093,116.671 L 216.697,124.154 L 220.097,131.637 L 224.285,139.120 L 231.614,150.340 L 242.384,165.298 L 249.908,174.278 L 255.523,179.639 L 261.139,183.766 L 268.628,187.673 L 302.286,199.059 L 313.515,201.332 L 324.248,200.844 L 339.715,196.546 Z M 322.477,101.864 L 322.492,102.151 L 322.477,102.438 L 322.436,102.722 L 322.366,103.000 L 322.270,103.271 L 322.147,103.530 L 321.999,103.776 L 321.828,104.007 L 321.635,104.219 L 321.423,104.412 L 321.193,104.583 L 320.946,104.730 L 320.686,104.853 L 320.416,104.950 L 320.138,105.020 L 319.854,105.062 L 319.567,105.076 L 319.281,105.062 L 318.997,105.020 L 318.718,104.950 L 318.448,104.853 L 318.189,104.730 L 317.942,104.583 L 317.712,104.412 L 317.499,104.219 L 317.306,104.007 L 317.136,103.776 L 316.987,103.530 L 316.865,103.271 L 316.768,103.000 L 316.699,102.722 L 316.656,102.438 L 316.642,102.151 L 316.656,101.864 L 316.699,101.580 L 316.768,101.302 L 316.865,101.031 L 316.987,100.772 L 317.136,100.526 L 317.306,100.295 L 317.499,100.082 L 317.712,99.889 L 317.942,99.719 L 318.189,99.572 L 318.448,99.449 L 318.718,99.352 L 318.997,99.282 L 319.280,99.240 L 319.567,99.226 L 319.854,99.240 L 320.138,99.282 L 320.416,99.352 L 320.686,99.449 L 320.946,99.572 L 321.193,99.719 L 321.423,99.889 L 321.635,100.082 L 321.828,100.295 L 321.999,100.526 L 322.147,100.772 L 322.270,101.031 L 322.366,101.302 L 322.436,101.580 L 322.477,101.864 Z M 275.628,177.785 L 275.643,178.071 L 275.628,178.358 L 275.587,178.643 L 275.516,178.921 L 275.420,179.191 L 275.297,179.451 L 275.150,179.697 L 274.979,179.928 L 274.786,180.140 L 274.574,180.332 L 274.342,180.504 L 274.097,180.651 L 273.838,180.774 L 273.566,180.871 L 273.289,180.941 L 273.005,180.983 L 272.718,180.996 L 272.430,180.983 L 272.147,180.941 L 271.869,180.871 L 271.598,180.774 L 271.339,180.651 L 271.093,180.504 L 270.862,180.332 L 270.649,180.140 L 270.456,179.928 L 270.286,179.697 L 270.138,179.451 L 270.016,179.191 L 269.919,178.921 L 269.849,178.643 L 269.807,178.358 L 269.793,178.071 L 269.807,177.785 L 269.849,177.501 L 269.919,177.223 L 270.016,176.952 L 270.138,176.693 L 270.286,176.447 L 270.456,176.216 L 270.649,176.003 L 270.862,175.810 L 271.093,175.640 L 271.339,175.493 L 271.598,175.370 L 271.869,175.273 L 272.147,175.203 L 272.431,175.161 L 272.718,175.146 L 273.005,175.161 L 273.289,175.203 L 273.566,175.273 L 273.838,175.370 L 274.097,175.493 L 274.343,175.640 L 274.574,175.810 L 274.786,176.003 L 274.979,176.216 L 275.150,176.447 L 275.297,176.693 L 275.420,176.952 L 275.516,177.223 L 275.587,177.501 L 275.628,177.785 Z M 228.793,56.598 L 228.779,56.885 L 228.737,57.169 L 228.667,57.448 L 228.571,57.718 L 228.448,57.977 L 228.301,58.224 L 228.129,58.454 L 227.936,58.666 L 227.724,58.859 L 227.493,59.030 L 227.247,59.178 L 226.987,59.301 L 226.717,59.397 L 226.439,59.467 L 226.155,59.510 L 225.868,59.523 L 225.582,59.510 L 225.298,59.467 L 225.019,59.397 L 224.749,59.301 L 224.490,59.178 L 224.243,59.030 L 224.013,58.859 L 223.800,58.666 L 223.607,58.454 L 223.437,58.224 L 223.288,57.977 L 223.166,57.718 L 223.069,57.448 L 223.000,57.169 L 222.958,56.885 L 222.943,56.598 L 222.958,56.312 L 223.000,56.028 L 223.069,55.749 L 223.166,55.479 L 223.288,55.220 L 223.437,54.973 L 223.607,54.743 L 223.800,54.530 L 224.013,54.337 L 224.243,54.167 L 224.490,54.019 L 224.749,53.896 L 225.019,53.799 L 225.298,53.730 L 225.582,53.687 L 225.868,53.673 L 226.155,53.687 L 226.439,53.730 L 226.717,53.799 L 226.987,53.896 L 227.247,54.019 L 227.493,54.167 L 227.724,54.337 L 227.936,54.530 L 228.129,54.743 L 228.301,54.973 L 228.448,55.220 L 228.571,55.479 L 228.667,55.749 L 228.737,56.028 L 228.779,56.312 L 228.793,56.598 Z" fill="none" stroke="#ff0000" stroke-width="0.1" fill-rule="evenodd"/>
<text x="106.78" y="102.99" font-size="6" fill="none" stroke="#0000ff" stroke-width="0.1" text-anchor="middle">2</text>
<text x="264.19" y="103.67" font-size="6" fill="none" stroke="#0000ff" stroke-width="0.1" text-anchor="middle">15</text>
</svg>
