<svg xmlns="http://www.w3.org/2000/svg" width="600.0mm" height="400.0mm" viewBox="0 0 600.0 400.0">
<title>SculptGen sheet 12/12 — 3mm plywood — kerf 0.15mm</title>
<rect x="0" y="0" width="600.0" height="400.0" fill="none" stroke="#cccccc" stroke-width="0.1"/>
<path d="M 135.121,195.500 L 155.687,188.252 L 170.649,181.982 L 176.267,178.524 L 181.883,173.863 L 185.628,169.778 L 189.492,164.371 L 193.437,156.884 L 196.845,147.529 L 199.122,138.175 L 200.905,126.954 L 202.251,111.994 L 202.636,98.904 L 202.180,87.682 L 200.568,76.456 L 198.726,69.600 L 196.287,63.355 L 193.111,57.382 L 188.153,50.255 L 180.144,40.904 L 169.300,29.684 L 162.986,24.071 L 155.699,18.962 L 150.081,16.124 L 142.594,13.623 L 107.067,7.070 L 95.840,6.000 L 84.608,7.322 L 69.643,12.370 L 39.093,25.933 L 28.498,32.936 L 22.883,38.165 L 18.950,42.778 L 15.117,48.393 L 11.280,55.880 L 8.624,63.366 L 6.947,70.851 L 6.090,78.337 L 6.000,87.691 L 6.837,97.044 L 8.498,106.397 L 9.780,111.635 L 11.664,115.761 L 17.302,118.469 L 26.650,121.124 L 32.245,123.545 L 36.727,126.998 L 41.204,132.594 L 45.084,140.059 L 48.400,149.397 L 55.604,181.179 L 56.452,183.072 L 58.832,184.962 L 60.289,185.375 L 62.157,186.880 L 67.796,188.744 L 77.152,186.970 L 80.868,187.265 L 84.580,188.968 L 89.484,194.304 L 94.153,196.182 L 103.306,198.414 L 114.536,199.561 L 126.225,198.053 L 135.121,195.500 Z M 119.752,95.335 L 119.767,95.622 L 119.752,95.909 L 119.710,96.193 L 119.641,96.471 L 119.545,96.742 L 119.422,97.001 L 119.274,97.247 L 119.103,97.478 L 118.910,97.690 L 118.697,97.883 L 118.467,98.054 L 118.221,98.201 L 117.961,98.324 L 117.691,98.421 L 117.412,98.491 L 117.129,98.533 L 116.842,98.547 L 116.555,98.533 L 116.272,98.491 L 115.993,98.421 L 115.723,98.324 L 115.463,98.201 L 115.217,98.054 L 114.987,97.883 L 114.774,97.690 L 114.581,97.478 L 114.410,97.247 L 114.262,97.001 L 114.139,96.742 L 114.043,96.471 L 113.974,96.193 L 113.931,95.909 L 113.917,95.622 L 113.931,95.335 L 113.974,95.051 L 114.043,94.773 L 114.139,94.502 L 114.262,94.243 L 114.410,93.997 L 114.581,93.766 L 114.774,93.554 L 114.987,93.360 L 115.217,93.190 L 115.463,93.043 L 115.723,92.920 L 115.993,92.823 L 116.272,92.753 L 116.555,92.711 L 116.842,92.698 L 117.129,92.711 L 117.412,92.753 L 117.691,92.823 L 117.961,92.920 L 118.221,93.043 L 118.467,93.190 L 118.697,93.360 L 118.910,93.554 L 119.103,93.766 L 119.274,93.997 L 119.422,94.243 L 119.545,94.502 L 119.641,94.773 L 119.710,95.051 L 119.752,95.335 Z M 72.903,171.256 L 72.918,171.542 L 72.903,171.829 L 72.861,172.114 L 72.791,172.392 L 72.695,172.662 L 72.572,172.922 L 72.425,173.168 L 72.254,173.399 L 72.061,173.611 L 71.848,173.803 L 71.617,173.975 L 71.372,174.122 L 71.112,174.245 L 70.841,174.342 L 70.563,174.412 L 70.280,174.454 L 69.993,174.467 L 69.705,174.454 L 69.422,174.412 L 69.144,174.342 L 68.873,174.245 L 68.613,174.122 L 68.368,173.975 L 68.137,173.803 L 67.924,173.611 L 67.731,173.399 L 67.561,173.168 L 67.413,172.922 L 67.290,172.662 L 67.194,172.392 L 67.124,172.114 L 67.082,171.829 L 67.068,171.542 L 67.082,171.256 L 67.124,170.972 L 67.194,170.694 L 67.290,170.423 L 67.413,170.164 L 67.561,169.918 L 67.731,169.687 L 67.924,169.475 L 68.137,169.281 L 68.368,169.111 L 68.613,168.964 L 68.873,168.841 L 69.144,168.744 L 69.422,168.674 L 69.705,168.632 L 69.993,168.618 L 70.280,168.632 L 70.563,168.674 L 70.841,168.744 L 71.112,168.841 L 71.372,168.964 L 71.617,169.111 L 71.848,169.281 L 72.061,169.475 L 72.254,169.687 L 72.425,169.918 L 72.572,170.164 L 72.695,170.423 L 72.791,170.694 L 72.861,170.972 L 72.903,171.256 Z M 26.068,50.069 L 26.054,50.356 L 26.011,50.640 L 25.942,50.919 L 25.846,51.189 L 25.723,51.448 L 25.576,51.695 L 25.404,51.925 L 25.211,52.137 L 24.998,52.330 L 24.768,52.501 L 24.522,52.649 L 24.262,52.772 L 23.992,52.869 L 23.713,52.938 L 23.430,52.981 L 23.143,52.994 L 22.856,52.981 L 22.573,52.938 L 22.294,52.869 L 22.024,52.772 L 21.764,52.649 L 21.518,52.501 L 21.288,52.330 L 21.075,52.137 L 20.882,51.925 L 20.711,51.695 L 20.563,51.448 L 20.440,51.189 L 20.344,50.919 L 20.275,50.640 L 20.233,50.356 L 20.218,50.069 L 20.233,49.783 L 20.275,49.499 L 20.344,49.220 L 20.440,48.950 L 20.563,48.691 L 20.711,48.444 L 20.882,48.214 L 21.075,48.002 L 21.288,47.808 L 21.518,47.638 L 21.764,47.490 L 22.024,47.367 L 22.294,47.270 L 22.573,47.201 L 22.856,47.158 L 23.143,47.145 L 23.430,47.158 L 23.713,47.201 L 23.992,47.270 L 24.262,47.367 L 24.522,47.490 L 24.768,47.638 L 24.998,47.808 L 25.211,48.002 L 25.404,48.214 L 25.576,48.444 L 25.723,48.691 L 25.846,48.950 L 25.942,49.220 L 26.011,49.499 L 26.054,49.783 L 26.068,50.069 Z" fill="none" stroke="#ff0000" stroke-width="0.1" fill-rule="evenodd"/>
<path d="M 325.022,195.837 L 334.374,192.829 L 354.941,185.153 L 364.293,181.004 L 369.910,177.691 L 375.525,173.295 L 379.527,169.210 L 383.805,163.594 L 388.054,156.107 L 391.168,148.623 L 393.970,139.269 L 396.231,128.046 L 397.802,114.956 L 398.387,101.864 L 397.943,90.641 L 396.610,81.286 L 394.656,73.800 L 392.367,67.891 L 388.624,60.961 L 384.881,55.623 L 376.451,45.733 L 364.131,32.644 L 356.829,25.849 L 351.214,21.624 L 345.597,18.415 L 338.110,15.532 L 302.584,7.569 L 291.357,6.000 L 281.995,6.717 L 274.507,8.668 L 267.023,11.502 L 238.976,24.881 L 233.361,28.358 L 227.826,32.642 L 220.260,40.783 L 216.515,46.375 L 212.772,53.804 L 209.713,62.587 L 208.020,70.071 L 207.022,77.556 L 206.636,86.910 L 207.118,96.263 L 208.490,105.617 L 210.837,114.971 L 213.531,122.456 L 221.200,137.420 L 237.683,161.727 L 244.565,170.064 L 250.179,175.553 L 255.796,179.785 L 263.284,183.796 L 295.071,194.751 L 302.555,196.799 L 308.174,197.648 L 318.299,197.275 L 325.022,195.837 Z M 317.134,100.164 L 317.149,100.451 L 317.134,100.738 L 317.092,101.022 L 317.023,101.300 L 316.927,101.571 L 316.804,101.830 L 316.656,102.076 L 316.485,102.307 L 316.292,102.519 L 316.079,102.712 L 315.849,102.883 L 315.603,103.030 L 315.343,103.153 L 315.073,103.250 L 314.794,103.320 L 314.511,103.362 L 314.224,103.376 L 313.938,103.362 L 313.654,103.320 L 313.375,103.250 L 313.105,103.153 L 312.846,103.030 L 312.599,102.883 L 312.369,102.712 L 312.156,102.519 L 311.963,102.307 L 311.793,102.076 L 311.644,101.830 L 311.522,101.571 L 311.425,101.300 L 311.356,101.022 L 311.313,100.738 L 311.299,100.451 L 311.313,100.164 L 311.356,99.880 L 311.425,99.602 L 311.522,99.331 L 311.644,99.072 L 311.793,98.826 L 311.963,98.595 L 312.156,98.382 L 312.369,98.189 L 312.599,98.019 L 312.846,97.872 L 313.105,97.749 L 313.375,97.652 L 313.654,97.582 L 313.937,97.540 L 314.224,97.526 L 314.511,97.540 L 314.794,97.582 L 315.073,97.652 L 315.343,97.749 L 315.603,97.872 L 315.849,98.019 L 316.079,98.189 L 316.292,98.382 L 316.485,98.595 L 316.656,98.826 L 316.804,99.072 L 316.927,99.331 L 317.023,99.602 L 317.092,99.880 L 317.134,100.164 Z M 270.285,176.085 L 270.300,176.371 L 270.285,176.658 L 270.244,176.943 L 270.173,177.221 L 270.077,177.491 L 269.954,177.751 L 269.807,177.997 L 269.636,178.228 L 269.443,178.440 L 269.231,178.632 L 268.999,178.804 L 268.754,178.951 L 268.494,179.074 L 268.223,179.171 L 267.945,179.241 L 267.662,179.283 L 267.375,179.296 L 267.087,179.283 L 266.804,179.241 L 266.526,179.171 L 266.255,179.074 L 265.996,178.951 L 265.750,178.804 L 265.519,178.632 L 265.306,178.440 L 265.113,178.228 L 264.943,177.997 L 264.795,177.751 L 264.673,177.491 L 264.576,177.221 L 264.506,176.943 L 264.464,176.658 L 264.450,176.371 L 264.464,176.085 L 264.506,175.801 L 264.576,175.523 L 264.673,175.252 L 264.795,174.993 L 264.943,174.747 L 265.113,174.516 L 265.306,174.303 L 265.519,174.110 L 265.750,173.940 L 265.996,173.793 L 266.255,173.670 L 266.526,173.573 L 266.804,173.503 L 267.088,173.461 L 267.375,173.446 L 267.662,173.461 L 267.945,173.503 L 268.223,173.573 L 268.494,173.670 L 268.754,173.793 L 269.000,173.940 L 269.231,174.110 L 269.443,174.303 L 269.636,174.516 L 269.807,174.747 L 269.954,174.993 L 270.077,175.252 L 270.173,175.523 L 270.244,175.801 L 270.285,176.085 Z M 223.450,54.898 L 223.436,55.185 L 223.394,55.469 L 223.324,55.748 L 223.228,56.018 L 223.105,56.277 L 222.958,56.524 L 222.786,56.754 L 222.593,56.966 L 222.380,57.159 L 222.150,57.330 L 221.904,57.478 L 221.644,57.601 L 221.374,57.698 L 221.095,57.767 L 220.812,57.810 L 220.525,57.823 L 220.239,57.810 L 219.955,57.767 L 219.676,57.698 L 219.406,57.601 L 219.147,57.478 L 218.900,57.330 L 218.670,57.159 L 218.457,56.966 L 218.264,56.754 L 218.094,56.524 L 217.945,56.277 L 217.823,56.018 L 217.726,55.748 L 217.657,55.469 L 217.615,55.185 L 217.600,54.898 L 217.615,54.612 L 217.657,54.328 L 217.726,54.049 L 217.823,53.779 L 217.945,53.520 L 218.094,53.273 L 218.264,53.043 L 218.457,52.830 L 218.670,52.637 L 218.900,52.467 L 219.147,52.319 L 219.406,52.196 L 219.676,52.099 L 219.955,52.030 L 220.239,51.987 L 220.525,51.973 L 220.812,51.987 L 221.095,52.030 L 221.374,52.099 L 221.644,52.196 L 221.904,52.319 L 222.150,52.467 L 222.380,52.637 L 222.593,52.830 L 222.786,53.043 L 222.958,53.273 L 223.105,53.520 L 223.228,53.779 L 223.324,54.049 L 223.394,54.328 L 223.436,54.612 L 223.450,54.898 Z" fill="none" stroke="#ff0000" stroke-width="0.1" fill-rule="evenodd"/>
<path d="M 566.179,117.154 L 567.777,111.884 L 569.027,106.521 L 569.924,101.087 L 570.465,95.607 L 570.594,91.628 L 532.876,91.628 L 532.876,88.578 L 570.594,88.578 L 570.465,84.600 L 569.924,79.120 L 569.027,73.686 L 567.777,68.323 L 566.179,63.053 L 564.777,59.328 L 529.928,73.761 L 528.761,70.944 L 563.609,56.509 L 561.966,52.883 L 559.370,48.027 L 556.462,43.350 L 553.254,38.874 L 549.761,34.617 L 547.039,31.712 L 520.368,58.382 L 518.212,56.226 L 544.883,29.555 L 541.977,26.833 L 537.720,23.340 L 533.244,20.132 L 528.567,17.224 L 523.711,14.628 L 520.085,12.985 L 505.650,47.833 L 502.833,46.666 L 517.267,11.818 L 513.541,10.415 L 508.271,8.817 L 502.908,7.567 L 497.475,6.670 L 491.995,6.130 L 488.016,6.000 L 488.016,43.718 L 484.966,43.718 L 484.966,6.000 L 480.987,6.130 L 475.507,6.670 L 470.073,7.567 L 464.710,8.817 L 459.441,10.415 L 455.715,11.818 L 470.149,46.666 L 467.331,47.833 L 452.896,12.985 L 449.271,14.628 L 444.414,17.224 L 439.737,20.132 L 435.261,23.340 L 431.004,26.833 L 428.099,29.555 L 454.770,56.226 L 452.614,58.382 L 425.942,31.712 L 423.220,34.617 L 419.727,38.874 L 416.519,43.350 L 413.612,48.027 L 411.015,52.883 L 409.372,56.509 L 444.221,70.944 L 443.053,73.761 L 408.205,59.328 L 406.803,63.053 L 405.204,68.323 L 403.954,73.686 L 403.057,79.120 L 402.517,84.600 L 402.387,88.578 L 440.106,88.578 L 440.106,91.628 L 402.387,91.628 L 402.517,95.607 L 403.057,101.087 L 403.954,106.521 L 405.204,111.884 L 406.803,117.154 L 408.205,120.879 L 443.053,106.445 L 444.221,109.263 L 409.372,123.698 L 411.015,127.324 L 413.612,132.180 L 416.519,136.857 L 419.727,141.333 L 423.220,145.590 L 425.942,148.495 L 452.614,121.825 L 454.770,123.980 L 428.099,150.652 L 431.004,153.374 L 435.261,156.867 L 439.737,160.075 L 444.414,162.982 L 449.271,165.579 L 452.896,167.222 L 467.331,132.373 L 470.149,133.541 L 455.715,168.389 L 459.441,169.792 L 464.710,171.390 L 470.073,172.640 L 475.507,173.537 L 480.987,174.077 L 484.966,174.207 L 484.966,136.488 L 488.016,136.488 L 488.016,174.207 L 491.995,174.077 L 497.475,173.537 L 502.908,172.640 L 508.271,171.390 L 513.541,169.792 L 517.267,168.389 L 502.833,133.541 L 505.650,132.373 L 520.085,167.222 L 523.711,165.579 L 528.567,162.982 L 533.244,160.075 L 537.720,156.867 L 541.977,153.374 L 544.883,150.652 L 518.212,123.980 L 520.368,121.825 L 547.039,148.495 L 549.761,145.590 L 553.254,141.333 L 556.462,136.857 L 559.370,132.180 L 561.966,127.324 L 563.609,123.698 L 528.761,109.263 L 529.928,106.445 L 564.777,120.879 L 566.179,117.154 Z" fill="none" stroke="#ff0000" stroke-width="0.1" fill-rule="evenodd"/>
<path d="M 89.487,260.210 L 90.301,257.523 L 90.939,254.788 L 91.396,252.018 L 91.671,249.223 L 91.713,247.942 L 74.617,247.942 L 74.617,244.892 L 91.713,244.892 L 91.671,243.611 L 91.396,240.817 L 90.939,238.047 L 90.301,235.312 L 89.487,232.625 L 89.034,231.425 L 73.240,237.967 L 72.073,235.150 L 87.868,228.608 L 87.339,227.440 L 86.014,224.964 L 84.532,222.580 L 82.897,220.298 L 81.116,218.127 L 80.239,217.192 L 68.150,229.279 L 65.995,227.123 L 78.082,215.035 L 77.147,214.158 L 74.976,212.377 L 72.694,210.742 L 70.310,209.259 L 67.834,207.935 L 66.666,207.406 L 60.124,223.200 L 57.306,222.034 L 63.848,206.240 L 62.649,205.787 L 59.962,204.973 L 57.227,204.335 L 54.457,203.878 L 51.662,203.603 L 50.381,203.561 L 50.381,220.656 L 47.331,220.656 L 47.331,203.561 L 46.051,203.603 L 43.256,203.878 L 40.486,204.335 L 37.751,204.973 L 35.064,205.787 L 33.865,206.240 L 40.406,222.034 L 37.589,223.200 L 31.047,207.406 L 29.879,207.935 L 27.403,209.259 L 25.019,210.742 L 22.737,212.377 L 20.566,214.158 L 19.631,215.035 L 31.718,227.123 L 29.562,229.279 L 17.474,217.192 L 16.597,218.127 L 14.816,220.298 L 13.181,222.580 L 11.698,224.964 L 10.374,227.440 L 9.845,228.608 L 25.639,235.150 L 24.473,237.967 L 8.679,231.425 L 8.226,232.625 L 7.412,235.312 L 6.774,238.047 L 6.317,240.817 L 6.042,243.611 L 6.000,244.892 L 23.095,244.892 L 23.095,247.942 L 6.000,247.942 L 6.042,249.223 L 6.317,252.018 L 6.774,254.788 L 7.412,257.523 L 8.226,260.210 L 8.679,261.409 L 24.473,254.867 L 25.639,257.685 L 9.845,264.227 L 10.374,265.395 L 11.698,267.871 L 13.181,270.255 L 14.816,272.537 L 16.597,274.708 L 17.474,275.643 L 29.562,263.555 L 31.718,265.711 L 19.631,277.800 L 20.566,278.677 L 22.737,280.458 L 25.019,282.093 L 27.403,283.575 L 29.879,284.900 L 31.047,285.429 L 37.589,269.634 L 40.406,270.801 L 33.865,286.595 L 35.064,287.047 L 37.751,287.862 L 40.486,288.500 L 43.256,288.957 L 46.051,289.232 L 47.331,289.274 L 47.331,272.178 L 50.381,272.178 L 50.381,289.274 L 51.662,289.232 L 54.457,288.957 L 57.227,288.500 L 59.962,287.862 L 62.649,287.047 L 63.848,286.595 L 57.306,270.801 L 60.124,269.634 L 66.666,285.429 L 67.834,284.900 L 70.310,283.575 L 72.694,282.093 L 74.976,280.458 L 77.147,278.677 L 78.082,277.800 L 65.995,265.711 L 68.150,263.555 L 80.239,275.643 L 81.116,274.708 L 82.897,272.537 L 84.532,270.255 L 86.014,267.871 L 87.339,265.395 L 87.868,264.227 L 72.073,257.685 L 73.240,254.867 L 89.034,261.409 L 89.487,260.210 Z" fill="none" stroke="#ff0000" stroke-width="0.1" fill-rule="evenodd"/>
<path d="M 174.752,257.191 L 175.524,254.647 L 176.127,252.058 L 176.560,249.435 L 176.820,246.790 L 176.858,245.658 L 160.904,245.658 L 160.904,242.608 L 176.858,242.608 L 176.820,241.477 L 176.560,238.832 L 176.127,236.209 L 175.524,233.620 L 174.752,231.076 L 174.353,230.016 L 159.614,236.121 L 158.446,233.303 L 173.186,227.198 L 172.719,226.166 L 171.465,223.822 L 170.062,221.565 L 168.513,219.404 L 166.827,217.349 L 166.052,216.523 L 154.772,227.803 L 152.616,225.646 L 163.896,214.367 L 163.070,213.592 L 161.015,211.906 L 158.854,210.357 L 156.597,208.953 L 154.253,207.700 L 153.221,207.233 L 147.116,221.972 L 144.297,220.805 L 150.402,206.066 L 149.343,205.667 L 146.799,204.895 L 144.210,204.292 L 141.587,203.859 L 138.942,203.599 L 137.810,203.561 L 137.810,219.514 L 134.760,219.514 L 134.760,203.561 L 133.629,203.599 L 130.984,203.859 L 128.361,204.292 L 125.772,204.895 L 123.228,205.667 L 122.169,206.066 L 128.273,220.805 L 125.455,221.972 L 119.350,207.233 L 118.318,207.700 L 115.974,208.953 L 113.717,210.357 L 111.556,211.906 L 109.501,213.592 L 108.675,214.367 L 119.955,225.646 L 117.798,227.803 L 106.519,216.523 L 105.744,217.349 L 104.058,219.404 L 102.509,221.565 L 101.106,223.822 L 99.852,226.166 L 99.385,227.198 L 114.124,233.303 L 112.957,236.121 L 98.218,230.016 L 97.819,231.076 L 97.047,233.620 L 96.444,236.209 L 96.011,238.832 L 95.751,241.477 L 95.713,242.608 L 111.666,242.608 L 111.666,245.658 L 95.713,245.658 L 95.751,246.790 L 96.011,249.435 L 96.444,252.058 L 97.047,254.647 L 97.819,257.191 L 98.218,258.250 L 112.957,252.145 L 114.124,254.964 L 99.385,261.069 L 99.852,262.101 L 101.106,264.445 L 102.509,266.702 L 104.058,268.863 L 105.744,270.918 L 106.519,271.744 L 117.798,260.464 L 119.955,262.620 L 108.675,273.900 L 109.501,274.675 L 111.556,276.361 L 113.717,277.910 L 115.974,279.313 L 118.318,280.567 L 119.350,281.034 L 125.455,266.294 L 128.273,267.462 L 122.169,282.201 L 123.228,282.600 L 125.772,283.372 L 128.361,283.975 L 130.984,284.408 L 133.629,284.668 L 134.760,284.706 L 134.760,268.752 L 137.810,268.752 L 137.810,284.706 L 138.942,284.668 L 141.587,284.408 L 144.210,283.975 L 146.799,283.372 L 149.343,282.600 L 150.402,282.201 L 144.297,267.462 L 147.116,266.294 L 153.221,281.034 L 154.253,280.567 L 156.597,279.313 L 158.854,277.910 L 161.015,276.361 L 163.070,274.675 L 163.896,273.900 L 152.616,262.620 L 154.772,260.464 L 166.052,271.744 L 166.827,270.918 L 168.513,268.863 L 170.062,266.702 L 171.465,264.445 L 172.719,262.101 L 173.186,261.069 L 158.446,254.964 L 159.614,252.145 L 174.353,258.250 L 174.752,257.191 Z" fill="none" stroke="#ff0000" stroke-width="0.1" fill-rule="evenodd"/>
<text x="105.18" y="102.65" font-size="6" fill="none" stroke="#0000ff" stroke-width="0.1" text-anchor="middle">1</text>
<text x="259.75" y="101.70" font-size="6" fill="none" stroke="#0000ff" stroke-width="0.1" text-anchor="middle">16</text>
<text x="486.49" y="90.10" font-size="6" fill="none" stroke="#0000ff" stroke-width="0.1" text-anchor="middle">34</text>
<text x="48.86" y="246.42" font-size="6" fill="none" stroke="#0000ff" stroke-width="0.1" text-anchor="middle">33</text>
<text x="136.29" y="244.13" font-size="6" fill="none" stroke="#0000ff" stroke-width="0.1" text-anchor="middle">35</text>
</svg>
