<svg xmlns="http://www.w3.org/2000/svg" width="600.0mm" height="400.0mm" viewBox="0 0 600.0 400.0">
<title>SculptGen sheet 8/12 — 3mm plywood — kerf 0.15mm</title>
<rect x="0" y="0" width="600.0" height="400.0" fill="none" stroke="#cccccc" stroke-width="0.1"/>
<path d="M 137.862,206.899 L 164.857,198.131 L 177.132,193.063 L 182.749,189.647 L 188.365,185.104 L 193.620,179.414 L 197.586,173.798 L 201.580,166.312 L 205.139,156.957 L 207.624,147.604 L 210.010,134.514 L 212.029,117.685 L 213.081,100.856 L 212.899,89.633 L 211.501,78.407 L 209.590,70.921 L 207.075,64.464 L 203.384,57.818 L 199.170,52.203 L 192.022,44.720 L 175.615,29.762 L 168.756,24.150 L 162.181,19.721 L 154.692,16.104 L 147.206,13.835 L 111.681,7.208 L 100.455,6.000 L 91.094,6.809 L 76.128,11.202 L 44.192,24.142 L 38.726,27.147 L 32.312,31.629 L 27.497,35.849 L 21.884,42.001 L 17.235,48.472 L 13.084,55.957 L 10.035,63.443 L 7.535,72.799 L 6.258,82.154 L 6.000,91.509 L 6.599,100.862 L 7.966,110.214 L 10.592,121.437 L 13.709,130.790 L 17.846,140.144 L 21.878,147.417 L 29.452,158.846 L 41.861,175.674 L 49.772,185.026 L 55.543,190.488 L 63.030,195.644 L 70.519,199.020 L 104.175,208.520 L 111.660,210.019 L 117.279,210.466 L 128.591,209.350 L 137.862,206.899 Z M 124.365,102.893 L 124.380,103.180 L 124.365,103.467 L 124.323,103.751 L 124.254,104.029 L 124.158,104.300 L 124.035,104.559 L 123.887,104.805 L 123.716,105.036 L 123.523,105.248 L 123.310,105.441 L 123.080,105.612 L 122.834,105.759 L 122.574,105.882 L 122.304,105.979 L 122.025,106.049 L 121.742,106.091 L 121.455,106.105 L 121.168,106.091 L 120.885,106.049 L 120.606,105.979 L 120.336,105.882 L 120.076,105.759 L 119.830,105.612 L 119.600,105.441 L 119.387,105.248 L 119.194,105.036 L 119.023,104.805 L 118.875,104.559 L 118.752,104.300 L 118.656,104.029 L 118.587,103.751 L 118.544,103.467 L 118.530,103.180 L 118.544,102.893 L 118.587,102.609 L 118.656,102.331 L 118.752,102.060 L 118.875,101.801 L 119.023,101.555 L 119.194,101.324 L 119.387,101.111 L 119.600,100.918 L 119.830,100.748 L 120.076,100.601 L 120.336,100.478 L 120.606,100.381 L 120.885,100.311 L 121.168,100.269 L 121.455,100.255 L 121.742,100.269 L 122.025,100.311 L 122.304,100.381 L 122.574,100.478 L 122.834,100.601 L 123.080,100.748 L 123.310,100.918 L 123.523,101.111 L 123.716,101.324 L 123.887,101.555 L 124.035,101.801 L 124.158,102.060 L 124.254,102.331 L 124.323,102.609 L 124.365,102.893 Z M 77.516,178.814 L 77.531,179.100 L 77.516,179.387 L 77.474,179.672 L 77.404,179.949 L 77.308,180.220 L 77.185,180.480 L 77.038,180.726 L 76.867,180.957 L 76.674,181.169 L 76.461,181.361 L 76.230,181.533 L 75.985,181.680 L 75.725,181.803 L 75.454,181.900 L 75.176,181.970 L 74.893,182.012 L 74.606,182.025 L 74.318,182.012 L 74.035,181.970 L 73.757,181.900 L 73.486,181.803 L 73.226,181.680 L 72.981,181.533 L 72.750,181.361 L 72.537,181.169 L 72.344,180.957 L 72.174,180.726 L 72.026,180.480 L 71.903,180.220 L 71.807,179.949 L 71.737,179.672 L 71.695,179.387 L 71.681,179.100 L 71.695,178.814 L 71.737,178.530 L 71.807,178.252 L 71.903,177.981 L 72.026,177.722 L 72.174,177.476 L 72.344,177.245 L 72.537,177.032 L 72.750,176.839 L 72.981,176.669 L 73.226,176.522 L 73.486,176.399 L 73.757,176.302 L 74.035,176.232 L 74.318,176.190 L 74.606,176.175 L 74.893,176.190 L 75.176,176.232 L 75.454,176.302 L 75.725,176.399 L 75.985,176.522 L 76.230,176.669 L 76.461,176.839 L 76.674,177.032 L 76.867,177.245 L 77.038,177.476 L 77.185,177.722 L 77.308,177.981 L 77.404,178.252 L 77.474,178.530 L 77.516,178.814 Z M 30.681,57.627 L 30.667,57.914 L 30.624,58.198 L 30.555,58.477 L 30.459,58.747 L 30.336,59.006 L 30.189,59.253 L 30.017,59.483 L 29.824,59.695 L 29.611,59.888 L 29.381,60.059 L 29.135,60.207 L 28.875,60.330 L 28.605,60.426 L 28.326,60.496 L 28.043,60.539 L 27.756,60.552 L 27.469,60.539 L 27.186,60.496 L 26.907,60.426 L 26.637,60.330 L 26.378,60.207 L 26.131,60.059 L 25.901,59.888 L 25.688,59.695 L 25.495,59.483 L 25.324,59.253 L 25.176,59.006 L 25.053,58.747 L 24.957,58.477 L 24.888,58.198 L 24.846,57.914 L 24.831,57.627 L 24.846,57.341 L 24.888,57.057 L 24.957,56.778 L 25.053,56.508 L 25.176,56.249 L 25.324,56.002 L 25.495,55.772 L 25.688,55.559 L 25.901,55.366 L 26.131,55.196 L 26.378,55.048 L 26.637,54.925 L 26.907,54.828 L 27.186,54.759 L 27.469,54.716 L 27.756,54.702 L 28.043,54.716 L 28.326,54.759 L 28.605,54.828 L 28.875,54.925 L 29.135,55.048 L 29.381,55.196 L 29.611,55.366 L 29.824,55.559 L 30.017,55.772 L 30.189,56.002 L 30.336,56.249 L 30.459,56.508 L 30.555,56.778 L 30.624,57.057 L 30.667,57.341 L 30.681,57.627 Z" fill="none" stroke="#ff0000" stroke-width="0.1" fill-rule="evenodd"/>
<path d="M 373.545,197.412 L 384.769,192.724 L 390.386,189.355 L 396.002,184.868 L 401.618,178.834 L 406.036,172.491 L 409.961,165.006 L 413.518,155.651 L 416.489,144.429 L 418.866,131.339 L 420.697,116.379 L 421.604,101.419 L 421.331,90.195 L 419.738,78.970 L 417.615,71.484 L 415.270,65.867 L 412.092,60.251 L 407.914,54.636 L 400.812,47.153 L 382.916,30.567 L 375.885,24.714 L 369.819,20.582 L 364.202,17.686 L 356.715,15.082 L 317.450,6.898 L 306.221,6.000 L 296.859,7.264 L 281.895,12.196 L 261.328,20.568 L 251.976,25.046 L 246.360,28.524 L 240.745,32.948 L 235.869,37.809 L 231.388,43.347 L 226.628,50.909 L 223.084,58.394 L 220.488,65.880 L 218.359,75.234 L 217.276,84.588 L 217.081,93.942 L 217.902,105.165 L 219.461,114.519 L 221.896,123.872 L 224.606,131.356 L 228.112,138.839 L 232.470,146.323 L 241.581,159.411 L 253.823,175.567 L 260.969,183.722 L 266.919,189.137 L 272.536,193.008 L 280.024,196.647 L 315.551,208.001 L 323.038,209.442 L 328.659,209.725 L 340.577,208.044 L 373.545,197.412 Z M 333.872,105.326 L 333.887,105.613 L 333.872,105.900 L 333.831,106.184 L 333.761,106.462 L 333.665,106.733 L 333.542,106.992 L 333.394,107.238 L 333.223,107.469 L 333.030,107.681 L 332.817,107.874 L 332.588,108.045 L 332.341,108.192 L 332.081,108.315 L 331.811,108.412 L 331.532,108.482 L 331.249,108.524 L 330.962,108.538 L 330.676,108.524 L 330.392,108.482 L 330.113,108.412 L 329.843,108.315 L 329.584,108.192 L 329.337,108.045 L 329.107,107.874 L 328.894,107.681 L 328.701,107.469 L 328.531,107.238 L 328.382,106.992 L 328.260,106.733 L 328.163,106.462 L 328.094,106.184 L 328.051,105.900 L 328.037,105.613 L 328.051,105.326 L 328.094,105.042 L 328.163,104.764 L 328.260,104.493 L 328.382,104.234 L 328.531,103.988 L 328.701,103.757 L 328.894,103.544 L 329.107,103.351 L 329.337,103.181 L 329.584,103.034 L 329.843,102.911 L 330.113,102.814 L 330.392,102.744 L 330.675,102.702 L 330.962,102.688 L 331.249,102.702 L 331.532,102.744 L 331.811,102.814 L 332.081,102.911 L 332.341,103.034 L 332.588,103.181 L 332.817,103.351 L 333.030,103.544 L 333.223,103.757 L 333.394,103.988 L 333.542,104.234 L 333.665,104.493 L 333.761,104.764 L 333.831,105.042 L 333.872,105.326 Z M 287.023,181.247 L 287.038,181.533 L 287.023,181.820 L 286.982,182.105 L 286.911,182.383 L 286.815,182.653 L 286.692,182.913 L 286.545,183.159 L 286.374,183.390 L 286.181,183.602 L 285.969,183.794 L 285.737,183.966 L 285.492,184.113 L 285.232,184.236 L 284.961,184.333 L 284.683,184.403 L 284.400,184.445 L 284.113,184.458 L 283.825,184.445 L 283.542,184.403 L 283.264,184.333 L 282.993,184.236 L 282.734,184.113 L 282.488,183.966 L 282.257,183.794 L 282.044,183.602 L 281.851,183.390 L 281.681,183.159 L 281.533,182.913 L 281.411,182.653 L 281.314,182.383 L 281.244,182.105 L 281.202,181.820 L 281.188,181.533 L 281.202,181.247 L 281.244,180.963 L 281.314,180.685 L 281.411,180.414 L 281.533,180.155 L 281.681,179.909 L 281.851,179.678 L 282.044,179.465 L 282.257,179.272 L 282.488,179.102 L 282.734,178.955 L 282.993,178.832 L 283.264,178.735 L 283.542,178.665 L 283.826,178.623 L 284.113,178.609 L 284.400,178.623 L 284.683,178.665 L 284.961,178.735 L 285.232,178.832 L 285.492,178.955 L 285.738,179.102 L 285.969,179.272 L 286.181,179.465 L 286.374,179.678 L 286.545,179.909 L 286.692,180.155 L 286.815,180.414 L 286.911,180.685 L 286.982,180.963 L 287.023,181.247 Z M 240.188,60.060 L 240.174,60.347 L 240.132,60.631 L 240.062,60.910 L 239.966,61.180 L 239.843,61.439 L 239.696,61.686 L 239.524,61.916 L 239.331,62.128 L 239.118,62.321 L 238.888,62.492 L 238.642,62.640 L 238.382,62.763 L 238.112,62.860 L 237.833,62.929 L 237.550,62.972 L 237.263,62.985 L 236.977,62.972 L 236.693,62.929 L 236.414,62.860 L 236.144,62.763 L 235.885,62.640 L 235.638,62.492 L 235.408,62.321 L 235.195,62.128 L 235.002,61.916 L 234.832,61.686 L 234.683,61.439 L 234.561,61.180 L 234.464,60.910 L 234.395,60.631 L 234.353,60.347 L 234.338,60.060 L 234.353,59.774 L 234.395,59.490 L 234.464,59.211 L 234.561,58.941 L 234.683,58.682 L 234.832,58.435 L 235.002,58.205 L 235.195,57.992 L 235.408,57.799 L 235.638,57.629 L 235.885,57.481 L 236.144,57.358 L 236.414,57.261 L 236.693,57.192 L 236.977,57.149 L 237.263,57.135 L 237.550,57.149 L 237.833,57.192 L 238.112,57.261 L 238.382,57.358 L 238.642,57.481 L 238.888,57.629 L 239.118,57.799 L 239.331,57.992 L 239.524,58.205 L 239.696,58.435 L 239.843,58.682 L 239.966,58.941 L 240.062,59.211 L 240.132,59.490 L 240.174,59.774 L 240.188,60.060 Z" fill="none" stroke="#ff0000" stroke-width="0.1" fill-rule="evenodd"/>
<text x="110.15" y="108.16" font-size="6" fill="none" stroke="#0000ff" stroke-width="0.1" text-anchor="middle">5</text>
<text x="273.67" y="107.78" font-size="6" fill="none" stroke="#0000ff" stroke-width="0.1" text-anchor="middle">12</text>
</svg>
