<svg xmlns="http://www.w3.org/2000/svg" width="600.0mm" height="400.0mm" viewBox="0 0 600.0 400.0">
<title>SculptGen sheet 1/12 — 3mm plywood — kerf 0.15mm</title>
<rect x="0" y="0" width="600.0" height="400.0" fill="none" stroke="#cccccc" stroke-width="0.1"/>
<path d="M 54.214,243.317 L 55.139,236.527 L 58.557,228.597 L 63.119,221.796 L 69.756,213.855 L 98.543,184.342 L 109.262,171.851 L 113.910,165.033 L 116.971,159.349 L 119.586,152.529 L 120.857,146.843 L 121.290,140.019 L 120.320,132.059 L 117.822,124.101 L 113.878,116.146 L 109.421,109.328 L 103.080,101.376 L 81.137,78.673 L 75.242,71.868 L 70.157,63.935 L 67.608,56.007 L 67.386,51.484 L 68.047,46.957 L 69.544,42.428 L 71.798,37.897 L 78.137,28.824 L 97.084,6.000 L 6.000,6.000 L 6.000,59.990 L 23.145,59.990 L 23.145,63.040 L 6.000,63.040 L 6.000,143.150 L 43.769,143.150 L 43.769,146.200 L 6.000,146.200 L 6.000,218.750 L 22.003,218.750 L 22.003,221.800 L 6.000,221.800 L 6.000,251.805 L 16.745,252.704 L 45.147,258.150 L 58.679,258.150 L 55.240,250.108 L 54.214,243.317 Z" fill="none" stroke="#ff0000" stroke-width="0.1" fill-rule="evenodd"/>
<path d="M 172.227,243.318 L 173.161,236.527 L 176.399,228.595 L 180.665,221.794 L 187.822,212.719 L 217.325,180.935 L 227.637,168.444 L 232.148,161.627 L 235.110,155.944 L 237.255,150.259 L 238.526,144.571 L 238.845,137.747 L 237.803,130.922 L 235.878,125.234 L 232.307,118.412 L 223.540,107.052 L 201.990,85.483 L 193.952,76.407 L 188.028,67.336 L 186.085,62.808 L 184.896,58.278 L 184.489,53.751 L 185.074,48.090 L 186.825,42.427 L 189.640,36.763 L 196.877,26.553 L 214.672,6.000 L 125.290,6.000 L 125.290,59.990 L 142.435,59.990 L 142.435,63.040 L 125.290,63.040 L 125.290,143.150 L 163.059,143.150 L 163.059,146.200 L 125.290,146.200 L 125.290,218.750 L 141.293,218.750 L 141.293,221.800 L 125.290,221.800 L 125.290,252.009 L 132.643,252.803 L 166.323,258.150 L 176.438,258.150 L 173.131,250.109 L 172.227,243.318 Z" fill="none" stroke="#ff0000" stroke-width="0.1" fill-rule="evenodd"/>
<path d="M 284.879,237.642 L 286.130,228.581 L 290.317,218.380 L 296.934,208.174 L 306.733,196.830 L 316.967,187.112 L 339.964,167.318 L 349.556,157.094 L 353.964,150.271 L 356.213,144.581 L 357.112,138.888 L 356.423,132.059 L 354.940,127.506 L 352.692,122.955 L 346.150,113.865 L 336.113,103.642 L 314.840,85.478 L 306.434,77.538 L 299.261,68.468 L 295.647,60.538 L 294.734,56.013 L 294.708,50.352 L 295.825,44.691 L 297.952,39.026 L 304.605,27.685 L 321.118,6.000 L 242.845,6.000 L 242.845,59.990 L 259.990,59.990 L 259.990,63.040 L 242.845,63.040 L 242.845,143.150 L 280.614,143.150 L 280.614,146.200 L 242.845,146.200 L 242.845,218.750 L 258.848,218.750 L 258.848,221.800 L 242.845,221.800 L 242.845,251.772 L 251.331,252.452 L 288.652,257.468 L 290.877,256.994 L 286.270,246.703 L 284.879,237.642 Z" fill="none" stroke="#ff0000" stroke-width="0.1" fill-rule="evenodd"/>
<path d="M 405.043,243.320 L 406.271,236.530 L 409.499,229.737 L 417.641,219.531 L 443.152,195.163 L 457.856,178.531 L 464.341,169.575 L 469.698,160.487 L 473.116,152.531 L 474.880,145.709 L 475.403,138.884 L 474.581,132.059 L 472.398,125.235 L 468.209,117.278 L 463.318,110.460 L 456.720,103.018 L 435.153,83.210 L 427.599,75.271 L 421.684,66.231 L 419.103,58.277 L 418.754,52.619 L 419.599,46.958 L 421.586,41.294 L 424.652,35.630 L 432.978,25.065 L 452.455,6.000 L 361.112,6.000 L 361.112,59.990 L 378.257,59.990 L 378.257,63.040 L 361.112,63.040 L 361.112,143.150 L 398.881,143.150 L 398.881,146.200 L 361.112,146.200 L 361.112,218.750 L 377.115,218.750 L 377.115,221.800 L 361.112,221.800 L 361.112,251.926 L 394.471,255.198 L 408.058,257.308 L 408.822,256.979 L 405.891,250.109 L 405.043,243.320 Z" fill="none" stroke="#ff0000" stroke-width="0.1" fill-rule="evenodd"/>
<text x="63.40" y="136.04" font-size="6" fill="none" stroke="#0000ff" stroke-width="0.1" text-anchor="middle">30</text>
<text x="181.81" y="134.33" font-size="6" fill="none" stroke="#0000ff" stroke-width="0.1" text-anchor="middle">31</text>
<text x="299.26" y="129.78" font-size="6" fill="none" stroke="#0000ff" stroke-width="0.1" text-anchor="middle">21</text>
<text x="417.30" y="128.65" font-size="6" fill="none" stroke="#0000ff" stroke-width="0.1" text-anchor="middle">32</text>
</svg>
