<svg xmlns="http://www.w3.org/2000/svg" width="600.0mm" height="400.0mm" viewBox="0 0 600.0 400.0">
<title>SculptGen sheet 3/12 — 3mm plywood — kerf 0.15mm</title>
<rect x="0" y="0" width="600.0" height="400.0" fill="none" stroke="#cccccc" stroke-width="0.1"/>
<path d="M 46.268,238.781 L 47.794,230.855 L 51.524,222.924 L 57.083,214.986 L 66.110,204.776 L 103.947,168.452 L 114.630,157.096 L 118.805,151.411 L 121.706,145.723 L 122.992,140.027 L 122.724,135.467 L 121.756,132.048 L 119.506,127.494 L 113.325,119.538 L 102.420,109.315 L 76.791,88.883 L 67.831,80.941 L 60.057,71.871 L 55.964,63.940 L 54.793,59.414 L 54.464,53.754 L 55.283,48.092 L 57.093,42.428 L 62.899,31.085 L 79.041,6.000 L 6.000,6.000 L 6.000,59.990 L 23.145,59.990 L 23.145,63.040 L 6.000,63.040 L 6.000,143.150 L 43.769,143.150 L 43.769,146.200 L 6.000,146.200 L 6.000,218.750 L 22.003,218.750 L 22.003,221.800 L 6.000,221.800 L 6.000,251.106 L 16.750,251.120 L 48.421,255.283 L 50.090,254.716 L 47.081,246.707 L 46.268,238.781 Z" fill="none" stroke="#ff0000" stroke-width="0.1" fill-rule="evenodd"/>
<path d="M 168.107,243.321 L 169.099,237.665 L 171.620,232.004 L 174.773,227.473 L 178.895,222.939 L 199.985,204.238 L 211.295,193.080 L 223.293,179.800 L 232.342,168.443 L 238.275,159.354 L 242.391,150.260 L 244.136,141.160 L 243.435,133.193 L 240.025,124.095 L 234.260,115.004 L 223.050,101.377 L 196.902,73.001 L 191.491,65.067 L 188.880,58.272 L 188.271,53.748 L 188.540,49.221 L 189.636,44.694 L 192.061,39.029 L 197.052,31.091 L 216.103,6.000 L 126.992,6.000 L 126.992,59.990 L 144.137,59.990 L 144.137,63.040 L 126.992,63.040 L 126.992,143.150 L 164.761,143.150 L 164.761,146.200 L 126.992,146.200 L 126.992,218.750 L 142.995,218.750 L 142.995,221.800 L 126.992,221.800 L 126.992,252.008 L 132.089,252.558 L 155.834,253.233 L 170.579,254.757 L 168.604,248.978 L 168.107,243.321 Z" fill="none" stroke="#ff0000" stroke-width="0.1" fill-rule="evenodd"/>
<path d="M 286.358,237.650 L 288.628,228.588 L 293.329,219.520 L 301.637,208.177 L 312.084,197.154 L 321.123,189.633 L 341.161,175.269 L 347.135,169.930 L 351.600,165.041 L 356.390,158.221 L 359.542,151.395 L 360.900,144.566 L 360.521,138.873 L 359.195,134.318 L 356.980,129.767 L 353.922,125.218 L 348.985,119.536 L 339.214,110.877 L 317.291,94.559 L 307.566,85.163 L 300.565,75.280 L 298.398,70.750 L 296.616,65.086 L 295.880,59.424 L 296.376,52.629 L 297.906,46.965 L 300.998,40.166 L 308.902,28.825 L 329.343,6.000 L 248.136,6.000 L 248.136,59.990 L 265.281,59.990 L 265.281,63.040 L 248.136,63.040 L 248.136,143.150 L 285.905,143.150 L 285.905,146.200 L 248.136,146.200 L 248.136,218.750 L 264.139,218.750 L 264.139,221.800 L 248.136,221.800 L 248.136,250.208 L 249.851,250.028 L 258.886,249.920 L 284.890,253.465 L 289.586,253.612 L 286.814,245.574 L 286.358,237.650 Z" fill="none" stroke="#ff0000" stroke-width="0.1" fill-rule="evenodd"/>
<path d="M 403.505,234.252 L 406.617,225.188 L 411.967,216.118 L 418.346,208.179 L 426.235,200.238 L 457.111,174.563 L 469.508,162.776 L 474.426,157.094 L 478.441,151.411 L 481.382,145.725 L 483.110,140.035 L 483.550,134.342 L 482.397,127.513 L 479.558,120.689 L 475.268,113.869 L 469.745,107.052 L 463.141,100.236 L 440.689,80.939 L 433.738,74.134 L 428.002,66.201 L 425.011,58.273 L 424.474,53.750 L 424.919,48.088 L 426.503,42.425 L 429.117,36.761 L 436.769,25.598 L 453.801,6.000 L 364.900,6.000 L 364.900,59.990 L 382.045,59.990 L 382.045,63.040 L 364.900,63.040 L 364.900,143.150 L 402.669,143.150 L 402.669,146.200 L 364.900,146.200 L 364.900,218.750 L 380.903,218.750 L 380.903,221.800 L 364.900,221.800 L 364.900,251.794 L 377.912,252.869 L 403.944,253.129 L 404.915,252.431 L 402.875,243.312 L 403.505,234.252 Z" fill="none" stroke="#ff0000" stroke-width="0.1" fill-rule="evenodd"/>
<text x="63.32" y="129.77" font-size="6" fill="none" stroke="#0000ff" stroke-width="0.1" text-anchor="middle">23</text>
<text x="184.36" y="128.64" font-size="6" fill="none" stroke="#0000ff" stroke-width="0.1" text-anchor="middle">17</text>
<text x="303.11" y="132.04" font-size="6" fill="none" stroke="#0000ff" stroke-width="0.1" text-anchor="middle">25</text>
<text x="423.94" y="130.93" font-size="6" fill="none" stroke="#0000ff" stroke-width="0.1" text-anchor="middle">19</text>
</svg>
