<svg xmlns="http://www.w3.org/2000/svg" width="600.0mm" height="400.0mm" viewBox="0 0 600.0 400.0">
<title>SculptGen sheet 4/12 — 3mm plywood — kerf 0.15mm</title>
<rect x="0" y="0" width="600.0" height="400.0" fill="none" stroke="#cccccc" stroke-width="0.1"/>
<path d="M 44.961,237.658 L 47.286,230.864 L 51.430,224.066 L 58.487,216.128 L 85.777,191.438 L 115.405,161.639 L 124.513,150.278 L 127.536,144.590 L 129.004,140.036 L 129.553,134.343 L 128.928,129.787 L 127.350,125.233 L 124.101,119.546 L 115.565,109.322 L 78.880,71.865 L 73.240,63.931 L 70.569,57.137 L 70.003,52.614 L 70.363,48.088 L 71.573,43.559 L 73.530,39.028 L 78.348,31.089 L 96.391,6.000 L 6.000,6.000 L 6.000,59.990 L 23.145,59.990 L 23.145,63.040 L 6.000,63.040 L 6.000,143.150 L 43.769,143.150 L 43.769,146.200 L 6.000,146.200 L 6.000,218.750 L 22.003,218.750 L 22.003,221.800 L 6.000,221.800 L 6.000,251.856 L 14.491,252.617 L 34.844,252.455 L 45.040,253.065 L 46.063,252.435 L 44.508,245.583 L 44.961,237.658 Z" fill="none" stroke="#ff0000" stroke-width="0.1" fill-rule="evenodd"/>
<path d="M 171.173,238.791 L 172.862,233.131 L 176.660,226.334 L 185.484,216.127 L 213.331,190.566 L 227.756,175.259 L 234.003,167.308 L 239.209,159.355 L 243.151,151.400 L 245.329,144.577 L 246.240,137.754 L 245.798,130.928 L 244.007,124.104 L 240.981,117.282 L 232.008,103.652 L 206.722,73.005 L 202.091,65.072 L 199.682,57.143 L 199.448,52.619 L 200.039,48.093 L 203.413,39.027 L 208.960,29.955 L 226.173,6.000 L 133.553,6.000 L 133.553,59.990 L 150.698,59.990 L 150.698,63.040 L 133.553,63.040 L 133.553,143.150 L 171.322,143.150 L 171.322,146.200 L 133.553,146.200 L 133.553,218.750 L 149.556,218.750 L 149.556,221.800 L 133.553,221.800 L 133.553,250.739 L 144.309,250.287 L 156.740,250.796 L 170.310,252.214 L 171.483,252.193 L 172.158,251.282 L 170.841,244.448 L 171.173,238.791 Z" fill="none" stroke="#ff0000" stroke-width="0.1" fill-rule="evenodd"/>
<path d="M 286.473,236.518 L 288.665,228.588 L 293.311,219.519 L 301.239,208.175 L 310.799,196.887 L 319.841,187.782 L 336.802,172.426 L 343.590,165.040 L 349.589,155.949 L 351.645,151.398 L 353.344,145.712 L 354.096,138.886 L 353.413,132.060 L 351.517,125.830 L 348.396,119.551 L 344.524,113.867 L 339.064,107.523 L 319.109,88.887 L 311.895,80.947 L 308.547,76.251 L 305.553,70.747 L 303.875,66.217 L 302.810,60.555 L 302.913,54.895 L 304.032,49.735 L 306.041,44.703 L 309.387,39.037 L 315.321,31.725 L 332.281,15.159 L 340.147,6.000 L 250.240,6.000 L 250.240,59.990 L 267.385,59.990 L 267.385,63.040 L 250.240,63.040 L 250.240,143.150 L 288.009,143.150 L 288.009,146.200 L 250.240,146.200 L 250.240,218.750 L 266.243,218.750 L 266.243,221.800 L 250.240,221.800 L 250.240,250.385 L 259.865,249.576 L 268.904,250.038 L 287.016,252.055 L 288.340,251.301 L 286.338,243.309 L 286.473,236.518 Z" fill="none" stroke="#ff0000" stroke-width="0.1" fill-rule="evenodd"/>
<path d="M 394.187,237.655 L 396.164,230.861 L 400.446,222.926 L 406.265,214.987 L 415.991,203.639 L 454.583,162.771 L 461.595,152.544 L 463.896,147.607 L 465.546,142.308 L 466.352,136.619 L 466.014,129.794 L 464.256,122.969 L 461.097,116.147 L 457.425,110.463 L 452.876,104.782 L 432.959,84.349 L 426.252,76.409 L 420.841,67.340 L 419.240,62.813 L 418.435,58.284 L 418.444,53.759 L 419.580,48.096 L 421.349,43.566 L 424.554,37.901 L 431.689,28.828 L 447.225,12.937 L 453.164,6.000 L 358.096,6.000 L 358.096,59.990 L 375.241,59.990 L 375.241,63.040 L 358.096,63.040 L 358.096,143.150 L 395.865,143.150 L 395.865,146.200 L 358.096,146.200 L 358.096,218.750 L 374.099,218.750 L 374.099,221.800 L 358.096,221.800 L 358.096,250.488 L 369.982,249.633 L 395.549,251.346 L 394.000,244.446 L 394.187,237.655 Z" fill="none" stroke="#ff0000" stroke-width="0.1" fill-rule="evenodd"/>
<text x="67.07" y="127.51" font-size="6" fill="none" stroke="#0000ff" stroke-width="0.1" text-anchor="middle">18</text>
<text x="189.23" y="127.52" font-size="6" fill="none" stroke="#0000ff" stroke-width="0.1" text-anchor="middle">28</text>
<text x="301.35" y="128.95" font-size="6" fill="none" stroke="#0000ff" stroke-width="0.1" text-anchor="middle">26</text>
<text x="411.62" y="126.38" font-size="6" fill="none" stroke="#0000ff" stroke-width="0.1" text-anchor="middle">27</text>
</svg>
