<?xml version="1.0" encoding="utf-8"?>
<!-- Generator: Adobe Illustrator 27.8.0, SVG Export Plug-In . SVG Version: 6.00 Build 0)  -->
<svg version="1.1" id="Layer_1" xmlns="http://www.w3.org/2000/svg" xmlns:xlink="http://www.w3.org/1999/xlink" x="0px" y="0px"
	 viewBox="0 0 566.9 850.4" style="enable-background:new 0 0 566.9 850.4;" xml:space="preserve">
<style type="text/css">
	.st0{fill-rule:evenodd;clip-rule:evenodd;fill:#34B146;}
</style>
<path class="st0" d="M526.5,385.7c-4.8-3.3-9.5-6.6-14.3-9.9c-8-8.1-10-21.3-17.3-30.2c-2.4-2.9-8.3-1.9-11.7-3.9
	c-9.3-5.3-12.7-17.4-16-28.4c-4-2.9-9.6-2.8-14.3-0.9c-1-0.6-2-1.1-3-1.7c-3-2.3-2.8-6.6-7.8-9.5c-7.5-3.5-13,1.4-19.9,3
	c-7.1,1.6-14.4-0.8-19.9-1.7h-11.7c-7-2.8-15.5-5.8-25.1-6.9h-17.3c-2.6-0.6-8-2.9-12.1-1.7c-3.9,1.1-12.3,6-17.3,4.7
	c-4.9-1.2-14.4-2.2-19.1-3H281c-6.8-2.7-18.5-3.4-27.3-3.5h-13c-11.2-4-31.6-1.8-45-1.7l0,0c-12.7,5.2-25.3,6.7-35.5,14.2
	c-15.7,11.5-29,26-43.3,38.8c-12.7,11.3-28,23.9-35.5,40.1c-3.1,6.7-3,16.4-5.2,22.8c-0.1,3-0.3,6-0.4,9.1c-2,4.2-1.4,12.5-3.5,16.4
	c-4.1,7.5-6.1,15.7-10,24.1c-5.8,12.4-8.8,26.1-13.9,39.6c-2.9,5.2-5.8,10.3-8.7,15.5c-1.6,7.3,12.9,38.4,16.5,42.2
	c4,4,38.2,3.5,46.3,2.6c0.4-1.7,0.5-2.5,1.7-3.5c-1.3-10.2-12.3-8.4-16.9-14.7c-3.6-5-3.2-12.6-3.9-20.7c2.9-2.3,5.8-4.6,8.7-6.9
	c4-1.3,8.1-2.6,12.1-3.9c7.1-11.1,14.1-22.1,21.2-33.2c7.2-7.3,14.4-14.7,21.7-22c1.3-0.3,2.6-0.6,3.9-0.9
	c6.2,10.9,11.4,22.1,19.9,30.6c6.9,6.8,22.1,15.9,26.4,24.1c5.3,10.1,4.1,21,7.4,34c1.2,2.4,23.2,16.1,26.4,17.2
	c18.3-0.3,36.7-0.6,55-0.9c2.6-1.9,0.4-5.1,0-8.2c-11-7.1-29.5-12.5-36-23.7v-22.8c-2.3-14.3-3.5-31.4-7.4-44.4
	c3-3.5,7.6-3.5,11.7-6c7.2-4.5,14.6-17.7,25.1-16.8c0.4,1.4,0.9,2.9,1.3,4.3c-7,10.6-8.2,29.6-3,43.5c2.3,4.3,4.6,8.6,6.9,12.9
	c4,12.5,5.3,25.9,5.2,41.8c8.7,10.9,28.7,14.8,34.2,24.6c14.3-0.1,28.6-0.3,42.9-0.4c1.2-1.1,1.2-2.4,0.9-3.9
	c-0.8-11.5-23.6-13.2-32.5-16.8c-2-8.7-5.8-42.5-3-54.7c1.1-5,4.5-11.4,4.8-14.6c0.3-0.1,0.6-0.3,0.9-0.4c2,3.7,4,7.5,6.1,11.2
	c4.3,1.3,8.7,2.6,13,3.9c15.3,9,20.2,30.4,44.2,30.6c1,1.4,2,2.9,3,4.3c-0.6,2.7-2.4,4.1-3,6c-2.7,8.1,5,22.4,7.4,26.7
	c12.8-0.4,20.1-13.1,23-23.7c0.1-5.2,0.3-10.3,0.4-15.5c0.6-2,3-10,2.6-12.1c-4.1-23.2-48.7-41.6-40.7-68.1c1.4-4.6,6-6.9,8.2-10.3
	c2.5-3.8-0.7-10.4,2.2-14.6c19.5-28.7,73.9,11.4,99.6,11.6C508.2,417,531.9,394.7,526.5,385.7z"/>
</svg>
