<svg xmlns="http://www.w3.org/2000/svg" width="600.0mm" height="400.0mm" viewBox="0 0 600.0 400.0">
<title>SculptGen sheet 1/6 — 3mm plywood — kerf 0.15mm</title>
<rect x="0" y="0" width="600.0" height="400.0" fill="none" stroke="#cccccc" stroke-width="0.1"/>
<path d="M 44.806,235.329 L 52.485,232.917 L 65.646,226.787 L 71.923,222.581 L 76.980,218.179 L 82.300,211.574 L 85.321,204.965 L 86.398,199.456 L 86.765,185.172 L 87.775,178.591 L 90.324,170.910 L 95.263,160.747 L 99.394,154.447 L 102.922,150.428 L 108.395,145.797 L 125.578,133.582 L 129.233,129.570 L 131.128,125.855 L 131.411,120.331 L 128.087,110.437 L 127.591,104.964 L 128.772,99.487 L 135.313,81.905 L 136.088,76.393 L 135.345,70.878 L 133.310,66.465 L 129.848,62.057 L 113.882,48.038 L 108.242,41.195 L 105.022,33.522 L 102.883,20.341 L 101.224,14.834 L 98.545,10.374 L 93.738,6.000 L 37.957,6.000 L 21.756,10.887 L 10.811,12.584 L 6.000,12.351 L 6.000,55.750 L 33.826,55.750 L 33.826,58.800 L 6.000,58.800 L 6.000,132.550 L 32.084,132.550 L 32.084,135.600 L 6.000,135.600 L 6.000,209.350 L 12.361,209.350 L 12.361,212.400 L 6.000,212.400 L 6.000,238.554 L 7.520,238.798 L 19.002,239.077 L 36.032,237.291 L 44.806,235.329 Z" fill="none" stroke="#ff0000" stroke-width="0.1" fill-rule="evenodd"/>
<path d="M 183.240,231.382 L 192.056,227.893 L 200.785,223.686 L 208.300,219.288 L 215.087,214.395 L 220.517,209.388 L 224.759,203.881 L 227.552,197.271 L 228.230,191.760 L 227.725,180.771 L 228.164,174.190 L 230.098,166.511 L 233.317,158.831 L 237.416,152.248 L 241.085,147.861 L 261.002,129.181 L 264.419,124.622 L 267.103,119.267 L 271.972,96.191 L 281.105,74.221 L 283.304,67.621 L 284.212,62.113 L 283.841,56.600 L 281.956,51.474 L 278.658,46.725 L 258.485,27.998 L 254.276,22.513 L 247.237,11.523 L 242.219,6.000 L 161.574,6.000 L 152.553,9.095 L 144.892,10.878 L 140.088,11.196 L 140.088,55.750 L 167.914,55.750 L 167.914,58.800 L 140.088,58.800 L 140.088,132.550 L 166.172,132.550 L 166.172,135.600 L 140.088,135.600 L 140.088,209.350 L 146.449,209.350 L 146.449,212.400 L 140.088,212.400 L 140.088,238.231 L 142.708,238.561 L 155.629,237.978 L 173.414,234.477 L 183.240,231.382 Z" fill="none" stroke="#ff0000" stroke-width="0.1" fill-rule="evenodd"/>
<path d="M 331.405,233.971 L 337.989,231.543 L 344.572,228.118 L 348.965,224.970 L 352.581,221.479 L 355.716,217.073 L 357.595,212.664 L 358.506,208.254 L 358.667,192.869 L 359.488,186.288 L 361.764,178.606 L 368.457,162.123 L 369.793,156.618 L 370.150,151.109 L 369.326,146.692 L 366.512,141.671 L 362.887,137.874 L 353.933,130.184 L 350.266,125.802 L 348.849,122.531 L 348.836,118.169 L 351.170,113.513 L 356.633,108.404 L 377.770,96.241 L 384.147,91.840 L 388.458,87.431 L 390.592,83.012 L 390.755,79.685 L 389.141,75.266 L 385.828,70.859 L 374.727,58.776 L 372.042,54.393 L 370.790,51.110 L 370.168,47.827 L 370.174,43.446 L 373.431,25.865 L 373.205,21.452 L 372.226,18.138 L 369.797,14.278 L 366.494,11.295 L 361.000,8.394 L 355.507,6.816 L 347.823,6.000 L 340.141,6.382 L 310.550,12.284 L 299.601,13.452 L 288.657,12.597 L 288.212,12.457 L 288.212,54.659 L 316.038,54.659 L 316.038,57.709 L 288.212,57.709 L 288.212,131.459 L 314.296,131.459 L 314.296,134.509 L 288.212,134.509 L 288.212,208.259 L 294.573,208.259 L 294.573,211.309 L 288.212,211.309 L 288.212,237.312 L 291.925,237.847 L 307.026,237.986 L 323.726,235.936 L 331.405,233.971 Z" fill="none" stroke="#ff0000" stroke-width="0.1" fill-rule="evenodd"/>
<path d="M 414.930,235.477 L 424.799,232.564 L 433.708,229.183 L 445.599,223.687 L 455.542,218.191 L 463.890,212.694 L 470.615,207.193 L 475.571,201.690 L 478.714,196.182 L 480.088,191.775 L 482.988,175.297 L 485.570,168.715 L 489.634,161.032 L 497.795,148.954 L 515.650,128.077 L 519.223,122.576 L 521.331,118.172 L 523.094,112.670 L 527.444,92.895 L 537.247,67.624 L 538.265,62.113 L 537.864,56.599 L 536.063,52.183 L 532.225,47.367 L 514.432,33.486 L 507.716,26.902 L 503.811,21.417 L 497.863,10.431 L 494.804,6.000 L 410.397,6.000 L 397.362,9.802 L 394.755,10.143 L 394.755,55.750 L 422.581,55.750 L 422.581,58.800 L 394.755,58.800 L 394.755,132.550 L 420.839,132.550 L 420.839,135.600 L 394.755,135.600 L 394.755,209.350 L 401.116,209.350 L 401.116,212.400 L 394.755,212.400 L 394.755,237.766 L 397.513,237.978 L 406.155,237.207 L 414.930,235.477 Z" fill="none" stroke="#ff0000" stroke-width="0.1" fill-rule="evenodd"/>
<text x="68.63" y="123.09" font-size="6" fill="none" stroke="#0000ff" stroke-width="0.1" text-anchor="middle">22</text>
<text x="202.92" y="121.94" font-size="6" fill="none" stroke="#0000ff" stroke-width="0.1" text-anchor="middle">23</text>
<text x="318.53" y="120.35" font-size="6" fill="none" stroke="#0000ff" stroke-width="0.1" text-anchor="middle">21</text>
<text x="457.52" y="120.37" font-size="6" fill="none" stroke="#0000ff" stroke-width="0.1" text-anchor="middle">24</text>
</svg>
