<svg xmlns="http://www.w3.org/2000/svg" width="600.0mm" height="400.0mm" viewBox="0 0 600.0 400.0">
<title>SculptGen sheet 6/6 — 3mm plywood — kerf 0.15mm</title>
<rect x="0" y="0" width="600.0" height="400.0" fill="none" stroke="#cccccc" stroke-width="0.1"/>
<path d="M 157.213,104.584 L 160.848,102.210 L 163.850,99.493 L 166.740,95.859 L 168.757,92.224 L 170.616,86.776 L 171.388,81.327 L 171.264,75.878 L 168.750,64.992 L 166.306,59.236 L 162.677,52.826 L 155.189,43.223 L 149.980,38.241 L 144.536,34.085 L 134.453,28.708 L 124.580,25.896 L 119.134,25.307 L 97.393,24.994 L 86.536,23.150 L 77.489,19.419 L 57.980,8.778 L 52.108,6.891 L 46.659,6.000 L 37.582,6.364 L 30.316,8.712 L 26.680,10.837 L 23.047,13.819 L 18.250,19.678 L 14.438,26.937 L 11.371,36.005 L 8.666,48.696 L 6.691,63.196 L 6.000,74.075 L 6.482,81.337 L 8.539,87.437 L 11.293,90.445 L 14.025,91.560 L 15.865,91.606 L 21.326,89.586 L 45.059,70.511 L 59.374,60.303 L 68.414,56.604 L 75.639,56.072 L 79.243,56.880 L 82.850,58.608 L 88.273,63.136 L 93.702,69.960 L 100.961,81.365 L 106.389,88.446 L 111.831,94.089 L 119.087,99.879 L 126.345,104.033 L 135.420,107.162 L 144.498,108.002 L 151.973,106.761 L 157.213,104.584 Z M 128.716,66.914 L 128.674,67.198 L 128.604,67.477 L 128.508,67.746 L 128.385,68.006 L 128.237,68.252 L 128.066,68.483 L 127.873,68.695 L 127.660,68.888 L 127.430,69.059 L 127.184,69.206 L 126.924,69.329 L 126.654,69.425 L 126.375,69.496 L 126.092,69.538 L 125.805,69.552 L 125.519,69.538 L 125.235,69.496 L 124.956,69.425 L 124.686,69.329 L 124.427,69.206 L 124.180,69.059 L 123.950,68.888 L 123.737,68.695 L 123.544,68.483 L 123.374,68.252 L 123.225,68.006 L 123.103,67.746 L 123.006,67.477 L 122.937,67.198 L 122.894,66.914 L 122.880,66.627 L 122.894,66.341 L 122.937,66.056 L 123.006,65.778 L 123.103,65.508 L 123.225,65.248 L 123.374,65.002 L 123.544,64.771 L 123.737,64.558 L 123.950,64.366 L 124.180,64.195 L 124.427,64.047 L 124.686,63.925 L 124.956,63.828 L 125.235,63.758 L 125.518,63.716 L 125.805,63.702 L 126.092,63.716 L 126.375,63.758 L 126.654,63.828 L 126.924,63.925 L 127.184,64.047 L 127.430,64.195 L 127.660,64.366 L 127.873,64.558 L 128.066,64.771 L 128.237,65.002 L 128.385,65.248 L 128.508,65.508 L 128.604,65.778 L 128.674,66.056 L 128.716,66.341 L 128.730,66.627 L 128.716,66.914 Z" fill="none" stroke="#ff0000" stroke-width="0.1" fill-rule="evenodd"/>
<path d="M 311.106,97.179 L 314.882,95.129 L 318.375,92.392 L 322.011,88.199 L 325.642,80.573 L 326.685,75.143 L 326.776,69.695 L 326.045,64.249 L 323.934,56.989 L 318.449,46.107 L 314.579,40.664 L 309.764,35.220 L 300.247,27.378 L 294.802,24.231 L 289.358,21.926 L 283.913,20.376 L 278.467,19.570 L 265.773,20.033 L 244.032,23.089 L 236.802,22.890 L 233.195,21.744 L 229.580,19.782 L 213.269,8.835 L 207.818,6.879 L 202.367,6.000 L 195.101,6.520 L 189.646,8.432 L 184.866,11.664 L 180.559,16.688 L 178.369,20.749 L 176.515,26.197 L 175.565,31.643 L 175.388,37.090 L 176.084,42.537 L 177.214,46.175 L 178.750,48.955 L 181.627,51.648 L 186.048,53.100 L 193.321,52.351 L 202.394,49.027 L 216.891,41.152 L 222.318,38.818 L 227.735,37.481 L 233.143,38.010 L 236.743,40.009 L 242.166,45.618 L 247.597,53.634 L 260.281,75.640 L 265.724,82.466 L 272.979,89.336 L 280.238,94.270 L 289.312,98.140 L 298.390,99.608 L 306.418,98.763 L 311.106,97.179 Z M 284.426,58.915 L 284.383,59.199 L 284.314,59.478 L 284.217,59.748 L 284.094,60.007 L 283.946,60.253 L 283.775,60.484 L 283.582,60.696 L 283.370,60.889 L 283.140,61.060 L 282.893,61.207 L 282.634,61.330 L 282.364,61.427 L 282.085,61.497 L 281.801,61.539 L 281.514,61.553 L 281.228,61.539 L 280.944,61.497 L 280.665,61.427 L 280.395,61.330 L 280.136,61.207 L 279.889,61.060 L 279.659,60.889 L 279.447,60.696 L 279.254,60.484 L 279.083,60.253 L 278.935,60.007 L 278.812,59.748 L 278.715,59.478 L 278.646,59.199 L 278.603,58.915 L 278.590,58.628 L 278.603,58.342 L 278.646,58.057 L 278.715,57.779 L 278.812,57.509 L 278.935,57.249 L 279.083,57.003 L 279.254,56.772 L 279.446,56.560 L 279.659,56.367 L 279.889,56.196 L 280.136,56.049 L 280.395,55.926 L 280.665,55.829 L 280.944,55.759 L 281.228,55.717 L 281.514,55.704 L 281.801,55.717 L 282.085,55.759 L 282.364,55.829 L 282.634,55.926 L 282.893,56.049 L 283.140,56.196 L 283.370,56.367 L 283.582,56.560 L 283.775,56.772 L 283.946,57.003 L 284.094,57.249 L 284.217,57.509 L 284.314,57.779 L 284.383,58.057 L 284.426,58.342 L 284.439,58.628 L 284.426,58.915 Z" fill="none" stroke="#ff0000" stroke-width="0.1" fill-rule="evenodd"/>
<path d="M 396.355,81.185 L 399.992,79.129 L 403.626,76.159 L 406.579,72.635 L 408.680,68.998 L 410.895,61.761 L 411.197,54.467 L 409.498,45.392 L 405.805,36.320 L 400.097,27.249 L 393.682,19.994 L 387.181,14.550 L 380.051,10.292 L 370.977,7.027 L 361.901,6.000 L 352.828,6.940 L 343.964,9.105 L 336.160,12.735 L 333.876,14.560 L 331.409,18.207 L 330.776,21.859 L 331.630,27.313 L 334.955,36.383 L 341.485,50.883 L 345.437,58.136 L 349.159,63.527 L 358.226,73.158 L 363.671,77.224 L 368.411,79.907 L 372.747,81.744 L 378.194,83.217 L 383.641,83.787 L 389.092,83.407 L 396.355,81.185 Z M 369.676,43.688 L 369.633,43.972 L 369.564,44.251 L 369.467,44.521 L 369.344,44.780 L 369.196,45.026 L 369.025,45.257 L 368.832,45.469 L 368.620,45.662 L 368.390,45.833 L 368.143,45.980 L 367.884,46.103 L 367.614,46.200 L 367.335,46.270 L 367.051,46.312 L 366.765,46.326 L 366.478,46.312 L 366.194,46.270 L 365.915,46.200 L 365.645,46.103 L 365.386,45.980 L 365.139,45.833 L 364.909,45.662 L 364.697,45.469 L 364.504,45.257 L 364.333,45.026 L 364.185,44.780 L 364.062,44.521 L 363.965,44.251 L 363.896,43.972 L 363.853,43.688 L 363.840,43.401 L 363.853,43.115 L 363.896,42.830 L 363.965,42.552 L 364.062,42.282 L 364.185,42.022 L 364.333,41.776 L 364.504,41.545 L 364.697,41.333 L 364.909,41.140 L 365.139,40.969 L 365.386,40.822 L 365.645,40.699 L 365.915,40.602 L 366.194,40.532 L 366.478,40.490 L 366.765,40.477 L 367.051,40.490 L 367.335,40.532 L 367.614,40.602 L 367.884,40.699 L 368.143,40.822 L 368.390,40.969 L 368.620,41.140 L 368.832,41.333 L 369.025,41.545 L 369.196,41.776 L 369.344,42.022 L 369.467,42.282 L 369.564,42.552 L 369.633,42.830 L 369.676,43.115 L 369.689,43.401 L 369.676,43.688 Z" fill="none" stroke="#ff0000" stroke-width="0.1" fill-rule="evenodd"/>
<path d="M 478.152,77.188 L 483.605,72.566 L 487.867,65.628 L 489.651,58.359 L 489.584,51.095 L 487.474,42.019 L 483.613,33.409 L 478.553,25.691 L 472.728,19.150 L 465.470,13.232 L 458.211,9.220 L 450.949,6.848 L 443.686,6.000 L 434.611,7.024 L 426.815,9.361 L 420.514,12.994 L 417.228,16.637 L 415.666,20.282 L 415.197,23.924 L 415.733,29.375 L 418.330,38.444 L 422.662,49.322 L 425.502,54.974 L 430.120,62.021 L 438.538,71.089 L 443.645,74.956 L 449.090,77.989 L 454.537,80.018 L 459.984,81.091 L 465.434,81.218 L 471.443,80.166 L 478.152,77.188 Z M 449.650,42.130 L 449.607,42.414 L 449.537,42.693 L 449.441,42.963 L 449.318,43.222 L 449.170,43.468 L 448.999,43.699 L 448.806,43.911 L 448.594,44.104 L 448.364,44.275 L 448.117,44.422 L 447.858,44.545 L 447.587,44.642 L 447.309,44.712 L 447.025,44.754 L 446.738,44.768 L 446.452,44.754 L 446.168,44.712 L 445.889,44.642 L 445.619,44.545 L 445.360,44.422 L 445.113,44.275 L 444.883,44.104 L 444.670,43.911 L 444.477,43.699 L 444.307,43.468 L 444.158,43.222 L 444.036,42.963 L 443.939,42.693 L 443.870,42.414 L 443.827,42.130 L 443.813,41.843 L 443.827,41.557 L 443.870,41.272 L 443.939,40.994 L 444.036,40.724 L 444.158,40.464 L 444.307,40.218 L 444.477,39.987 L 444.670,39.775 L 444.883,39.583 L 445.113,39.411 L 445.360,39.264 L 445.619,39.141 L 445.889,39.044 L 446.168,38.974 L 446.452,38.932 L 446.738,38.919 L 447.025,38.932 L 447.309,38.974 L 447.587,39.044 L 447.858,39.141 L 448.117,39.264 L 448.364,39.411 L 448.594,39.583 L 448.806,39.775 L 448.999,39.987 L 449.170,40.218 L 449.318,40.464 L 449.441,40.724 L 449.537,40.994 L 449.607,41.272 L 449.650,41.557 L 449.663,41.843 L 449.650,42.130 Z" fill="none" stroke="#ff0000" stroke-width="0.1" fill-rule="evenodd"/>
<path d="M 553.992,73.210 L 557.913,69.517 L 561.342,64.065 L 563.343,56.797 L 563.381,49.532 L 561.901,42.270 L 559.103,35.012 L 554.010,26.335 L 548.568,19.731 L 543.123,14.768 L 535.864,10.070 L 528.603,7.202 L 521.340,6.000 L 515.890,6.231 L 508.592,7.795 L 500.824,11.426 L 496.853,15.066 L 494.729,18.708 L 493.753,22.351 L 493.651,27.803 L 495.012,35.063 L 497.984,44.130 L 501.107,51.384 L 505.436,58.641 L 509.730,64.084 L 514.038,68.382 L 519.483,72.517 L 524.928,75.457 L 530.376,77.337 L 535.824,78.228 L 541.275,78.125 L 547.179,76.788 L 553.992,73.210 Z M 525.487,40.566 L 525.444,40.850 L 525.375,41.129 L 525.278,41.399 L 525.155,41.658 L 525.007,41.904 L 524.836,42.135 L 524.643,42.347 L 524.431,42.540 L 524.201,42.711 L 523.954,42.858 L 523.695,42.981 L 523.425,43.077 L 523.146,43.148 L 522.862,43.190 L 522.576,43.204 L 522.289,43.190 L 522.005,43.148 L 521.726,43.077 L 521.456,42.981 L 521.197,42.858 L 520.950,42.711 L 520.720,42.540 L 520.508,42.347 L 520.315,42.135 L 520.144,41.904 L 519.996,41.658 L 519.873,41.399 L 519.776,41.129 L 519.707,40.850 L 519.664,40.566 L 519.651,40.279 L 519.664,39.993 L 519.707,39.708 L 519.776,39.430 L 519.873,39.160 L 519.996,38.900 L 520.144,38.654 L 520.315,38.423 L 520.508,38.210 L 520.720,38.018 L 520.950,37.847 L 521.197,37.700 L 521.456,37.577 L 521.726,37.480 L 522.005,37.410 L 522.289,37.368 L 522.576,37.354 L 522.862,37.368 L 523.146,37.410 L 523.425,37.480 L 523.695,37.577 L 523.954,37.700 L 524.201,37.847 L 524.431,38.018 L 524.643,38.210 L 524.836,38.423 L 525.007,38.654 L 525.155,38.900 L 525.278,39.160 L 525.375,39.430 L 525.444,39.708 L 525.487,39.993 L 525.500,40.279 L 525.487,40.566 Z" fill="none" stroke="#ff0000" stroke-width="0.1" fill-rule="evenodd"/>
<path d="M 60.991,176.659 L 66.252,171.997 L 69.511,166.543 L 71.048,161.089 L 71.276,153.824 L 69.901,146.562 L 67.138,139.303 L 63.010,132.045 L 57.381,124.994 L 51.936,120.017 L 45.252,115.713 L 39.228,113.273 L 31.965,112.002 L 26.514,112.282 L 19.250,114.072 L 13.801,116.796 L 10.673,119.352 L 7.998,122.992 L 6.599,126.634 L 6.000,132.088 L 6.898,139.350 L 8.919,146.606 L 11.961,154.413 L 15.685,161.118 L 19.755,166.562 L 24.662,171.543 L 28.294,174.381 L 33.739,177.546 L 39.188,179.560 L 44.637,180.522 L 50.087,180.451 L 55.542,179.268 L 60.991,176.659 Z M 36.112,144.857 L 36.069,145.140 L 36.000,145.419 L 35.903,145.689 L 35.780,145.949 L 35.632,146.194 L 35.461,146.426 L 35.268,146.638 L 35.056,146.831 L 34.826,147.002 L 34.579,147.149 L 34.320,147.272 L 34.050,147.368 L 33.771,147.439 L 33.487,147.480 L 33.201,147.495 L 32.914,147.480 L 32.630,147.439 L 32.351,147.368 L 32.081,147.272 L 31.822,147.149 L 31.575,147.002 L 31.345,146.831 L 31.133,146.638 L 30.940,146.426 L 30.769,146.194 L 30.621,145.949 L 30.498,145.689 L 30.401,145.419 L 30.332,145.140 L 30.289,144.857 L 30.276,144.570 L 30.289,144.284 L 30.332,143.999 L 30.401,143.721 L 30.498,143.451 L 30.621,143.191 L 30.769,142.945 L 30.940,142.714 L 31.133,142.501 L 31.345,142.309 L 31.575,142.138 L 31.822,141.990 L 32.081,141.868 L 32.351,141.771 L 32.630,141.701 L 32.914,141.659 L 33.201,141.645 L 33.487,141.659 L 33.771,141.701 L 34.050,141.771 L 34.320,141.868 L 34.579,141.990 L 34.826,142.138 L 35.056,142.309 L 35.268,142.501 L 35.461,142.714 L 35.632,142.945 L 35.780,143.191 L 35.903,143.451 L 36.000,143.721 L 36.069,143.999 L 36.112,144.284 L 36.125,144.570 L 36.112,144.857 Z" fill="none" stroke="#ff0000" stroke-width="0.1" fill-rule="evenodd"/>
<path d="M 123.214,173.445 L 128.504,169.910 L 132.141,165.484 L 134.285,160.716 L 135.275,155.263 L 134.865,147.999 L 132.882,140.737 L 129.457,133.479 L 124.889,126.782 L 119.444,121.023 L 113.998,116.897 L 108.550,114.082 L 101.286,112.129 L 95.834,112.002 L 90.383,112.988 L 84.465,115.330 L 81.296,117.495 L 78.256,120.790 L 76.372,124.432 L 75.276,129.886 L 75.479,135.337 L 76.998,142.595 L 79.458,149.851 L 82.100,155.297 L 88.690,164.368 L 92.534,167.999 L 97.614,171.568 L 103.061,174.093 L 107.381,175.263 L 112.146,175.769 L 117.739,175.263 L 123.214,173.445 Z M 103.615,142.662 L 103.572,142.945 L 103.503,143.224 L 103.407,143.494 L 103.284,143.753 L 103.136,143.999 L 102.965,144.230 L 102.772,144.443 L 102.559,144.636 L 102.329,144.806 L 102.083,144.954 L 101.823,145.077 L 101.553,145.173 L 101.274,145.243 L 100.991,145.285 L 100.704,145.300 L 100.417,145.285 L 100.134,145.243 L 99.855,145.173 L 99.585,145.077 L 99.325,144.954 L 99.079,144.806 L 98.849,144.636 L 98.636,144.443 L 98.443,144.230 L 98.272,143.999 L 98.124,143.753 L 98.001,143.494 L 97.905,143.224 L 97.836,142.945 L 97.793,142.662 L 97.779,142.375 L 97.793,142.088 L 97.836,141.804 L 97.905,141.526 L 98.001,141.256 L 98.124,140.995 L 98.272,140.750 L 98.443,140.519 L 98.636,140.306 L 98.849,140.114 L 99.079,139.942 L 99.325,139.795 L 99.585,139.672 L 99.855,139.576 L 100.134,139.506 L 100.417,139.464 L 100.704,139.450 L 100.991,139.464 L 101.274,139.506 L 101.553,139.576 L 101.823,139.672 L 102.083,139.795 L 102.329,139.942 L 102.559,140.114 L 102.772,140.306 L 102.965,140.519 L 103.136,140.750 L 103.284,140.995 L 103.407,141.256 L 103.503,141.526 L 103.572,141.804 L 103.615,142.088 L 103.629,142.375 L 103.615,142.662 Z" fill="none" stroke="#ff0000" stroke-width="0.1" fill-rule="evenodd"/>
<path d="M 183.171,166.764 L 186.811,164.084 L 190.197,159.789 L 191.779,156.148 L 192.763,150.695 L 192.520,145.244 L 190.670,137.983 L 188.232,132.537 L 184.843,127.092 L 180.193,121.648 L 175.931,117.946 L 170.484,114.633 L 165.033,112.667 L 159.581,112.002 L 154.127,112.647 L 148.675,114.578 L 145.037,116.970 L 142.347,119.845 L 140.404,123.485 L 139.461,127.126 L 139.275,132.577 L 140.076,138.023 L 142.191,145.281 L 144.633,150.726 L 148.127,156.171 L 151.240,159.803 L 155.321,163.434 L 159.544,166.164 L 163.178,167.818 L 168.629,169.243 L 174.080,169.455 L 177.790,168.882 L 183.171,166.764 Z M 165.544,139.906 L 165.501,140.190 L 165.432,140.469 L 165.335,140.739 L 165.212,140.998 L 165.064,141.244 L 164.894,141.475 L 164.700,141.687 L 164.488,141.880 L 164.258,142.051 L 164.011,142.198 L 163.752,142.321 L 163.482,142.418 L 163.203,142.488 L 162.919,142.530 L 162.633,142.544 L 162.346,142.530 L 162.062,142.488 L 161.783,142.418 L 161.513,142.321 L 161.254,142.198 L 161.007,142.051 L 160.777,141.880 L 160.565,141.687 L 160.372,141.475 L 160.201,141.244 L 160.053,140.998 L 159.930,140.739 L 159.833,140.469 L 159.764,140.190 L 159.721,139.906 L 159.708,139.619 L 159.721,139.333 L 159.764,139.048 L 159.833,138.770 L 159.930,138.500 L 160.053,138.240 L 160.201,137.994 L 160.372,137.763 L 160.565,137.551 L 160.777,137.358 L 161.007,137.187 L 161.254,137.040 L 161.513,136.917 L 161.783,136.820 L 162.062,136.750 L 162.346,136.708 L 162.633,136.694 L 162.919,136.708 L 163.203,136.750 L 163.482,136.820 L 163.752,136.917 L 164.011,137.040 L 164.258,137.187 L 164.488,137.358 L 164.701,137.551 L 164.894,137.763 L 165.064,137.994 L 165.212,138.240 L 165.335,138.500 L 165.432,138.770 L 165.501,139.048 L 165.544,139.333 L 165.557,139.619 L 165.544,139.906 Z" fill="none" stroke="#ff0000" stroke-width="0.1" fill-rule="evenodd"/>
<path d="M 236.031,156.841 L 238.681,153.970 L 240.618,150.330 L 241.582,146.690 L 241.812,143.053 L 241.115,137.603 L 239.331,132.154 L 236.467,126.708 L 232.415,121.382 L 228.784,117.938 L 225.150,115.379 L 219.698,112.927 L 214.245,112.002 L 210.604,112.284 L 206.966,113.320 L 203.327,115.210 L 200.562,117.640 L 198.228,121.280 L 197.110,124.922 L 196.763,128.562 L 198.041,137.637 L 199.677,142.364 L 201.929,146.720 L 207.925,153.981 L 212.390,157.314 L 216.028,159.135 L 223.293,160.800 L 226.935,160.685 L 231.736,159.432 L 236.031,156.841 Z M 220.205,135.894 L 220.162,136.178 L 220.092,136.457 L 219.996,136.727 L 219.873,136.986 L 219.725,137.232 L 219.554,137.463 L 219.361,137.675 L 219.149,137.868 L 218.919,138.039 L 218.672,138.186 L 218.413,138.309 L 218.143,138.405 L 217.864,138.476 L 217.580,138.518 L 217.293,138.532 L 217.007,138.518 L 216.723,138.476 L 216.444,138.405 L 216.174,138.309 L 215.915,138.186 L 215.668,138.039 L 215.438,137.868 L 215.225,137.675 L 215.032,137.463 L 214.862,137.232 L 214.714,136.986 L 214.591,136.727 L 214.494,136.457 L 214.425,136.178 L 214.382,135.894 L 214.368,135.607 L 214.382,135.321 L 214.425,135.036 L 214.494,134.758 L 214.591,134.488 L 214.714,134.228 L 214.862,133.982 L 215.032,133.751 L 215.225,133.538 L 215.438,133.346 L 215.668,133.175 L 215.915,133.028 L 216.174,132.905 L 216.444,132.808 L 216.723,132.738 L 217.007,132.696 L 217.293,132.682 L 217.580,132.696 L 217.864,132.738 L 218.143,132.808 L 218.413,132.905 L 218.672,133.028 L 218.919,133.175 L 219.149,133.346 L 219.361,133.538 L 219.554,133.751 L 219.725,133.982 L 219.873,134.228 L 219.996,134.488 L 220.093,134.758 L 220.162,135.036 L 220.205,135.321 L 220.218,135.607 L 220.205,135.894 Z" fill="none" stroke="#ff0000" stroke-width="0.1" fill-rule="evenodd"/>
<path d="M 289.605,140.078 L 289.937,138.657 L 290.174,137.217 L 290.311,135.831 L 284.004,135.831 L 284.004,132.781 L 290.311,132.781 L 290.174,131.395 L 289.937,129.954 L 289.605,128.533 L 289.483,128.131 L 283.564,130.286 L 282.522,127.420 L 288.439,125.267 L 288.065,124.442 L 287.377,123.154 L 286.606,121.914 L 286.078,121.178 L 281.255,125.226 L 279.294,122.890 L 284.119,118.841 L 283.833,118.535 L 282.767,117.537 L 281.639,116.611 L 280.507,115.800 L 277.354,121.261 L 274.712,119.736 L 277.866,114.275 L 276.597,113.700 L 275.231,113.186 L 273.834,112.762 L 273.425,112.667 L 272.332,118.870 L 269.328,118.340 L 270.421,112.139 L 269.520,112.050 L 268.061,112.002 L 266.603,112.050 L 265.702,112.139 L 266.795,118.340 L 263.791,118.870 L 262.698,112.667 L 262.289,112.762 L 260.892,113.186 L 259.526,113.700 L 258.257,114.275 L 261.411,119.736 L 258.769,121.261 L 255.616,115.800 L 254.484,116.611 L 253.356,117.537 L 252.290,118.535 L 252.004,118.841 L 256.829,122.890 L 254.868,125.226 L 250.045,121.178 L 249.517,121.914 L 248.745,123.154 L 248.058,124.442 L 247.684,125.267 L 253.601,127.420 L 252.559,130.286 L 246.640,128.131 L 246.518,128.533 L 246.186,129.954 L 245.949,131.395 L 245.812,132.781 L 252.118,132.781 L 252.118,135.831 L 245.812,135.831 L 245.949,137.217 L 246.186,138.657 L 246.518,140.078 L 246.640,140.480 L 252.559,138.326 L 253.601,141.192 L 247.684,143.345 L 248.058,144.170 L 248.745,145.457 L 249.517,146.698 L 250.045,147.433 L 254.868,143.386 L 256.829,145.722 L 252.004,149.770 L 252.290,150.077 L 253.356,151.074 L 254.484,152.000 L 255.616,152.812 L 258.769,147.350 L 261.411,148.875 L 258.257,154.337 L 259.526,154.912 L 260.892,155.426 L 262.289,155.849 L 262.698,155.945 L 263.791,149.742 L 266.795,150.272 L 265.702,156.473 L 266.603,156.562 L 268.061,156.610 L 269.520,156.562 L 270.421,156.473 L 269.328,150.272 L 272.332,149.742 L 273.425,155.945 L 273.834,155.849 L 275.231,155.426 L 276.597,154.912 L 277.866,154.337 L 274.712,148.875 L 277.354,147.350 L 280.507,152.812 L 281.639,152.000 L 282.767,151.074 L 283.833,150.077 L 284.119,149.770 L 279.294,145.722 L 281.255,143.386 L 286.078,147.433 L 286.606,146.698 L 287.377,145.457 L 288.065,144.170 L 288.439,143.345 L 282.522,141.192 L 283.564,138.326 L 289.483,140.480 L 289.605,140.078 Z" fill="none" stroke="#ff0000" stroke-width="0.1" fill-rule="evenodd"/>
<path d="M 321.705,145.847 L 323.726,144.149 L 326.052,140.505 L 326.999,136.862 L 327.029,133.219 L 325.361,126.773 L 322.994,122.316 L 320.150,118.680 L 314.458,114.180 L 310.817,112.629 L 307.172,112.002 L 301.708,112.970 L 298.061,115.450 L 296.236,117.785 L 295.000,120.522 L 294.311,124.162 L 294.366,127.803 L 296.231,134.650 L 299.896,140.524 L 305.321,145.190 L 310.778,147.470 L 316.335,147.799 L 321.705,145.847 Z M 313.136,129.691 L 313.093,129.974 L 313.024,130.253 L 312.927,130.523 L 312.804,130.782 L 312.656,131.028 L 312.485,131.259 L 312.292,131.472 L 312.080,131.665 L 311.850,131.835 L 311.603,131.983 L 311.344,132.106 L 311.074,132.202 L 310.795,132.272 L 310.511,132.314 L 310.224,132.329 L 309.938,132.314 L 309.654,132.272 L 309.375,132.202 L 309.105,132.106 L 308.846,131.983 L 308.599,131.835 L 308.369,131.665 L 308.156,131.472 L 307.963,131.259 L 307.793,131.028 L 307.645,130.782 L 307.522,130.523 L 307.425,130.253 L 307.356,129.974 L 307.313,129.691 L 307.299,129.404 L 307.313,129.117 L 307.356,128.833 L 307.425,128.555 L 307.522,128.285 L 307.645,128.024 L 307.793,127.779 L 307.963,127.548 L 308.156,127.335 L 308.369,127.143 L 308.599,126.971 L 308.846,126.824 L 309.105,126.701 L 309.375,126.605 L 309.654,126.535 L 309.938,126.493 L 310.224,126.479 L 310.511,126.493 L 310.795,126.535 L 311.074,126.605 L 311.344,126.701 L 311.603,126.824 L 311.850,126.971 L 312.080,127.143 L 312.292,127.335 L 312.485,127.548 L 312.656,127.779 L 312.804,128.024 L 312.927,128.285 L 313.024,128.555 L 313.093,128.833 L 313.136,129.117 L 313.149,129.404 L 313.136,129.691 Z" fill="none" stroke="#ff0000" stroke-width="0.1" fill-rule="evenodd"/>
<text x="123.25" y="57.74" font-size="6" fill="none" stroke="#0000ff" stroke-width="0.1" text-anchor="middle">10</text>
<text x="284.38" y="52.73" font-size="6" fill="none" stroke="#0000ff" stroke-width="0.1" text-anchor="middle">9</text>
<text x="389.28" y="44.90" font-size="6" fill="none" stroke="#0000ff" stroke-width="0.1" text-anchor="middle">8</text>
<text x="468.46" y="43.58" font-size="6" fill="none" stroke="#0000ff" stroke-width="0.1" text-anchor="middle">7</text>
<text x="543.36" y="42.02" font-size="6" fill="none" stroke="#0000ff" stroke-width="0.1" text-anchor="middle">6</text>
<text x="52.68" y="146.31" font-size="6" fill="none" stroke="#0000ff" stroke-width="0.1" text-anchor="middle">5</text>
<text x="118.47" y="143.88" font-size="6" fill="none" stroke="#0000ff" stroke-width="0.1" text-anchor="middle">4</text>
<text x="178.36" y="140.60" font-size="6" fill="none" stroke="#0000ff" stroke-width="0.1" text-anchor="middle">3</text>
<text x="230.41" y="136.32" font-size="6" fill="none" stroke="#0000ff" stroke-width="0.1" text-anchor="middle">2</text>
<text x="268.06" y="134.31" font-size="6" fill="none" stroke="#0000ff" stroke-width="0.1" text-anchor="middle">34</text>
<text x="319.63" y="129.83" font-size="6" fill="none" stroke="#0000ff" stroke-width="0.1" text-anchor="middle">1</text>
</svg>
