<svg xmlns="http://www.w3.org/2000/svg" width="600.0mm" height="400.0mm" viewBox="0 0 600.0 400.0">
<title>SculptGen sheet 2/6 — 3mm plywood — kerf 0.15mm</title>
<rect x="0" y="0" width="600.0" height="400.0" fill="none" stroke="#cccccc" stroke-width="0.1"/>
<path d="M 37.149,228.702 L 49.707,221.485 L 60.887,212.687 L 68.426,203.886 L 76.643,188.500 L 81.831,180.816 L 88.612,173.130 L 109.143,152.254 L 117.927,141.260 L 122.420,133.557 L 124.215,128.049 L 124.800,123.638 L 123.081,108.252 L 123.423,100.575 L 125.385,92.895 L 131.942,74.214 L 132.973,68.709 L 132.980,63.200 L 132.047,58.790 L 129.607,53.283 L 118.898,37.899 L 115.480,31.317 L 113.537,24.737 L 111.732,11.553 L 110.136,6.000 L 17.331,6.000 L 7.511,8.789 L 6.000,9.034 L 6.000,55.750 L 33.826,55.750 L 33.826,58.800 L 6.000,58.800 L 6.000,132.550 L 32.084,132.550 L 32.084,135.600 L 6.000,135.600 L 6.000,209.350 L 12.361,209.350 L 12.361,212.400 L 6.000,212.400 L 6.000,237.326 L 11.611,236.879 L 23.988,234.024 L 37.149,228.702 Z" fill="none" stroke="#ff0000" stroke-width="0.1" fill-rule="evenodd"/>
<path d="M 154.975,231.788 L 163.948,226.979 L 171.055,221.477 L 177.417,213.772 L 184.527,198.387 L 189.877,190.707 L 198.677,181.924 L 222.988,161.047 L 228.949,154.447 L 232.474,148.941 L 234.366,143.427 L 234.417,137.909 L 232.718,132.400 L 226.112,118.122 L 225.384,113.746 L 225.801,109.370 L 227.365,104.992 L 230.071,100.608 L 244.024,84.131 L 248.879,77.531 L 252.356,70.926 L 254.035,64.315 L 253.854,57.704 L 250.696,44.516 L 249.892,39.031 L 249.935,32.448 L 251.706,15.962 L 250.959,10.450 L 249.026,6.000 L 143.818,6.000 L 136.980,7.919 L 136.980,55.750 L 164.806,55.750 L 164.806,58.800 L 136.980,58.800 L 136.980,132.550 L 163.064,132.550 L 163.064,135.600 L 136.980,135.600 L 136.980,209.350 L 143.341,209.350 L 143.341,212.400 L 136.980,212.400 L 136.980,236.627 L 145.101,235.201 L 154.975,231.788 Z" fill="none" stroke="#ff0000" stroke-width="0.1" fill-rule="evenodd"/>
<path d="M 267.260,233.356 L 273.847,230.230 L 279.873,225.874 L 282.969,222.568 L 285.163,219.260 L 290.675,204.978 L 296.043,197.301 L 304.559,189.618 L 334.056,167.643 L 340.603,161.040 L 344.818,154.431 L 346.249,148.914 L 345.748,143.397 L 343.644,137.889 L 336.838,124.708 L 335.240,119.229 L 334.920,114.852 L 335.744,110.475 L 337.557,106.093 L 349.603,87.416 L 352.141,81.911 L 353.259,77.502 L 353.457,71.993 L 351.033,58.806 L 351.051,52.230 L 352.674,45.652 L 358.649,30.269 L 359.675,25.863 L 359.933,21.453 L 359.193,17.041 L 357.842,13.730 L 354.962,9.506 L 351.459,6.000 L 260.562,6.000 L 258.035,6.964 L 258.035,55.750 L 285.861,55.750 L 285.861,58.800 L 258.035,58.800 L 258.035,132.550 L 284.119,132.550 L 284.119,135.600 L 258.035,135.600 L 258.035,209.350 L 264.396,209.350 L 264.396,212.400 L 258.035,212.400 L 258.035,235.857 L 259.578,235.664 L 267.260,233.356 Z" fill="none" stroke="#ff0000" stroke-width="0.1" fill-rule="evenodd"/>
<path d="M 373.167,231.437 L 376.583,229.173 L 379.762,226.193 L 381.964,223.151 L 387.598,208.275 L 392.787,201.700 L 401.598,195.117 L 425.772,181.487 L 435.287,175.337 L 442.763,168.733 L 447.076,162.122 L 448.183,157.703 L 447.718,152.187 L 445.589,146.678 L 437.231,131.300 L 435.766,125.824 L 435.677,121.446 L 436.525,117.065 L 438.177,112.682 L 446.838,97.300 L 448.972,91.791 L 449.310,85.175 L 445.994,71.988 L 445.767,64.318 L 448.349,56.646 L 458.105,39.065 L 459.429,34.656 L 459.815,30.243 L 458.795,24.729 L 456.052,19.219 L 450.994,12.940 L 443.547,6.000 L 363.933,6.000 L 363.933,55.750 L 391.759,55.750 L 391.759,58.800 L 363.933,58.800 L 363.933,132.550 L 390.017,132.550 L 390.017,135.600 L 363.933,135.600 L 363.933,209.350 L 370.294,209.350 L 370.294,212.400 L 363.933,212.400 L 363.933,234.849 L 367.676,233.978 L 373.167,231.437 Z" fill="none" stroke="#ff0000" stroke-width="0.1" fill-rule="evenodd"/>
<path d="M 469.875,231.373 L 473.821,228.065 L 477.266,222.554 L 481.459,210.472 L 483.919,207.191 L 487.928,203.907 L 497.030,199.518 L 522.353,191.615 L 534.415,186.764 L 539.902,183.739 L 544.295,180.564 L 547.593,177.263 L 550.177,173.107 L 551.326,167.586 L 549.994,160.969 L 547.283,155.463 L 536.877,138.984 L 534.966,134.600 L 533.865,130.221 L 533.903,122.547 L 536.797,109.367 L 537.480,103.861 L 536.159,89.576 L 536.509,84.098 L 538.581,77.522 L 542.639,70.945 L 547.997,65.460 L 561.003,54.472 L 565.966,48.969 L 568.440,44.556 L 569.473,39.035 L 568.287,33.515 L 564.405,26.906 L 545.061,6.000 L 463.815,6.000 L 463.815,55.750 L 491.641,55.750 L 491.641,58.800 L 463.815,58.800 L 463.815,132.550 L 489.899,132.550 L 489.899,135.600 L 463.815,135.600 L 463.815,209.350 L 470.176,209.350 L 470.176,212.400 L 463.815,212.400 L 463.815,234.193 L 465.850,233.578 L 469.875,231.373 Z" fill="none" stroke="#ff0000" stroke-width="0.1" fill-rule="evenodd"/>
<text x="64.97" y="115.95" font-size="6" fill="none" stroke="#0000ff" stroke-width="0.1" text-anchor="middle">25</text>
<text x="183.20" y="125.26" font-size="6" fill="none" stroke="#0000ff" stroke-width="0.1" text-anchor="middle">26</text>
<text x="297.04" y="121.97" font-size="6" fill="none" stroke="#0000ff" stroke-width="0.1" text-anchor="middle">27</text>
<text x="400.02" y="119.26" font-size="6" fill="none" stroke="#0000ff" stroke-width="0.1" text-anchor="middle">28</text>
<text x="499.58" y="115.96" font-size="6" fill="none" stroke="#0000ff" stroke-width="0.1" text-anchor="middle">29</text>
</svg>
