<svg xmlns="http://www.w3.org/2000/svg" width="600.0mm" height="400.0mm" viewBox="0 0 600.0 400.0">
<title>SculptGen sheet 3/6 — 3mm plywood — kerf 0.15mm</title>
<rect x="0" y="0" width="600.0" height="400.0" fill="none" stroke="#cccccc" stroke-width="0.1"/>
<path d="M 12.322,229.166 L 15.231,224.753 L 19.648,212.227 L 21.937,209.393 L 26.191,206.607 L 30.561,205.054 L 36.030,203.999 L 68.905,201.551 L 78.774,200.070 L 87.548,198.047 L 95.229,195.257 L 101.816,191.647 L 106.675,187.412 L 109.376,182.994 L 110.256,177.472 L 108.785,170.857 L 105.625,164.254 L 96.860,149.969 L 93.423,143.383 L 90.954,136.799 L 87.738,124.713 L 84.386,115.913 L 79.801,108.212 L 68.491,93.929 L 66.528,90.644 L 65.415,87.367 L 65.363,85.193 L 66.467,81.923 L 71.978,75.349 L 79.897,69.476 L 96.333,60.288 L 101.821,56.675 L 106.307,52.265 L 108.468,47.844 L 108.555,42.319 L 105.978,35.704 L 91.300,14.825 L 86.395,6.000 L 6.000,6.000 L 6.000,55.750 L 33.826,55.750 L 33.826,58.800 L 6.000,58.800 L 6.000,132.550 L 32.084,132.550 L 32.084,135.600 L 6.000,135.600 L 6.000,209.350 L 12.361,209.350 L 12.361,212.400 L 6.000,212.400 L 6.000,233.700 L 6.352,233.575 L 12.322,229.166 Z" fill="none" stroke="#ff0000" stroke-width="0.1" fill-rule="evenodd"/>
<path d="M 121.173,225.850 L 124.277,215.956 L 125.710,212.929 L 127.888,210.339 L 131.157,208.243 L 135.525,206.895 L 140.990,206.306 L 177.153,208.415 L 185.929,207.938 L 194.705,206.390 L 207.866,202.328 L 218.071,197.315 L 224.884,191.809 L 227.371,188.500 L 228.957,185.188 L 230.325,177.480 L 229.946,164.291 L 230.313,157.706 L 231.357,152.221 L 234.861,140.134 L 235.518,135.725 L 235.057,130.212 L 232.825,124.700 L 229.814,120.506 L 226.349,116.988 L 217.109,110.389 L 208.405,105.990 L 187.104,97.200 L 177.053,91.713 L 170.755,86.234 L 168.589,81.873 L 169.036,78.620 L 171.620,75.350 L 195.788,58.871 L 200.199,54.463 L 202.585,50.047 L 203.262,45.629 L 202.418,40.115 L 192.916,17.038 L 191.513,11.556 L 190.917,6.000 L 114.256,6.000 L 114.256,55.750 L 142.082,55.750 L 142.082,58.800 L 114.256,58.800 L 114.256,132.550 L 140.340,132.550 L 140.340,135.600 L 114.256,135.600 L 114.256,209.350 L 120.617,209.350 L 120.617,212.400 L 114.256,212.400 L 114.256,233.013 L 118.133,230.265 L 121.173,225.850 Z" fill="none" stroke="#ff0000" stroke-width="0.1" fill-rule="evenodd"/>
<path d="M 245.841,225.849 L 248.786,216.103 L 250.470,212.677 L 253.717,209.399 L 257.507,207.547 L 262.972,206.381 L 269.537,206.101 L 300.221,208.426 L 312.285,208.132 L 321.060,206.717 L 328.738,204.702 L 336.417,201.864 L 343.154,198.414 L 349.145,194.011 L 353.223,189.606 L 356.117,185.203 L 364.283,169.824 L 368.495,164.338 L 380.674,151.151 L 383.522,146.745 L 384.864,143.434 L 385.597,139.022 L 385.236,134.610 L 383.944,130.203 L 381.873,125.797 L 374.801,115.747 L 363.834,104.805 L 353.963,97.420 L 344.092,91.855 L 334.221,87.790 L 311.890,80.717 L 307.687,78.528 L 305.343,76.350 L 304.482,74.186 L 304.810,72.025 L 306.913,68.747 L 312.506,62.153 L 315.286,57.747 L 317.235,52.237 L 317.634,47.824 L 317.000,43.414 L 315.244,37.911 L 305.572,15.939 L 304.254,10.459 L 304.033,6.000 L 242.460,6.000 L 239.518,7.251 L 239.518,55.750 L 267.344,55.750 L 267.344,58.800 L 239.518,58.800 L 239.518,132.550 L 265.602,132.550 L 265.602,135.600 L 239.518,135.600 L 239.518,209.350 L 245.879,209.350 L 245.879,212.400 L 239.518,212.400 L 239.518,232.907 L 243.021,230.264 L 245.841,225.849 Z" fill="none" stroke="#ff0000" stroke-width="0.1" fill-rule="evenodd"/>
<path d="M 393.709,228.996 L 396.511,224.584 L 399.605,214.692 L 401.221,211.411 L 404.166,208.131 L 408.688,205.516 L 414.704,203.751 L 421.816,202.789 L 453.595,201.755 L 465.657,200.707 L 476.629,198.000 L 485.001,193.852 L 488.967,190.545 L 492.011,186.690 L 498.728,171.850 L 502.963,165.400 L 508.732,159.785 L 522.105,149.898 L 527.048,145.496 L 530.407,141.087 L 532.482,135.571 L 532.615,128.957 L 530.753,121.252 L 523.242,101.474 L 517.705,81.693 L 515.504,77.286 L 512.199,72.880 L 508.766,69.577 L 504.041,66.124 L 478.834,52.452 L 471.170,47.381 L 463.506,40.592 L 449.258,25.100 L 437.195,14.927 L 428.415,9.723 L 418.536,6.639 L 411.949,6.000 L 404.270,6.195 L 389.597,8.087 L 389.597,54.485 L 417.423,54.485 L 417.423,57.535 L 389.597,57.535 L 389.597,131.285 L 415.681,131.285 L 415.681,134.335 L 389.597,134.335 L 389.597,208.085 L 395.958,208.085 L 395.958,211.135 L 389.597,211.135 L 389.597,232.221 L 391.281,231.206 L 393.709,228.996 Z" fill="none" stroke="#ff0000" stroke-width="0.1" fill-rule="evenodd"/>
<text x="46.03" y="120.31" font-size="6" fill="none" stroke="#0000ff" stroke-width="0.1" text-anchor="middle">30</text>
<text x="171.17" y="118.75" font-size="6" fill="none" stroke="#0000ff" stroke-width="0.1" text-anchor="middle">31</text>
<text x="308.93" y="120.77" font-size="6" fill="none" stroke="#0000ff" stroke-width="0.1" text-anchor="middle">14</text>
<text x="458.30" y="111.36" font-size="6" fill="none" stroke="#0000ff" stroke-width="0.1" text-anchor="middle">15</text>
</svg>
