<svg xmlns="http://www.w3.org/2000/svg" width="600.0mm" height="400.0mm" viewBox="0 0 600.0 400.0">
<title>SculptGen sheet 4/6 — 3mm plywood — kerf 0.15mm</title>
<rect x="0" y="0" width="600.0" height="400.0" fill="none" stroke="#cccccc" stroke-width="0.1"/>
<path d="M 49.199,224.960 L 56.985,220.985 L 60.182,218.419 L 62.749,215.470 L 64.581,212.161 L 65.683,208.552 L 66.908,193.465 L 68.680,185.786 L 72.918,175.906 L 81.905,159.424 L 84.777,151.721 L 85.480,147.313 L 85.413,142.905 L 82.930,129.727 L 83.906,124.263 L 86.087,120.987 L 90.705,116.601 L 111.684,101.039 L 119.363,94.139 L 122.545,90.217 L 124.439,86.908 L 125.754,82.494 L 125.767,79.176 L 124.424,74.760 L 121.529,70.350 L 117.258,65.948 L 104.652,54.963 L 100.136,49.479 L 98.399,46.197 L 97.090,41.817 L 96.174,27.535 L 94.722,22.023 L 90.871,16.084 L 84.457,11.002 L 75.491,7.352 L 65.613,6.011 L 56.836,6.337 L 33.823,9.287 L 20.685,9.296 L 8.644,7.017 L 6.000,6.000 L 6.000,47.557 L 33.826,47.557 L 33.826,50.607 L 6.000,50.607 L 6.000,124.357 L 32.084,124.357 L 32.084,127.407 L 6.000,127.407 L 6.000,201.157 L 12.361,201.157 L 12.361,204.207 L 6.000,204.207 L 6.000,229.807 L 10.812,230.295 L 26.757,229.785 L 39.324,227.870 L 49.199,224.960 Z" fill="none" stroke="#ff0000" stroke-width="0.1" fill-rule="evenodd"/>
<path d="M 157.624,224.143 L 164.212,220.780 L 168.433,217.344 L 172.355,211.836 L 178.654,197.553 L 183.188,190.970 L 189.490,184.386 L 208.123,169.005 L 217.169,160.209 L 223.774,151.411 L 233.910,133.833 L 239.361,127.250 L 245.322,121.762 L 261.732,108.576 L 267.226,103.075 L 269.666,99.769 L 271.639,95.737 L 272.479,92.047 L 272.447,88.731 L 270.338,82.117 L 264.848,74.411 L 258.467,68.222 L 239.819,52.433 L 235.167,46.946 L 227.525,35.959 L 222.695,30.457 L 216.237,24.958 L 210.234,21.076 L 200.360,16.558 L 189.387,13.887 L 180.610,13.340 L 160.887,13.942 L 148.844,12.405 L 135.702,8.494 L 129.767,6.000 L 129.767,47.225 L 157.593,47.225 L 157.593,50.275 L 129.767,50.275 L 129.767,124.025 L 155.851,124.025 L 155.851,127.075 L 129.767,127.075 L 129.767,200.825 L 136.128,200.825 L 136.128,203.875 L 129.767,203.875 L 129.767,229.004 L 130.199,229.027 L 140.359,228.354 L 149.942,226.586 L 157.624,224.143 Z" fill="none" stroke="#ff0000" stroke-width="0.1" fill-rule="evenodd"/>
<path d="M 282.458,224.664 L 285.467,220.253 L 288.999,210.361 L 290.687,207.077 L 293.472,203.795 L 298.324,200.509 L 303.623,198.316 L 309.804,196.577 L 337.200,191.437 L 349.263,188.411 L 359.501,184.028 L 362.720,181.822 L 365.738,178.741 L 368.361,174.103 L 372.075,160.916 L 375.309,154.337 L 379.790,148.854 L 394.823,134.569 L 397.954,130.162 L 399.856,125.752 L 400.672,121.341 L 400.533,115.833 L 396.671,98.250 L 395.884,90.571 L 396.469,85.093 L 400.140,73.008 L 400.861,67.495 L 399.678,61.975 L 396.066,56.461 L 390.927,51.981 L 383.244,47.611 L 372.851,43.256 L 348.169,34.867 L 338.310,30.974 L 328.452,26.149 L 309.821,15.470 L 298.853,10.687 L 284.595,6.886 L 276.479,6.000 L 276.479,50.152 L 304.305,50.152 L 304.305,53.202 L 276.479,53.202 L 276.479,126.952 L 302.563,126.952 L 302.563,130.002 L 276.479,130.002 L 276.479,203.752 L 282.840,203.752 L 282.840,206.802 L 276.479,206.802 L 276.479,228.770 L 279.885,226.873 L 282.458,224.664 Z" fill="none" stroke="#ff0000" stroke-width="0.1" fill-rule="evenodd"/>
<path d="M 419.042,224.048 L 422.874,221.668 L 428.040,216.335 L 433.660,206.442 L 436.851,202.056 L 441.430,197.671 L 448.039,193.283 L 460.116,187.770 L 495.184,175.122 L 503.141,171.308 L 509.898,166.906 L 516.148,160.300 L 524.519,146.013 L 528.411,140.525 L 533.270,135.036 L 545.539,122.950 L 550.107,117.447 L 553.458,110.835 L 554.201,105.319 L 553.482,100.904 L 551.679,96.493 L 545.623,88.168 L 537.944,80.979 L 516.088,63.513 L 510.900,58.026 L 498.640,42.642 L 492.849,37.142 L 486.943,32.742 L 477.653,27.581 L 467.786,23.942 L 437.090,18.198 L 429.427,16.069 L 404.861,6.000 L 404.861,47.321 L 432.687,47.321 L 432.687,50.371 L 404.861,50.371 L 404.861,124.121 L 430.945,124.121 L 430.945,127.171 L 404.861,127.171 L 404.861,200.921 L 411.222,200.921 L 411.222,203.971 L 404.861,203.971 L 404.861,227.957 L 413.687,226.250 L 419.042,224.048 Z" fill="none" stroke="#ff0000" stroke-width="0.1" fill-rule="evenodd"/>
<text x="47.20" y="118.79" font-size="6" fill="none" stroke="#0000ff" stroke-width="0.1" text-anchor="middle">20</text>
<text x="191.65" y="115.17" font-size="6" fill="none" stroke="#0000ff" stroke-width="0.1" text-anchor="middle">19</text>
<text x="338.54" y="118.59" font-size="6" fill="none" stroke="#0000ff" stroke-width="0.1" text-anchor="middle">16</text>
<text x="478.32" y="114.14" font-size="6" fill="none" stroke="#0000ff" stroke-width="0.1" text-anchor="middle">18</text>
</svg>
