<svg xmlns="http://www.w3.org/2000/svg" width="600.0mm" height="400.0mm" viewBox="0 0 600.0 400.0">
<title>SculptGen sheet 5/6 — 3mm plywood — kerf 0.15mm</title>
<rect x="0" y="0" width="600.0" height="400.0" fill="none" stroke="#cccccc" stroke-width="0.1"/>
<path d="M 12.972,224.980 L 15.883,222.772 L 19.428,218.362 L 23.863,208.470 L 26.623,204.087 L 29.853,200.802 L 34.960,197.440 L 41.527,194.550 L 49.440,192.026 L 89.420,182.138 L 98.517,178.720 L 106.267,174.436 L 110.014,171.131 L 112.628,167.824 L 119.748,154.637 L 123.522,149.151 L 139.341,131.568 L 142.233,126.056 L 143.094,120.535 L 141.605,113.919 L 137.921,107.311 L 120.197,86.431 L 114.604,78.748 L 110.806,71.068 L 107.247,58.985 L 105.438,54.579 L 101.746,49.073 L 97.172,44.668 L 90.853,40.382 L 83.924,36.967 L 45.912,23.028 L 14.129,8.524 L 6.000,6.000 L 6.000,48.256 L 33.826,48.256 L 33.826,51.306 L 6.000,51.306 L 6.000,125.056 L 32.084,125.056 L 32.084,128.106 L 6.000,128.106 L 6.000,201.856 L 12.361,201.856 L 12.361,204.906 L 6.000,204.906 L 6.000,227.678 L 8.490,227.184 L 12.972,224.980 Z" fill="none" stroke="#ff0000" stroke-width="0.1" fill-rule="evenodd"/>
<path d="M 197.085,146.734 L 202.536,141.307 L 206.613,134.913 L 218.020,113.173 L 225.731,102.312 L 233.324,95.473 L 236.933,93.452 L 240.543,92.218 L 244.151,91.789 L 247.756,92.195 L 253.172,94.453 L 258.596,98.681 L 267.657,107.753 L 274.526,113.195 L 282.166,117.808 L 291.237,121.573 L 300.310,123.549 L 307.572,123.742 L 315.485,122.264 L 323.123,118.633 L 329.329,113.184 L 333.122,107.733 L 336.084,100.471 L 337.344,93.208 L 337.231,85.947 L 335.409,76.874 L 331.866,67.804 L 327.794,60.549 L 322.488,53.293 L 316.677,47.053 L 309.422,41.008 L 302.165,36.489 L 291.282,32.029 L 273.160,28.056 L 262.296,24.735 L 227.869,9.266 L 216.984,6.432 L 207.908,6.000 L 198.831,7.607 L 190.273,11.604 L 185.560,15.237 L 180.536,20.681 L 175.743,27.938 L 171.607,36.148 L 151.083,85.931 L 148.005,96.812 L 147.094,105.886 L 148.048,114.845 L 150.360,122.222 L 155.307,131.116 L 160.752,137.485 L 168.010,143.399 L 175.272,147.338 L 184.351,149.782 L 190.915,149.445 L 197.085,146.734 Z M 295.411,80.606 L 295.368,80.890 L 295.299,81.169 L 295.202,81.439 L 295.080,81.698 L 294.931,81.944 L 294.761,82.175 L 294.568,82.387 L 294.355,82.580 L 294.125,82.751 L 293.878,82.898 L 293.619,83.021 L 293.349,83.117 L 293.070,83.188 L 292.786,83.230 L 292.500,83.244 L 292.213,83.230 L 291.929,83.188 L 291.651,83.117 L 291.380,83.021 L 291.121,82.898 L 290.874,82.751 L 290.644,82.580 L 290.432,82.387 L 290.239,82.175 L 290.068,81.944 L 289.920,81.698 L 289.797,81.439 L 289.701,81.169 L 289.631,80.890 L 289.588,80.606 L 289.575,80.319 L 289.588,80.033 L 289.631,79.748 L 289.701,79.470 L 289.797,79.200 L 289.920,78.940 L 290.068,78.694 L 290.239,78.463 L 290.432,78.250 L 290.644,78.058 L 290.874,77.887 L 291.121,77.740 L 291.380,77.617 L 291.651,77.520 L 291.929,77.450 L 292.213,77.408 L 292.500,77.394 L 292.786,77.408 L 293.070,77.450 L 293.349,77.520 L 293.619,77.617 L 293.878,77.740 L 294.125,77.887 L 294.355,78.058 L 294.568,78.250 L 294.761,78.463 L 294.931,78.694 L 295.080,78.940 L 295.202,79.200 L 295.299,79.470 L 295.368,79.748 L 295.411,80.033 L 295.425,80.319 L 295.411,80.606 Z" fill="none" stroke="#ff0000" stroke-width="0.1" fill-rule="evenodd"/>
<path d="M 378.899,135.828 L 382.537,133.630 L 387.986,128.031 L 403.605,102.468 L 412.115,91.605 L 416.963,87.168 L 420.578,84.655 L 426.000,82.120 L 429.609,81.278 L 433.217,81.159 L 436.823,81.825 L 442.241,84.457 L 447.665,89.129 L 455.972,98.853 L 462.164,104.903 L 469.419,110.424 L 478.490,115.363 L 487.562,118.335 L 494.824,119.288 L 502.088,118.825 L 509.351,116.617 L 514.877,113.357 L 520.252,108.063 L 523.700,102.458 L 525.701,96.961 L 526.790,89.746 L 526.458,82.485 L 524.875,75.225 L 521.278,66.154 L 514.548,55.272 L 506.435,46.202 L 497.237,38.947 L 487.608,33.856 L 478.538,30.981 L 460.417,27.957 L 449.555,24.950 L 440.501,21.210 L 417.763,9.951 L 409.686,7.221 L 402.427,6.000 L 395.167,6.000 L 387.904,7.423 L 382.455,9.650 L 376.534,13.586 L 371.562,18.561 L 367.348,24.475 L 363.484,31.730 L 358.998,42.607 L 345.243,80.660 L 342.556,90.200 L 341.344,98.799 L 341.839,107.873 L 343.792,115.136 L 347.503,122.397 L 351.635,127.600 L 357.082,132.275 L 364.346,136.043 L 369.801,137.281 L 375.636,136.925 L 378.899,135.828 Z M 484.483,77.146 L 484.440,77.429 L 484.371,77.708 L 484.275,77.978 L 484.152,78.237 L 484.004,78.483 L 483.833,78.714 L 483.640,78.927 L 483.427,79.120 L 483.197,79.291 L 482.951,79.438 L 482.691,79.561 L 482.421,79.657 L 482.142,79.727 L 481.859,79.769 L 481.572,79.784 L 481.286,79.769 L 481.002,79.727 L 480.723,79.657 L 480.453,79.561 L 480.193,79.438 L 479.947,79.291 L 479.717,79.120 L 479.504,78.927 L 479.311,78.714 L 479.141,78.483 L 478.992,78.237 L 478.869,77.978 L 478.773,77.708 L 478.704,77.429 L 478.661,77.146 L 478.647,76.859 L 478.661,76.572 L 478.704,76.288 L 478.773,76.010 L 478.869,75.740 L 478.992,75.479 L 479.141,75.234 L 479.311,75.003 L 479.504,74.790 L 479.717,74.598 L 479.947,74.426 L 480.193,74.279 L 480.453,74.156 L 480.723,74.060 L 481.002,73.990 L 481.285,73.948 L 481.572,73.934 L 481.859,73.948 L 482.142,73.990 L 482.421,74.060 L 482.691,74.156 L 482.951,74.279 L 483.197,74.426 L 483.427,74.598 L 483.640,74.790 L 483.833,75.003 L 484.004,75.234 L 484.152,75.479 L 484.275,75.740 L 484.371,76.010 L 484.440,76.288 L 484.483,76.572 L 484.497,76.859 L 484.483,77.146 Z" fill="none" stroke="#ff0000" stroke-width="0.1" fill-rule="evenodd"/>
<path d="M 134.196,313.798 L 135.166,309.640 L 135.861,305.428 L 136.279,301.180 L 136.369,298.438 L 108.592,298.438 L 108.592,295.388 L 136.369,295.388 L 136.279,292.646 L 135.861,288.398 L 135.166,284.187 L 134.196,280.029 L 132.987,276.042 L 106.858,285.552 L 105.816,282.686 L 131.918,273.185 L 131.454,271.948 L 129.692,268.061 L 127.679,264.296 L 125.425,260.670 L 122.939,257.200 L 122.100,256.180 L 100.821,274.036 L 98.860,271.699 L 120.160,253.827 L 117.313,250.785 L 114.197,247.867 L 110.897,245.159 L 107.427,242.673 L 105.097,241.224 L 91.209,265.279 L 88.568,263.754 L 102.456,239.699 L 100.037,238.406 L 96.149,236.644 L 92.154,235.140 L 88.069,233.902 L 84.010,232.955 L 79.183,260.338 L 76.178,259.808 L 81.003,232.452 L 79.699,232.237 L 75.451,231.818 L 71.184,231.678 L 66.918,231.818 L 62.670,232.237 L 61.366,232.452 L 66.191,259.808 L 63.186,260.338 L 58.359,232.955 L 54.300,233.902 L 50.215,235.140 L 46.220,236.644 L 42.332,238.406 L 39.913,239.699 L 53.801,263.754 L 51.160,265.279 L 37.272,241.224 L 34.942,242.673 L 31.472,245.159 L 28.172,247.867 L 25.056,250.785 L 22.209,253.827 L 43.509,271.699 L 41.548,274.036 L 20.269,256.180 L 19.430,257.200 L 16.944,260.670 L 14.690,264.296 L 12.677,268.061 L 10.915,271.948 L 10.451,273.185 L 36.553,282.686 L 35.511,285.552 L 9.382,276.042 L 8.173,280.029 L 7.203,284.187 L 6.508,288.398 L 6.090,292.646 L 6.000,295.388 L 33.776,295.388 L 33.776,298.438 L 6.000,298.438 L 6.090,301.180 L 6.508,305.428 L 7.203,309.640 L 8.173,313.798 L 9.382,317.785 L 35.511,308.274 L 36.553,311.140 L 10.451,320.642 L 10.915,321.878 L 12.677,325.765 L 14.690,329.531 L 16.944,333.156 L 19.430,336.626 L 20.269,337.646 L 41.548,319.791 L 43.509,322.127 L 22.209,340.000 L 25.056,343.041 L 28.172,345.960 L 31.472,348.668 L 34.942,351.154 L 37.272,352.603 L 51.160,328.548 L 53.801,330.073 L 39.913,354.128 L 42.332,355.420 L 46.220,357.183 L 50.215,358.686 L 54.300,359.925 L 58.359,360.871 L 63.186,333.488 L 66.191,334.018 L 61.366,361.375 L 62.670,361.590 L 66.918,362.008 L 71.184,362.148 L 75.451,362.008 L 79.699,361.590 L 81.003,361.375 L 76.178,334.018 L 79.183,333.488 L 84.010,360.871 L 88.069,359.925 L 92.154,358.686 L 96.149,357.183 L 100.037,355.420 L 102.456,354.128 L 88.568,330.073 L 91.209,328.548 L 105.097,352.603 L 107.427,351.154 L 110.897,348.668 L 114.197,345.960 L 117.313,343.041 L 120.160,340.000 L 98.860,322.127 L 100.821,319.791 L 122.100,337.646 L 122.939,336.626 L 125.425,333.156 L 127.679,329.531 L 129.692,325.765 L 131.454,321.878 L 131.918,320.642 L 105.816,311.140 L 106.858,308.274 L 132.987,317.785 L 134.196,313.798 Z" fill="none" stroke="#ff0000" stroke-width="0.1" fill-rule="evenodd"/>
<path d="M 261.714,309.411 L 262.632,305.475 L 263.290,301.488 L 263.686,297.467 L 263.768,294.953 L 237.734,294.953 L 237.734,291.903 L 263.768,291.903 L 263.686,289.389 L 263.290,285.368 L 262.632,281.382 L 261.714,277.446 L 260.593,273.750 L 236.105,282.663 L 235.062,279.797 L 259.529,270.891 L 259.118,269.797 L 257.450,266.117 L 255.545,262.554 L 253.412,259.121 L 251.058,255.837 L 250.316,254.934 L 230.371,271.671 L 228.410,269.334 L 248.372,252.584 L 245.733,249.764 L 242.783,247.002 L 239.659,244.439 L 236.375,242.085 L 234.239,240.757 L 221.222,263.303 L 218.581,261.778 L 231.598,239.232 L 229.380,238.047 L 225.699,236.379 L 221.918,234.955 L 218.051,233.783 L 214.288,232.905 L 209.764,258.569 L 206.760,258.039 L 211.281,232.396 L 210.128,232.207 L 206.107,231.810 L 202.068,231.678 L 198.030,231.810 L 194.009,232.207 L 192.855,232.396 L 197.377,258.039 L 194.373,258.569 L 189.849,232.905 L 186.086,233.783 L 182.219,234.955 L 178.438,236.379 L 174.757,238.047 L 172.539,239.232 L 185.556,261.778 L 182.915,263.303 L 169.898,240.757 L 167.762,242.085 L 164.478,244.439 L 161.354,247.002 L 158.404,249.764 L 155.765,252.584 L 175.727,269.334 L 173.766,271.671 L 153.821,254.934 L 153.079,255.837 L 150.725,259.121 L 148.591,262.554 L 146.687,266.117 L 145.019,269.797 L 144.608,270.891 L 169.075,279.797 L 168.032,282.663 L 143.544,273.750 L 142.423,277.446 L 141.505,281.382 L 140.847,285.368 L 140.451,289.389 L 140.369,291.903 L 166.402,291.903 L 166.402,294.953 L 140.369,294.953 L 140.451,297.467 L 140.847,301.488 L 141.505,305.475 L 142.423,309.411 L 143.544,313.107 L 168.032,304.193 L 169.075,307.059 L 144.608,315.966 L 145.019,317.059 L 146.687,320.739 L 148.591,324.303 L 150.725,327.735 L 153.079,331.019 L 153.821,331.922 L 173.766,315.186 L 175.727,317.522 L 155.765,334.273 L 158.404,337.092 L 161.354,339.855 L 164.478,342.418 L 167.762,344.772 L 169.898,346.100 L 182.915,323.554 L 185.556,325.079 L 172.539,347.625 L 174.757,348.809 L 178.438,350.478 L 182.219,351.901 L 186.086,353.074 L 189.849,353.951 L 194.373,328.287 L 197.377,328.817 L 192.855,354.460 L 194.009,354.650 L 198.030,355.046 L 202.068,355.178 L 206.107,355.046 L 210.128,354.650 L 211.281,354.460 L 206.760,328.817 L 209.764,328.287 L 214.288,353.951 L 218.051,353.074 L 221.918,351.901 L 225.699,350.478 L 229.380,348.809 L 231.598,347.625 L 218.581,325.079 L 221.222,323.554 L 234.239,346.100 L 236.375,344.772 L 239.659,342.418 L 242.783,339.855 L 245.733,337.092 L 248.372,334.273 L 228.410,317.522 L 230.371,315.186 L 250.316,331.922 L 251.058,331.019 L 253.412,327.735 L 255.545,324.303 L 257.450,320.739 L 259.118,317.059 L 259.529,315.966 L 235.062,307.059 L 236.105,304.193 L 260.593,313.107 L 261.714,309.411 Z" fill="none" stroke="#ff0000" stroke-width="0.1" fill-rule="evenodd"/>
<path d="M 297.826,342.656 L 301.461,339.196 L 318.223,316.651 L 328.634,305.328 L 334.061,300.975 L 339.486,297.823 L 344.907,295.904 L 348.517,295.379 L 352.126,295.533 L 355.733,296.465 L 361.151,299.518 L 366.576,304.745 L 375.487,316.651 L 381.074,322.961 L 388.329,329.362 L 395.586,334.124 L 404.658,338.100 L 411.919,339.768 L 419.182,340.021 L 426.447,338.633 L 431.898,336.218 L 437.347,332.091 L 441.131,327.516 L 443.930,322.067 L 445.470,316.617 L 446.024,309.355 L 445.493,303.908 L 443.678,296.648 L 438.736,285.766 L 435.234,280.323 L 430.102,273.950 L 421.033,265.603 L 410.151,259.032 L 404.315,256.740 L 397.447,255.008 L 377.515,252.960 L 366.654,250.618 L 355.793,246.222 L 335.860,235.804 L 328.595,233.184 L 317.714,231.678 L 312.265,232.061 L 306.815,233.335 L 299.598,236.818 L 295.051,240.450 L 290.346,245.897 L 286.050,253.154 L 282.240,262.221 L 278.723,273.097 L 270.530,301.773 L 268.219,312.970 L 267.768,320.229 L 268.595,327.491 L 270.535,333.380 L 273.498,338.392 L 277.805,342.774 L 283.155,345.666 L 288.724,346.425 L 292.515,345.665 L 297.826,342.656 Z M 403.397,298.571 L 403.355,298.855 L 403.285,299.134 L 403.189,299.404 L 403.066,299.663 L 402.918,299.909 L 402.747,300.140 L 402.554,300.352 L 402.342,300.545 L 402.112,300.716 L 401.865,300.863 L 401.605,300.986 L 401.335,301.083 L 401.057,301.153 L 400.773,301.195 L 400.486,301.209 L 400.200,301.195 L 399.916,301.153 L 399.637,301.083 L 399.367,300.986 L 399.108,300.863 L 398.861,300.716 L 398.631,300.545 L 398.418,300.352 L 398.225,300.140 L 398.055,299.909 L 397.906,299.663 L 397.784,299.404 L 397.687,299.134 L 397.618,298.855 L 397.575,298.571 L 397.561,298.285 L 397.575,297.998 L 397.618,297.713 L 397.687,297.435 L 397.784,297.165 L 397.906,296.905 L 398.055,296.659 L 398.225,296.428 L 398.418,296.216 L 398.631,296.024 L 398.861,295.852 L 399.108,295.705 L 399.367,295.582 L 399.637,295.485 L 399.916,295.415 L 400.199,295.373 L 400.486,295.360 L 400.773,295.373 L 401.057,295.415 L 401.335,295.485 L 401.605,295.582 L 401.865,295.705 L 402.111,295.852 L 402.342,296.024 L 402.554,296.216 L 402.747,296.428 L 402.918,296.659 L 403.066,296.905 L 403.189,297.165 L 403.285,297.435 L 403.355,297.713 L 403.397,297.998 L 403.411,298.285 L 403.397,298.571 Z" fill="none" stroke="#ff0000" stroke-width="0.1" fill-rule="evenodd"/>
<text x="74.17" y="117.23" font-size="6" fill="none" stroke="#0000ff" stroke-width="0.1" text-anchor="middle">17</text>
<text x="222.56" y="77.97" font-size="6" fill="none" stroke="#0000ff" stroke-width="0.1" text-anchor="middle">13</text>
<text x="435.95" y="70.04" font-size="6" fill="none" stroke="#0000ff" stroke-width="0.1" text-anchor="middle">12</text>
<text x="71.18" y="296.91" font-size="6" fill="none" stroke="#0000ff" stroke-width="0.1" text-anchor="middle">32</text>
<text x="202.07" y="293.43" font-size="6" fill="none" stroke="#0000ff" stroke-width="0.1" text-anchor="middle">33</text>
<text x="357.32" y="290.56" font-size="6" fill="none" stroke="#0000ff" stroke-width="0.1" text-anchor="middle">11</text>
</svg>
