<svg xmlns="http://www.w3.org/2000/svg" width="600.0mm" height="400.0mm" viewBox="0 0 600.0 400.0">
<title>SculptGen sheet 3/5 Ś 3mm plywood Ś kerf 0.15mm</title>
<rect x="0" y="0" width="600.0" height="400.0" fill="none" stroke="#cccccc" stroke-width="0.1"/>
<path d="M 170.739,301.743 L 170.739,155.775 L 173.789,155.775 L 173.789,301.165 L 176.462,300.657 L 191.266,296.396 L 200.781,292.462 L 209.307,287.007 L 212.566,283.241 L 213.902,280.442 L 214.644,277.588 L 215.801,266.340 L 216.960,262.604 L 218.957,258.868 L 225.634,251.379 L 241.503,238.253 L 245.899,232.609 L 246.873,228.828 L 246.216,225.051 L 244.248,221.286 L 234.989,208.165 L 233.637,204.434 L 233.353,200.706 L 234.198,196.976 L 236.111,193.242 L 247.463,180.121 L 250.118,176.361 L 251.553,172.588 L 251.443,168.806 L 248.512,163.157 L 238.374,151.903 L 235.625,148.161 L 233.798,144.426 L 233.039,140.696 L 233.380,136.967 L 234.761,133.235 L 244.029,120.115 L 246.120,116.353 L 247.041,112.579 L 246.497,108.799 L 243.081,103.154 L 230.491,90.027 L 227.763,86.286 L 225.932,82.550 L 225.068,78.819 L 225.450,73.216 L 230.292,60.094 L 230.892,56.325 L 230.308,52.551 L 228.320,48.782 L 224.981,45.021 L 220.562,41.266 L 185.831,15.536 L 178.344,11.647 L 170.854,9.171 L 161.499,7.699 L 150.278,6.745 L 131.581,6.000 L 118.493,6.210 L 99.794,7.311 L 86.698,9.171 L 77.337,12.471 L 67.980,18.079 L 34.673,43.144 L 29.234,48.781 L 27.244,52.554 L 26.831,58.210 L 32.103,73.217 L 32.571,76.951 L 32.173,80.683 L 30.818,84.417 L 28.525,88.154 L 14.473,103.153 L 11.872,106.916 L 10.596,110.686 L 10.513,112.582 L 11.433,116.353 L 13.524,120.115 L 22.791,133.235 L 24.173,136.967 L 24.514,140.696 L 23.755,144.426 L 21.928,148.161 L 19.179,151.903 L 9.041,163.157 L 6.110,168.806 L 6.000,172.588 L 7.435,176.361 L 10.090,180.121 L 21.442,193.242 L 23.354,196.976 L 24.200,200.706 L 23.915,204.434 L 22.563,208.165 L 13.305,221.286 L 11.337,225.051 L 10.680,228.824 L 10.959,230.722 L 12.767,234.492 L 16.052,238.254 L 31.920,251.380 L 37.257,256.997 L 39.701,260.735 L 41.268,264.470 L 42.909,277.593 L 44.985,283.240 L 49.282,287.852 L 57.131,292.642 L 66.286,296.396 L 77.350,299.737 L 83.763,301.149 L 83.763,155.775 L 86.813,155.775 L 86.813,301.821 L 90.441,302.620 L 101.662,304.330 L 105.507,304.610 L 105.507,155.775 L 108.557,155.775 L 108.557,304.831 L 114.754,305.281 L 139.060,305.342 L 148.995,304.637 L 148.995,155.775 L 152.045,155.775 L 152.045,304.421 L 159.381,303.900 L 170.739,301.743 Z M 127.251,305.104 L 127.251,155.775 L 130.301,155.775 L 130.301,305.104 L 127.251,305.104 Z" fill="none" stroke="#ff0000" stroke-width="0.1" fill-rule="evenodd"/>
<path d="M 420.292,301.743 L 420.292,155.775 L 423.342,155.775 L 423.342,301.165 L 426.015,300.657 L 440.819,296.396 L 450.334,292.462 L 458.860,287.007 L 462.119,283.241 L 463.455,280.442 L 464.197,277.588 L 465.354,266.340 L 466.513,262.604 L 468.510,258.868 L 475.186,251.379 L 491.055,238.253 L 495.452,232.609 L 496.426,228.828 L 495.769,225.051 L 493.800,221.286 L 484.542,208.165 L 483.190,204.434 L 482.906,200.706 L 483.751,196.976 L 485.664,193.242 L 497.015,180.121 L 499.671,176.361 L 501.106,172.588 L 500.996,168.806 L 498.064,163.157 L 487.926,151.903 L 485.178,148.161 L 483.351,144.426 L 482.592,140.696 L 482.933,136.967 L 484.314,133.235 L 493.582,120.115 L 495.673,116.353 L 496.594,112.579 L 496.050,108.799 L 492.634,103.154 L 480.044,90.027 L 477.316,86.286 L 475.484,82.550 L 474.621,78.819 L 475.003,73.216 L 479.845,60.094 L 480.445,56.325 L 479.860,52.551 L 477.872,48.782 L 474.534,45.021 L 470.115,41.266 L 435.384,15.536 L 427.896,11.647 L 420.407,9.171 L 411.052,7.699 L 399.831,6.745 L 381.134,6.000 L 368.045,6.210 L 349.347,7.311 L 336.251,9.171 L 326.890,12.471 L 317.533,18.079 L 284.225,43.144 L 278.787,48.781 L 276.797,52.554 L 276.384,58.210 L 281.656,73.217 L 282.124,76.951 L 281.726,80.683 L 280.371,84.417 L 278.078,88.154 L 264.026,103.153 L 261.425,106.916 L 260.149,110.686 L 260.066,112.582 L 260.986,116.353 L 263.077,120.115 L 272.344,133.235 L 273.725,136.967 L 274.067,140.696 L 273.308,144.426 L 271.481,148.161 L 268.732,151.903 L 258.594,163.157 L 255.663,168.806 L 255.553,172.588 L 256.987,176.361 L 259.643,180.121 L 270.995,193.242 L 272.907,196.976 L 273.753,200.706 L 273.468,204.434 L 272.116,208.165 L 262.858,221.286 L 260.889,225.051 L 260.233,228.824 L 260.512,230.722 L 262.320,234.492 L 265.605,238.254 L 281.473,251.380 L 286.810,256.997 L 289.254,260.735 L 290.821,264.470 L 292.462,277.593 L 294.538,283.240 L 298.834,287.852 L 306.684,292.642 L 315.839,296.396 L 326.903,299.737 L 333.316,301.149 L 333.316,155.775 L 336.366,155.775 L 336.366,301.821 L 339.993,302.620 L 351.215,304.330 L 355.060,304.610 L 355.060,155.775 L 358.110,155.775 L 358.110,304.831 L 364.306,305.281 L 388.613,305.342 L 398.548,304.637 L 398.548,155.775 L 401.598,155.775 L 401.598,304.421 L 408.934,303.900 L 420.292,301.743 Z M 376.804,305.104 L 376.804,155.775 L 379.854,155.775 L 379.854,305.104 L 376.804,305.104 Z" fill="none" stroke="#ff0000" stroke-width="0.1" fill-rule="evenodd"/>
<text x="128.78" y="153.84" font-size="6" fill="none" stroke="#0000ff" stroke-width="0.1" text-anchor="middle">2</text>
<text x="378.33" y="153.84" font-size="6" fill="none" stroke="#0000ff" stroke-width="0.1" text-anchor="middle">4</text>
</svg>
