<svg xmlns="http://www.w3.org/2000/svg" width="600.0mm" height="400.0mm" viewBox="0 0 600.0 400.0">
<title>SculptGen sheet 1/5 — 3mm plywood — kerf 0.15mm</title>
<rect x="0" y="0" width="600.0" height="400.0" fill="none" stroke="#cccccc" stroke-width="0.1"/>
<path d="M 184.083,301.527 L 199.047,297.007 L 208.404,292.874 L 216.304,287.378 L 219.217,283.610 L 220.607,279.838 L 221.346,266.709 L 222.198,262.972 L 223.824,259.236 L 229.567,251.749 L 243.581,238.623 L 246.403,234.859 L 247.816,231.085 L 247.625,227.306 L 245.985,223.535 L 235.950,210.407 L 233.904,206.669 L 232.816,202.937 L 232.780,199.210 L 234.689,193.608 L 245.880,178.612 L 247.672,174.844 L 248.101,171.063 L 245.968,165.409 L 232.836,150.403 L 230.463,146.665 L 229.077,142.931 L 228.752,139.204 L 230.209,133.604 L 240.067,118.605 L 241.834,112.954 L 241.295,109.175 L 239.365,105.405 L 225.785,90.402 L 222.199,84.790 L 220.942,81.058 L 220.619,77.325 L 221.161,73.592 L 226.744,58.585 L 226.545,52.930 L 224.732,49.156 L 219.614,43.518 L 187.849,18.177 L 180.362,13.274 L 171.702,9.751 L 163.664,7.874 L 156.032,6.864 L 131.724,6.000 L 101.810,6.550 L 90.586,7.847 L 83.098,9.541 L 73.740,13.274 L 66.253,18.177 L 34.487,43.518 L 29.369,49.156 L 27.556,52.930 L 27.357,58.585 L 32.940,73.592 L 33.482,77.325 L 33.160,81.058 L 31.902,84.790 L 28.316,90.402 L 14.736,105.405 L 12.806,109.175 L 12.267,112.954 L 14.034,118.605 L 23.892,133.604 L 25.349,139.204 L 25.024,142.931 L 23.638,146.665 L 21.265,150.403 L 8.133,165.409 L 6.000,171.063 L 6.429,174.844 L 8.221,178.612 L 19.412,193.608 L 21.321,199.210 L 21.285,202.937 L 20.197,206.669 L 18.152,210.407 L 9.352,221.656 L 7.144,225.419 L 6.184,229.195 L 6.797,232.976 L 10.519,238.622 L 24.534,251.749 L 30.277,259.236 L 31.903,262.972 L 32.755,266.709 L 33.494,279.842 L 36.114,285.494 L 41.952,290.653 L 49.852,294.891 L 59.744,298.644 L 71.888,301.964 L 82.038,303.849 L 82.038,157.409 L 85.088,157.409 L 85.088,304.269 L 94.331,305.305 L 111.160,306.063 L 141.072,306.091 L 156.030,305.572 L 169.014,304.311 L 169.014,157.409 L 172.064,157.409 L 172.064,303.777 L 184.083,301.527 Z M 147.270,156.148 L 150.320,156.148 L 150.320,305.477 L 147.270,305.477 L 147.270,156.148 Z M 125.526,156.148 L 128.576,156.148 L 128.576,305.477 L 125.526,305.477 L 125.526,156.148 Z M 103.782,156.148 L 106.832,156.148 L 106.832,305.477 L 103.782,305.477 L 103.782,156.148 Z" fill="none" stroke="#ff0000" stroke-width="0.1" fill-rule="evenodd"/>
<path d="M 427.995,301.395 L 439.219,297.679 L 449.063,292.991 L 456.067,287.678 L 457.948,285.412 L 459.831,281.702 L 460.643,277.937 L 461.393,266.692 L 463.977,259.213 L 469.628,251.727 L 485.147,236.723 L 488.238,231.071 L 488.138,225.411 L 486.554,221.644 L 478.943,208.523 L 477.936,204.792 L 477.905,201.062 L 478.919,197.332 L 482.305,191.722 L 495.725,176.719 L 497.548,172.948 L 497.904,169.167 L 495.761,163.516 L 484.821,148.516 L 483.414,144.785 L 483.061,141.056 L 483.821,137.326 L 485.636,133.593 L 498.225,118.595 L 500.340,114.828 L 501.035,111.054 L 500.776,109.156 L 499.117,105.386 L 484.182,88.508 L 482.009,84.771 L 480.825,81.039 L 480.656,77.308 L 481.412,73.575 L 488.046,58.570 L 488.281,54.796 L 487.864,52.901 L 485.826,49.131 L 480.028,43.494 L 444.840,18.806 L 435.484,13.277 L 425.765,9.730 L 425.536,9.682 L 425.536,155.977 L 422.486,155.977 L 422.486,9.041 L 416.771,7.840 L 403.678,6.489 L 366.286,6.000 L 354.371,6.543 L 354.371,155.977 L 351.321,155.977 L 351.321,6.684 L 341.978,7.110 L 332.623,8.506 L 330.210,9.111 L 330.217,9.169 L 330.650,9.169 L 330.650,155.977 L 327.600,155.977 L 327.600,9.764 L 325.138,10.380 L 317.652,13.277 L 312.037,16.339 L 275.599,41.617 L 268.908,47.252 L 265.273,52.898 L 264.856,54.796 L 265.090,58.570 L 271.724,73.575 L 272.480,77.308 L 272.312,81.039 L 271.127,84.771 L 268.954,88.508 L 254.019,105.386 L 252.360,109.156 L 252.101,111.054 L 252.797,114.828 L 254.911,118.595 L 267.500,133.593 L 269.315,137.326 L 270.075,141.056 L 269.722,144.785 L 268.315,148.516 L 257.376,163.516 L 255.232,169.167 L 255.588,172.948 L 257.411,176.719 L 270.831,191.722 L 274.217,197.332 L 275.231,201.062 L 275.200,204.792 L 274.193,208.523 L 266.582,221.644 L 264.998,225.411 L 264.898,231.071 L 267.989,236.723 L 283.508,251.727 L 289.159,259.213 L 291.743,266.693 L 292.797,279.820 L 295.224,285.470 L 300.813,290.880 L 307.556,294.869 L 316.380,298.623 L 327.011,301.890 L 336.364,303.877 L 347.586,305.312 L 362.546,306.046 L 388.720,306.075 L 401.809,305.599 L 414.478,304.251 L 427.995,301.395 Z M 398.765,6.648 L 401.815,6.648 L 401.815,155.977 L 398.765,155.977 L 398.765,6.648 Z M 375.043,6.648 L 378.093,6.648 L 378.093,155.977 L 375.043,155.977 L 375.043,6.648 Z" fill="none" stroke="#ff0000" stroke-width="0.1" fill-rule="evenodd"/>
<text x="127.05" y="153.28" font-size="6" fill="none" stroke="#0000ff" stroke-width="0.1" text-anchor="middle">3</text>
<text x="376.57" y="159.75" font-size="6" fill="none" stroke="#0000ff" stroke-width="0.1" text-anchor="middle">8</text>
</svg>
