<svg xmlns="http://www.w3.org/2000/svg" width="600.0mm" height="400.0mm" viewBox="0 0 600.0 400.0">
<title>SculptGen sheet 2/5 Ś 3mm plywood Ś kerf 0.15mm</title>
<rect x="0" y="0" width="600.0" height="400.0" fill="none" stroke="#cccccc" stroke-width="0.1"/>
<path d="M 178.655,301.536 L 191.749,297.663 L 203.042,292.621 L 210.468,287.230 L 212.348,285.085 L 214.401,281.333 L 215.332,277.568 L 216.336,266.323 L 219.101,258.843 L 224.989,251.357 L 239.282,238.231 L 243.400,232.589 L 244.423,228.812 L 243.972,225.036 L 242.323,221.271 L 234.255,208.150 L 233.119,204.418 L 232.975,200.689 L 233.887,196.959 L 237.176,191.350 L 250.356,176.347 L 252.040,172.573 L 252.199,168.791 L 249.659,163.141 L 237.286,148.142 L 235.068,142.541 L 234.989,138.816 L 236.046,135.085 L 238.143,131.349 L 247.494,120.101 L 249.948,116.338 L 251.130,112.563 L 250.704,108.781 L 247.157,103.134 L 231.828,88.133 L 229.298,84.396 L 227.799,80.663 L 227.380,76.932 L 227.929,73.201 L 233.971,58.196 L 234.034,54.418 L 232.587,50.643 L 229.519,46.878 L 225.043,43.121 L 186.154,17.211 L 178.669,13.087 L 178.068,12.857 L 178.068,156.867 L 175.018,156.867 L 175.018,11.693 L 171.182,10.230 L 161.827,7.980 L 154.347,7.018 L 154.347,155.606 L 151.297,155.606 L 151.297,6.625 L 150.604,6.536 L 141.253,6.000 L 115.077,6.064 L 106.903,6.725 L 106.903,155.606 L 103.853,155.606 L 103.853,6.972 L 101.984,7.123 L 90.758,9.184 L 83.182,11.818 L 83.182,156.867 L 80.132,156.867 L 80.132,12.878 L 79.531,13.086 L 70.176,18.428 L 33.155,43.122 L 26.949,48.758 L 24.688,52.526 L 24.166,54.421 L 24.228,58.196 L 30.271,73.201 L 30.819,76.932 L 30.400,80.663 L 28.901,84.396 L 26.372,88.133 L 9.525,105.011 L 7.497,108.780 L 7.073,110.673 L 7.071,112.567 L 8.251,116.338 L 10.705,120.101 L 20.057,131.349 L 22.153,135.085 L 23.210,138.816 L 23.131,142.541 L 20.913,148.142 L 8.540,163.141 L 6.000,168.791 L 6.159,172.573 L 7.844,176.347 L 21.024,191.350 L 24.312,196.959 L 25.224,200.689 L 25.080,204.418 L 23.945,208.150 L 15.876,221.271 L 14.228,225.036 L 13.777,228.808 L 14.093,230.703 L 15.852,234.470 L 17.818,236.995 L 33.210,251.357 L 39.098,258.843 L 41.863,266.323 L 43.227,279.451 L 45.862,285.101 L 51.477,290.312 L 58.805,294.499 L 68.090,298.252 L 75.805,300.599 L 87.027,303.042 L 96.380,304.212 L 130.034,305.517 L 150.600,304.926 L 165.316,303.881 L 178.655,301.536 Z M 127.575,6.277 L 130.625,6.277 L 130.625,155.606 L 127.575,155.606 L 127.575,6.277 Z" fill="none" stroke="#ff0000" stroke-width="0.1" fill-rule="evenodd"/>
<path d="M 428.854,301.536 L 441.948,297.663 L 453.242,292.621 L 460.667,287.230 L 462.547,285.085 L 464.601,281.333 L 465.531,277.568 L 466.536,266.323 L 469.300,258.843 L 475.188,251.357 L 489.481,238.231 L 493.600,232.589 L 494.622,228.812 L 494.171,225.036 L 492.523,221.271 L 484.454,208.150 L 483.319,204.418 L 483.174,200.689 L 484.086,196.959 L 487.375,191.350 L 500.555,176.347 L 502.239,172.573 L 502.399,168.791 L 499.858,163.141 L 487.485,148.142 L 485.268,142.541 L 485.188,138.816 L 486.246,135.085 L 488.342,131.349 L 497.693,120.101 L 500.148,116.338 L 501.329,112.563 L 500.904,108.781 L 497.357,103.134 L 482.027,88.133 L 479.498,84.396 L 477.998,80.663 L 477.580,76.932 L 478.128,73.201 L 484.171,58.196 L 484.233,54.418 L 482.787,50.643 L 479.719,46.878 L 475.242,43.121 L 436.353,17.211 L 428.869,13.087 L 428.267,12.857 L 428.267,156.867 L 425.217,156.867 L 425.217,11.693 L 421.381,10.230 L 412.027,7.980 L 404.546,7.018 L 404.546,155.606 L 401.496,155.606 L 401.496,6.625 L 400.803,6.536 L 391.452,6.000 L 365.276,6.064 L 357.102,6.725 L 357.102,155.606 L 354.052,155.606 L 354.052,6.972 L 352.183,7.123 L 340.958,9.184 L 333.381,11.818 L 333.381,156.867 L 330.331,156.867 L 330.331,12.878 L 329.730,13.086 L 320.376,18.428 L 283.355,43.122 L 277.148,48.758 L 274.887,52.526 L 274.365,54.421 L 274.427,58.196 L 280.470,73.201 L 281.018,76.932 L 280.600,80.663 L 279.100,84.396 L 276.571,88.133 L 259.724,105.011 L 257.696,108.780 L 257.272,110.673 L 257.270,112.567 L 258.451,116.338 L 260.905,120.101 L 270.256,131.349 L 272.352,135.085 L 273.410,138.816 L 273.330,142.541 L 271.113,148.142 L 258.740,163.141 L 256.199,168.791 L 256.359,172.573 L 258.043,176.347 L 271.223,191.350 L 274.512,196.959 L 275.424,200.689 L 275.279,204.418 L 274.144,208.150 L 266.075,221.271 L 264.427,225.036 L 263.976,228.808 L 264.293,230.703 L 266.052,234.470 L 268.018,236.995 L 283.410,251.357 L 289.298,258.843 L 292.062,266.323 L 293.427,279.451 L 296.061,285.101 L 301.676,290.312 L 309.004,294.499 L 318.289,298.252 L 326.004,300.599 L 337.226,303.042 L 346.579,304.212 L 380.234,305.517 L 400.800,304.926 L 415.515,303.881 L 428.854,301.536 Z M 377.774,6.277 L 380.824,6.277 L 380.824,155.606 L 377.774,155.606 L 377.774,6.277 Z" fill="none" stroke="#ff0000" stroke-width="0.1" fill-rule="evenodd"/>
<text x="129.10" y="156.24" font-size="6" fill="none" stroke="#0000ff" stroke-width="0.1" text-anchor="middle">7</text>
<text x="379.30" y="156.24" font-size="6" fill="none" stroke="#0000ff" stroke-width="0.1" text-anchor="middle">9</text>
</svg>
