<svg xmlns="http://www.w3.org/2000/svg" width="600.0mm" height="400.0mm" viewBox="0 0 600.0 400.0">
<title>SculptGen sheet 5/5 — 3mm plywood — kerf 0.15mm</title>
<rect x="0" y="0" width="600.0" height="400.0" fill="none" stroke="#cccccc" stroke-width="0.1"/>
<path d="M 75.943,294.449 L 75.943,294.450 L 79.025,295.480 L 90.250,298.007 L 97.836,298.553 L 97.836,153.915 L 100.886,153.915 L 100.886,298.772 L 105.214,299.083 L 119.580,299.015 L 119.580,152.654 L 122.630,152.654 L 122.630,299.001 L 141.324,298.912 L 141.324,153.915 L 144.374,153.915 L 144.374,298.746 L 153.833,297.668 L 166.428,294.477 L 166.428,294.477 L 166.928,294.351 L 178.155,289.876 L 185.645,285.147 L 188.755,282.000 L 190.884,278.232 L 191.811,274.467 L 193.160,261.346 L 194.526,257.611 L 196.692,253.873 L 202.473,247.197 L 219.094,235.135 L 224.310,229.494 L 225.620,225.712 L 225.103,221.931 L 223.095,218.163 L 215.609,208.786 L 213.238,205.046 L 211.919,201.316 L 211.874,197.591 L 213.182,193.864 L 215.794,190.129 L 230.381,177.007 L 233.824,173.248 L 235.850,169.475 L 236.115,165.689 L 233.341,160.036 L 222.728,148.781 L 219.875,145.040 L 218.093,141.307 L 217.583,137.582 L 218.372,133.855 L 220.380,130.123 L 232.243,117.001 L 234.875,113.239 L 236.173,109.467 L 236.209,107.572 L 235.815,105.679 L 233.848,101.912 L 230.624,98.153 L 218.921,86.904 L 216.016,83.164 L 214.121,79.429 L 213.326,75.699 L 213.590,71.968 L 214.731,68.231 L 220.017,56.978 L 220.773,53.206 L 220.209,49.433 L 219.353,47.538 L 214.453,41.899 L 206.838,36.266 L 200.587,32.605 L 174.412,20.254 L 161.323,14.791 L 150.102,11.061 L 138.880,8.153 L 126.661,6.254 L 118.298,6.000 L 107.073,7.438 L 97.720,9.475 L 86.498,12.802 L 75.277,17.016 L 39.752,33.559 L 30.056,40.020 L 24.123,45.658 L 22.002,49.429 L 21.437,53.206 L 22.194,56.978 L 27.480,68.231 L 28.621,71.968 L 28.885,75.699 L 28.090,79.429 L 26.195,83.164 L 23.289,86.904 L 11.587,98.153 L 8.363,101.912 L 6.396,105.679 L 6.001,107.576 L 6.494,111.352 L 8.517,115.123 L 18.842,126.377 L 22.967,131.990 L 24.394,135.719 L 24.535,139.444 L 23.376,143.172 L 21.019,146.908 L 10.428,158.156 L 7.582,161.917 L 6.098,165.688 L 6.000,167.584 L 6.363,169.480 L 8.387,173.248 L 11.830,177.007 L 26.417,190.129 L 29.029,193.864 L 30.337,197.591 L 30.292,201.316 L 28.972,205.046 L 26.602,208.786 L 19.115,218.163 L 17.108,221.931 L 16.591,225.707 L 17.008,227.604 L 17.903,229.495 L 21.000,233.259 L 38.799,246.385 L 45.519,253.873 L 47.685,257.611 L 49.051,261.346 L 50.399,274.467 L 51.327,278.231 L 52.812,281.064 L 55.136,283.884 L 60.312,287.818 L 69.670,292.352 L 75.943,294.449 Z M 76.092,294.420 L 76.092,155.175 L 79.142,155.175 L 79.142,294.420 L 76.092,294.420 Z M 166.118,294.420 L 163.068,294.420 L 163.068,155.175 L 166.118,155.175 L 166.118,294.420 Z" fill="none" stroke="#ff0000" stroke-width="0.1" fill-rule="evenodd"/>
<path d="M 310.151,294.449 L 310.151,294.450 L 313.234,295.480 L 324.459,298.007 L 332.045,298.553 L 332.045,153.915 L 335.095,153.915 L 335.095,298.772 L 339.422,299.083 L 353.789,299.015 L 353.789,152.654 L 356.839,152.654 L 356.839,299.001 L 375.533,298.912 L 375.533,153.915 L 378.583,153.915 L 378.583,298.746 L 388.041,297.668 L 400.637,294.477 L 400.637,294.477 L 401.136,294.351 L 412.363,289.876 L 419.853,285.147 L 422.963,282.000 L 425.092,278.232 L 426.020,274.467 L 427.369,261.346 L 428.734,257.611 L 430.900,253.873 L 436.682,247.197 L 453.303,235.135 L 458.519,229.494 L 459.829,225.712 L 459.311,221.931 L 457.304,218.163 L 449.817,208.786 L 447.447,205.046 L 446.128,201.316 L 446.082,197.591 L 447.390,193.864 L 450.002,190.129 L 464.590,177.007 L 468.033,173.248 L 470.059,169.475 L 470.323,165.689 L 467.549,160.036 L 456.936,148.781 L 454.083,145.040 L 452.302,141.307 L 451.792,137.582 L 452.580,133.855 L 454.589,130.123 L 466.452,117.001 L 469.083,113.239 L 470.382,109.467 L 470.417,107.572 L 470.023,105.679 L 468.056,101.912 L 464.832,98.153 L 453.130,86.904 L 450.225,83.164 L 448.329,79.429 L 447.534,75.699 L 447.798,71.968 L 448.939,68.231 L 454.226,56.978 L 454.982,53.206 L 454.418,49.433 L 453.562,47.538 L 448.661,41.899 L 441.046,36.266 L 434.796,32.605 L 408.620,20.254 L 395.531,14.791 L 384.310,11.061 L 373.088,8.153 L 360.870,6.254 L 352.506,6.000 L 341.281,7.438 L 331.928,9.475 L 320.707,12.802 L 309.486,17.016 L 273.960,33.559 L 264.265,40.020 L 258.331,45.658 L 256.211,49.429 L 255.646,53.206 L 256.402,56.978 L 261.689,68.231 L 262.830,71.968 L 263.093,75.699 L 262.299,79.429 L 260.403,83.164 L 257.498,86.904 L 245.795,98.153 L 242.571,101.912 L 240.605,105.679 L 240.210,107.576 L 240.702,111.352 L 242.725,115.123 L 253.051,126.377 L 257.175,131.990 L 258.602,135.719 L 258.743,139.444 L 257.584,143.172 L 255.227,146.908 L 244.637,158.156 L 241.791,161.917 L 240.307,165.688 L 240.209,167.584 L 240.571,169.480 L 242.595,173.248 L 246.038,177.007 L 260.625,190.129 L 263.238,193.864 L 264.546,197.591 L 264.500,201.316 L 263.181,205.046 L 260.811,208.786 L 253.324,218.163 L 251.316,221.931 L 250.800,225.707 L 251.216,227.604 L 252.111,229.495 L 255.209,233.259 L 273.007,246.385 L 279.728,253.873 L 281.894,257.611 L 283.259,261.346 L 284.608,274.467 L 285.535,278.231 L 287.020,281.064 L 289.345,283.884 L 294.520,287.818 L 303.879,292.352 L 310.151,294.449 Z M 310.301,294.420 L 310.301,155.175 L 313.351,155.175 L 313.351,294.420 L 310.301,294.420 Z M 400.327,294.420 L 397.277,294.420 L 397.277,155.175 L 400.327,155.175 L 400.327,294.420 Z" fill="none" stroke="#ff0000" stroke-width="0.1" fill-rule="evenodd"/>
<text x="120.99" y="150.72" font-size="6" fill="none" stroke="#0000ff" stroke-width="0.1" text-anchor="middle">1</text>
<text x="355.20" y="150.72" font-size="6" fill="none" stroke="#0000ff" stroke-width="0.1" text-anchor="middle">5</text>
</svg>
