<svg xmlns="http://www.w3.org/2000/svg" width="600.0mm" height="400.0mm" viewBox="0 0 600.0 400.0">
<title>SculptGen sheet 4/5 — 3mm plywood — kerf 0.15mm</title>
<rect x="0" y="0" width="600.0" height="400.0" fill="none" stroke="#cccccc" stroke-width="0.1"/>
<path d="M 163.145,296.365 L 178.106,293.446 L 190.674,289.569 L 198.694,285.569 L 202.513,282.047 L 204.749,278.278 L 205.676,274.510 L 206.312,263.261 L 207.288,259.525 L 209.109,255.790 L 215.459,248.302 L 230.740,235.176 L 234.957,229.532 L 235.862,225.751 L 235.129,221.973 L 233.057,218.208 L 222.965,205.086 L 221.327,201.353 L 220.820,197.626 L 221.543,193.899 L 223.456,190.167 L 238.346,173.289 L 239.883,169.512 L 239.714,165.727 L 236.346,160.077 L 220.933,145.078 L 217.900,139.476 L 217.523,135.755 L 218.461,132.027 L 220.594,128.293 L 230.383,117.044 L 232.865,113.281 L 233.947,109.507 L 233.834,107.611 L 233.260,105.717 L 230.835,101.951 L 227.031,98.193 L 213.492,86.945 L 210.112,83.204 L 207.855,79.469 L 206.808,75.740 L 206.929,72.013 L 208.881,66.403 L 213.612,57.021 L 214.310,51.368 L 213.674,49.207 L 211.494,45.700 L 205.110,40.065 L 171.910,17.194 L 171.910,155.070 L 168.860,155.070 L 168.860,15.825 L 169.922,15.825 L 168.780,15.039 L 161.295,10.860 L 153.808,8.021 L 148.189,6.617 L 148.189,152.549 L 145.139,152.549 L 145.139,6.459 L 136.964,6.034 L 124.467,6.018 L 124.467,153.810 L 121.417,153.810 L 121.417,6.014 L 110.789,6.000 L 100.745,6.473 L 100.745,152.549 L 97.695,152.549 L 97.695,6.616 L 86.461,10.029 L 77.103,15.039 L 75.970,15.825 L 77.024,15.825 L 77.024,155.070 L 73.974,155.070 L 73.974,17.210 L 38.314,41.941 L 34.389,45.702 L 32.082,49.469 L 31.574,51.366 L 31.722,55.142 L 38.505,70.146 L 39.151,73.876 L 38.707,77.604 L 37.055,81.336 L 34.211,85.072 L 16.814,100.071 L 13.628,103.834 L 12.048,107.611 L 12.273,111.393 L 14.122,115.166 L 23.865,126.420 L 26.484,130.160 L 28.053,133.892 L 28.339,137.616 L 27.289,141.343 L 24.952,145.077 L 9.537,160.077 L 6.170,165.727 L 6.000,169.512 L 7.537,173.289 L 22.427,190.167 L 24.340,193.899 L 25.064,197.626 L 24.557,201.353 L 22.918,205.086 L 11.643,220.087 L 10.194,223.861 L 10.265,227.641 L 11.984,231.414 L 15.145,235.177 L 30.425,248.303 L 35.516,253.919 L 37.786,257.657 L 39.180,261.390 L 40.207,274.511 L 41.134,278.278 L 43.370,282.045 L 45.171,283.932 L 50.905,287.691 L 60.559,291.445 L 71.519,294.298 L 84.608,296.649 L 105.175,299.315 L 123.877,300.639 L 143.562,298.949 L 163.145,296.365 Z" fill="none" stroke="#ff0000" stroke-width="0.1" fill-rule="evenodd"/>
<path d="M 401.028,296.365 L 415.989,293.446 L 428.557,289.569 L 436.577,285.569 L 440.396,282.047 L 442.632,278.278 L 443.559,274.510 L 444.195,263.261 L 445.172,259.525 L 446.992,255.790 L 453.342,248.302 L 468.623,235.176 L 472.840,229.532 L 473.746,225.751 L 473.012,221.973 L 470.940,218.208 L 460.848,205.086 L 459.210,201.353 L 458.703,197.626 L 459.427,193.899 L 461.339,190.167 L 476.230,173.289 L 477.767,169.512 L 477.597,165.727 L 474.229,160.077 L 458.816,145.078 L 455.783,139.476 L 455.406,135.755 L 456.344,132.027 L 458.477,128.293 L 468.266,117.044 L 470.748,113.281 L 471.831,109.507 L 471.717,107.611 L 471.144,105.717 L 468.719,101.951 L 464.914,98.193 L 451.375,86.945 L 447.995,83.204 L 445.738,79.469 L 444.691,75.740 L 444.813,72.013 L 446.764,66.403 L 451.496,57.021 L 452.193,51.368 L 451.557,49.207 L 449.377,45.700 L 442.993,40.065 L 409.793,17.194 L 409.793,155.070 L 406.743,155.070 L 406.743,15.825 L 407.805,15.825 L 406.664,15.039 L 399.179,10.860 L 391.691,8.021 L 386.072,6.617 L 386.072,152.549 L 383.022,152.549 L 383.022,6.459 L 374.847,6.034 L 362.350,6.018 L 362.350,153.810 L 359.300,153.810 L 359.300,6.014 L 348.672,6.000 L 338.628,6.473 L 338.628,152.549 L 335.578,152.549 L 335.578,6.616 L 324.344,10.029 L 314.987,15.039 L 313.853,15.825 L 314.907,15.825 L 314.907,155.070 L 311.857,155.070 L 311.857,17.210 L 276.197,41.941 L 272.272,45.702 L 269.965,49.469 L 269.458,51.366 L 269.606,55.142 L 276.389,70.146 L 277.034,73.876 L 276.590,77.604 L 274.938,81.336 L 272.094,85.072 L 254.698,100.071 L 251.511,103.834 L 249.931,107.611 L 250.156,111.393 L 252.005,115.166 L 261.749,126.420 L 264.367,130.160 L 265.936,133.892 L 266.222,137.616 L 265.173,141.343 L 262.835,145.077 L 247.421,160.077 L 244.053,165.727 L 243.883,169.512 L 245.420,173.289 L 260.311,190.167 L 262.223,193.899 L 262.947,197.626 L 262.440,201.353 L 260.802,205.086 L 249.527,220.087 L 248.078,223.861 L 248.148,227.641 L 249.867,231.414 L 253.028,235.177 L 268.309,248.303 L 273.400,253.919 L 275.669,257.657 L 277.063,261.390 L 278.091,274.511 L 279.018,278.278 L 281.253,282.045 L 283.055,283.932 L 288.788,287.691 L 298.442,291.445 L 309.402,294.298 L 322.492,296.649 L 343.059,299.315 L 361.761,300.639 L 381.445,298.949 L 401.028,296.365 Z" fill="none" stroke="#ff0000" stroke-width="0.1" fill-rule="evenodd"/>
<text x="45.30" y="153.18" font-size="6" fill="none" stroke="#0000ff" stroke-width="0.1" text-anchor="middle">6</text>
<text x="283.18" y="153.18" font-size="6" fill="none" stroke="#0000ff" stroke-width="0.1" text-anchor="middle">10</text>
</svg>
